<svg xmlns="http://www.w3.org/2000/svg" viewBox="0 0 68 68" width="68" height="68" preserveAspectRatio="xMidYMid slice" style="width: 100%; height: 100%; transform: translate3d(0px, 0px, 0px);"><defs><clipPath id="__lottie_element_2162"><rect width="68" height="68" x="0" y="0"></rect></clipPath><mask id="__lottie_element_2163" mask-type="alpha"><g clip-path="url(#__lottie_element_2164)" transform="matrix(1,0,0,1,2,2)" opacity="1" style="display: block;"><g mask="url(#__lottie_element_2188)" style="display: block;"><g transform="matrix(0,0,0,2,51,0)" opacity="1"><g opacity="1" transform="matrix(1,0,0,1,20.5,19.5)"><path fill="rgb(0,0,0)" fill-opacity="1" d=" M0,-12.5 C-2.760999917984009,-12.5 -5,-10.26099967956543 -5,-7.5 C-5,-7.5 -5,12.5 -5,12.5 C-5,12.5 5,12.5 5,12.5 C5,12.5 5,-7.5 5,-7.5 C5,-10.26099967956543 2.760999917984009,-12.5 0,-12.5z"></path></g></g></g><g transform="matrix(2,0,0,2,0,0)" opacity="1" style="display: block;"><g opacity="1" transform="matrix(1,0,0,1,29.25,24.83300018310547)"><path fill="rgb(0,0,0)" fill-opacity="1" d=" M-2.750999927520752,2.1670000553131104 C-2.750999927520752,2.1670000553131104 2.750999927520752,2.1670000553131104 2.750999927520752,2.1670000553131104 C2.750999927520752,2.1670000553131104 2.750999927520752,-2.1670000553131104 2.750999927520752,-2.1670000553131104 C2.750999927520752,-2.1670000553131104 -2.750999927520752,-2.1670000553131104 -2.750999927520752,-2.1670000553131104 C-2.750999927520752,-2.1670000553131104 -2.750999927520752,2.1670000553131104 -2.750999927520752,2.1670000553131104z"></path></g><g opacity="1" transform="matrix(1,0,0,1,29.25,19.5)"><path fill="rgb(0,0,0)" fill-opacity="1" d=" M-2.750999927520752,2.1670000553131104 C-2.750999927520752,2.1670000553131104 2.750999927520752,2.1670000553131104 2.750999927520752,2.1670000553131104 C2.750999927520752,2.1670000553131104 2.750999927520752,-2.1670000553131104 2.750999927520752,-2.1670000553131104 C2.750999927520752,-2.1670000553131104 -2.750999927520752,-2.1670000553131104 -2.750999927520752,-2.1670000553131104 C-2.750999927520752,-2.1670000553131104 -2.750999927520752,2.1670000553131104 -2.750999927520752,2.1670000553131104z"></path></g><g opacity="1" transform="matrix(1,0,0,1,29.25,14.166999816894531)"><path fill="rgb(0,0,0)" fill-opacity="1" d=" M-2.75,-2.1670000553131104 C-2.75,-2.1670000553131104 2.75,-2.1670000553131104 2.75,-2.1670000553131104 C2.75,-2.1670000553131104 2.75,2.1670000553131104 2.75,2.1670000553131104 C2.75,2.1670000553131104 -2.75,2.1670000553131104 -2.75,2.1670000553131104 C-2.75,2.1670000553131104 -2.75,-2.1670000553131104 -2.75,-2.1670000553131104z"></path></g><g opacity="1" transform="matrix(1,0,0,1,29.25,30)"><path fill="rgb(0,0,0)" fill-opacity="1" d=" M-2.75,-2 C-2.75,-2 2.75,-2 2.75,-2 C2.75,-2 2.75,2 2.75,2 C2.75,2 -2.75,2 -2.75,2 C-2.75,2 -2.75,-2 -2.75,-2z"></path></g><g opacity="1" transform="matrix(1,0,0,1,20.5,3.062000036239624)"><path fill="rgb(0,0,0)" fill-opacity="1" d=" M0,-3.062000036239624 C-1.065999984741211,-3.062000036239624 -2.0929999351501465,-2.9070000648498535 -3.072000026702881,-2.634999990463257 C-3.072000026702881,-2.634999990463257 -1.2209999561309814,3.062000036239624 -1.2209999561309814,3.062000036239624 C-0.8270000219345093,2.9800000190734863 -0.4180000126361847,2.937999963760376 0,2.937999963760376 C0.4180000126361847,2.937999963760376 0.8270000219345093,2.9800000190734863 1.2209999561309814,3.062000036239624 C1.2209999561309814,3.062000036239624 3.072000026702881,-2.634999990463257 3.072000026702881,-2.634999990463257 C2.0929999351501465,-2.9070000648498535 1.065999984741211,-3.062000036239624 0,-3.062000036239624z"></path></g><g opacity="1" transform="matrix(1,0,0,1,28.690000534057617,8.07699966430664)"><path fill="rgb(0,0,0)" fill-opacity="1" d=" M1.3960000276565552,-2.9240000247955322 C1.3960000276565552,-2.9240000247955322 -3.2839999198913574,0.47699999809265137 -3.2839999198913574,0.47699999809265137 C-2.7799999713897705,1.1929999589920044 -2.431999921798706,2.0239999294281006 -2.2799999713897705,2.9240000247955322 C-2.2799999713897705,2.9240000247955322 3.2839999198913574,2.9240000247955322 3.2839999198913574,2.9240000247955322 C3.191999912261963,0.7680000066757202 2.5160000324249268,-1.2350000143051147 1.3960000276565552,-2.9240000247955322z"></path></g><g opacity="1" transform="matrix(1,0,0,1,26.086999893188477,4.260000228881836)"><path fill="rgb(0,0,0)" fill-opacity="1" d=" M-1.5640000104904175,-3.5230000019073486 C-1.5640000104904175,-3.5230000019073486 -3.4079999923706055,2.1540000438690186 -3.4079999923706055,2.1540000438690186 C-2.618000030517578,2.4630000591278076 -1.906999945640564,2.930000066757202 -1.3209999799728394,3.5230000019073486 C-1.3209999799728394,3.5230000019073486 3.4079999923706055,0.08699999749660492 3.4079999923706055,0.08699999749660492 C2.121000051498413,-1.5299999713897705 0.40700000524520874,-2.7860000133514404 -1.5640000104904175,-3.5230000019073486z"></path></g></g><g mask="url(#__lottie_element_2178)" style="display: block;"><g transform="matrix(2,0,0,2,0,0)" opacity="1"><g opacity="1" transform="matrix(1,0,0,1,11.75,24.867000579833984)"><path fill="rgb(0,0,0)" fill-opacity="1" d=" M-2.75,-2.1670000553131104 C-2.75,-2.1670000553131104 2.75,-2.1670000553131104 2.75,-2.1670000553131104 C2.75,-2.1670000553131104 2.75,2.1670000553131104 2.75,2.1670000553131104 C2.75,2.1670000553131104 -2.75,2.1670000553131104 -2.75,2.1670000553131104 C-2.75,2.1670000553131104 -2.75,-2.1670000553131104 -2.75,-2.1670000553131104z"></path></g><g opacity="1" transform="matrix(1,0,0,1,11.75,19.466999053955078)"><path fill="rgb(0,0,0)" fill-opacity="1" d=" M-2.75,-2.1670000553131104 C-2.75,-2.1670000553131104 2.75,-2.1670000553131104 2.75,-2.1670000553131104 C2.75,-2.1670000553131104 2.75,2.1670000553131104 2.75,2.1670000553131104 C2.75,2.1670000553131104 -2.75,2.1670000553131104 -2.75,2.1670000553131104 C-2.75,2.1670000553131104 -2.75,-2.1670000553131104 -2.75,-2.1670000553131104z"></path></g><g opacity="1" transform="matrix(1,0,0,1,11.75,14.166999816894531)"><path fill="rgb(0,0,0)" fill-opacity="1" d=" M-2.75,-2.1670000553131104 C-2.75,-2.1670000553131104 2.75,-2.1670000553131104 2.75,-2.1670000553131104 C2.75,-2.1670000553131104 2.75,2.1670000553131104 2.75,2.1670000553131104 C2.75,2.1670000553131104 -2.75,2.1670000553131104 -2.75,2.1670000553131104 C-2.75,2.1670000553131104 -2.75,-2.1670000553131104 -2.75,-2.1670000553131104z"></path></g><g opacity="1" transform="matrix(1,0,0,1,12.3100004196167,8.07699966430664)"><path fill="rgb(0,0,0)" fill-opacity="1" d=" M3.2839999198913574,0.47699999809265137 C3.2839999198913574,0.47699999809265137 -1.3960000276565552,-2.9240000247955322 -1.3960000276565552,-2.9240000247955322 C-2.5160000324249268,-1.2350000143051147 -3.190999984741211,0.7680000066757202 -3.2839999198913574,2.9240000247955322 C-3.2839999198913574,2.9240000247955322 2.2799999713897705,2.9240000247955322 2.2799999713897705,2.9240000247955322 C2.431999921798706,2.0239999294281006 2.7799999713897705,1.1929999589920044 3.2839999198913574,0.47699999809265137z"></path></g><g opacity="1" transform="matrix(1,0,0,1,14.913000106811523,4.261000156402588)"><path fill="rgb(0,0,0)" fill-opacity="1" d=" M3.4089999198913574,2.1540000438690186 C3.4089999198913574,2.1540000438690186 1.5640000104904175,-3.5230000019073486 1.5640000104904175,-3.5230000019073486 C-0.40700000524520874,-2.7860000133514404 -2.119999885559082,-1.5299999713897705 -3.4079999923706055,0.08699999749660492 C-3.4079999923706055,0.08699999749660492 1.3220000267028809,3.5230000019073486 1.3220000267028809,3.5230000019073486 C1.9079999923706055,2.930000066757202 2.618000030517578,2.4630000591278076 3.4089999198913574,2.1540000438690186z"></path></g><g opacity="1" transform="matrix(1,0,0,1,11.75,30)"><path fill="rgb(0,0,0)" fill-opacity="1" d=" M-2.75,-2 C-2.75,-2 2.75,-2 2.75,-2 C2.75,-2 2.75,2 2.75,2 C2.75,2 -2.75,2 -2.75,2 C-2.75,2 -2.75,-2 -2.75,-2z"></path></g></g></g><g mask="url(#__lottie_element_2167)" style="display: block;"><g transform="matrix(2,0,0,2,0,0)" opacity="1"><g opacity="1" transform="matrix(1,0,0,1,14.309000015258789,19.5)"><path fill="rgb(0,0,0)" fill-opacity="1" d=" M2.2209999561309814,8 C2.2209999561309814,8 9.220999717712402,0 9.220999717712402,0 C9.220999717712402,0 2.2209999561309814,-8 2.2209999561309814,-8 C2.2209999561309814,-8 2.2209999561309814,-4 2.2209999561309814,-4 C2.2209999561309814,-4 -9.220999717712402,-4 -9.220999717712402,-4 C-9.220999717712402,-4 -9.220999717712402,4 -9.220999717712402,4 C-9.220999717712402,4 2.2209999561309814,4 2.2209999561309814,4 C2.2209999561309814,4 2.2209999561309814,8 2.2209999561309814,8z"></path></g></g></g></g></mask><clipPath id="__lottie_element_2164"><path d="M0,0 L66,0 L66,66 L0,66z"></path></clipPath><mask id="__lottie_element_2167" mask-type="alpha"><g transform="matrix(1,0,0,1,32,33)" opacity="1" style="display: block;"><g opacity="1" transform="matrix(1,0,0,1,0,0)"><path fill="url(#__lottie_element_2170)" fill-opacity="1" d=" M8.062000274658203,-20.875 C-3.937999963760376,-20.875 -32.9379997253418,-20.812000274658203 -32.9379997253418,-20.812000274658203 C-32.9379997253418,-20.812000274658203 -33.0620002746582,31.25 -33.0620002746582,31.25 C-33.0620002746582,31.25 20,31.125 20,31.125 C20,31.125 20.062000274658203,-10.875 20.062000274658203,-10.875 C20.062000274658203,-10.875 20.062000274658203,-20.875 8.062000274658203,-20.875z"></path></g></g></mask><linearGradient id="__lottie_element_2170" spreadMethod="pad" gradientUnits="userSpaceOnUse" x1="0" y1="0" x2="100" y2="0"><stop offset="0%" stop-color="rgb(255,255,255)"></stop><stop offset="25%" stop-color="rgb(255,239,200)"></stop><stop offset="50%" stop-color="rgb(255,223,145)"></stop><stop offset="75%" stop-color="rgb(128,111,72)"></stop><stop offset="100%" stop-color="rgb(0,0,0)"></stop></linearGradient><mask id="__lottie_element_2174" mask-type="alpha"><g transform="matrix(1,0,0,1,-64.75,33)" opacity="1" style="display: block;"><g opacity="1" transform="matrix(1,0,0,1,0,0)"><path fill="url(#__lottie_element_2177)" fill-opacity="1" d=" M8.062000274658203,-20.875 C-3.937999963760376,-20.875 -32.9379997253418,-20.812000274658203 -32.9379997253418,-20.812000274658203 C-32.9379997253418,-20.812000274658203 -33.0620002746582,31.25 -33.0620002746582,31.25 C-33.0620002746582,31.25 20,31.125 20,31.125 C20,31.125 20.062000274658203,-10.875 20.062000274658203,-10.875 C20.062000274658203,-10.875 20.062000274658203,-20.875 8.062000274658203,-20.875z"></path></g></g></mask><linearGradient id="__lottie_element_2177" spreadMethod="pad" gradientUnits="userSpaceOnUse" x1="0" y1="0" x2="100" y2="0"><stop offset="0%" stop-color="rgb(255,255,255)"></stop><stop offset="25%" stop-color="rgb(255,239,200)"></stop><stop offset="50%" stop-color="rgb(255,223,145)"></stop><stop offset="75%" stop-color="rgb(128,111,72)"></stop><stop offset="100%" stop-color="rgb(0,0,0)"></stop></linearGradient><filter id="__lottie_element_2179" filterUnits="objectBoundingBox" x="0%" y="0%" width="100%" height="100%"><feComponentTransfer in="SourceGraphic"><feFuncA type="table" tableValues="1.0 0.0"></feFuncA></feComponentTransfer></filter><mask id="__lottie_element_2178" mask-type="alpha"><g filter="url(#__lottie_element_2179)"><rect width="66" height="66" x="0" y="0" fill="#ffffff" opacity="0"></rect><g transform="matrix(2,0,0,2,-5.100000381469727,0)" opacity="1" style="display: block;"><g opacity="1" transform="matrix(1.5,0,0,1.5,14.309000015258789,19.5)"><path fill="rgb(0,0,0)" fill-opacity="1" d=" M2.5759999752044678,8 C2.5759999752044678,8 9.222000122070312,0 9.222000122070312,0 C9.222000122070312,0 2.5759999752044678,-8 2.5759999752044678,-8 C2.5759999752044678,-8 2.5759999752044678,-4 2.5759999752044678,-4 C2.5759999752044678,-4 -5.492000102996826,-4 -5.492000102996826,-4 C-5.492000102996826,-4 -5.492000102996826,4 -5.492000102996826,4 C-5.492000102996826,4 2.5759999752044678,4 2.5759999752044678,4 C2.5759999752044678,4 2.5759999752044678,8 2.5759999752044678,8z"></path></g></g></g></mask><filter id="__lottie_element_2189" filterUnits="objectBoundingBox" x="0%" y="0%" width="100%" height="100%"><feComponentTransfer in="SourceGraphic"><feFuncA type="table" tableValues="1.0 0.0"></feFuncA></feComponentTransfer></filter><mask id="__lottie_element_2188" mask-type="alpha"><g filter="url(#__lottie_element_2189)"><rect width="66" height="66" x="0" y="0" fill="#ffffff" opacity="0"></rect><g transform="matrix(0,0,0,2,51,0)" opacity="1" style="display: block;"><g opacity="1" transform="matrix(1,0,0,1,20.5,15)"><path fill="rgb(191,74,255)" fill-opacity="1" d=" M3,0 C3,1.656999945640564 1.656999945640564,3 0,3 C-1.656999945640564,3 -3,1.656999945640564 -3,0 C-3,-1.656999945640564 -1.656999945640564,-3 0,-3 C1.656999945640564,-3 3,-1.656999945640564 3,0z"></path></g><g opacity="1" transform="matrix(1,0,0,1,20.5,19)"><path fill="rgb(191,74,255)" fill-opacity="1" d=" M0.5,4 C0.5,4 -0.5,4 -0.5,4 C-1.0520000457763672,4 -1.5,3.552000045776367 -1.5,3 C-1.5,3 -1.5,-0.18700000643730164 -1.5,-0.18700000643730164 C-1.5,-0.18700000643730164 -1.5,-3 -1.5,-3 C-1.5,-3.552000045776367 -1.0520000457763672,-4 -0.5,-4 C-0.5,-4 0.5,-4 0.5,-4 C1.0520000457763672,-4 1.5,-3.552000045776367 1.5,-3 C1.5,-3 1.5,-0.18700000643730164 1.5,-0.18700000643730164 C1.5,-0.18700000643730164 1.5,3 1.5,3 C1.5,3.552000045776367 1.0520000457763672,4 0.5,4z"></path></g></g></g></mask><mask id="__lottie_element_2198" mask-type="alpha"><g clip-path="url(#__lottie_element_2199)" transform="matrix(1,0,0,1,2,2)" opacity="1" style="display: block;"><g mask="url(#__lottie_element_2223)" style="display: block;"><g transform="matrix(0,0,0,2,51,0)" opacity="1"><g opacity="1" transform="matrix(1,0,0,1,20.5,19.5)"><path fill="rgb(0,0,0)" fill-opacity="1" d=" M0,-12.5 C-2.760999917984009,-12.5 -5,-10.26099967956543 -5,-7.5 C-5,-7.5 -5,12.5 -5,12.5 C-5,12.5 5,12.5 5,12.5 C5,12.5 5,-7.5 5,-7.5 C5,-10.26099967956543 2.760999917984009,-12.5 0,-12.5z"></path></g></g></g><g transform="matrix(2,0,0,2,0,0)" opacity="1" style="display: block;"><g opacity="1" transform="matrix(1,0,0,1,29.25,24.83300018310547)"><path fill="rgb(0,0,0)" fill-opacity="1" d=" M-2.750999927520752,2.1670000553131104 C-2.750999927520752,2.1670000553131104 2.750999927520752,2.1670000553131104 2.750999927520752,2.1670000553131104 C2.750999927520752,2.1670000553131104 2.750999927520752,-2.1670000553131104 2.750999927520752,-2.1670000553131104 C2.750999927520752,-2.1670000553131104 -2.750999927520752,-2.1670000553131104 -2.750999927520752,-2.1670000553131104 C-2.750999927520752,-2.1670000553131104 -2.750999927520752,2.1670000553131104 -2.750999927520752,2.1670000553131104z"></path></g><g opacity="1" transform="matrix(1,0,0,1,29.25,19.5)"><path fill="rgb(0,0,0)" fill-opacity="1" d=" M-2.750999927520752,2.1670000553131104 C-2.750999927520752,2.1670000553131104 2.750999927520752,2.1670000553131104 2.750999927520752,2.1670000553131104 C2.750999927520752,2.1670000553131104 2.750999927520752,-2.1670000553131104 2.750999927520752,-2.1670000553131104 C2.750999927520752,-2.1670000553131104 -2.750999927520752,-2.1670000553131104 -2.750999927520752,-2.1670000553131104 C-2.750999927520752,-2.1670000553131104 -2.750999927520752,2.1670000553131104 -2.750999927520752,2.1670000553131104z"></path></g><g opacity="1" transform="matrix(1,0,0,1,29.25,14.166999816894531)"><path fill="rgb(0,0,0)" fill-opacity="1" d=" M-2.75,-2.1670000553131104 C-2.75,-2.1670000553131104 2.75,-2.1670000553131104 2.75,-2.1670000553131104 C2.75,-2.1670000553131104 2.75,2.1670000553131104 2.75,2.1670000553131104 C2.75,2.1670000553131104 -2.75,2.1670000553131104 -2.75,2.1670000553131104 C-2.75,2.1670000553131104 -2.75,-2.1670000553131104 -2.75,-2.1670000553131104z"></path></g><g opacity="1" transform="matrix(1,0,0,1,29.25,30)"><path fill="rgb(0,0,0)" fill-opacity="1" d=" M-2.75,-2 C-2.75,-2 2.75,-2 2.75,-2 C2.75,-2 2.75,2 2.75,2 C2.75,2 -2.75,2 -2.75,2 C-2.75,2 -2.75,-2 -2.75,-2z"></path></g><g opacity="1" transform="matrix(1,0,0,1,20.5,3.062000036239624)"><path fill="rgb(0,0,0)" fill-opacity="1" d=" M0,-3.062000036239624 C-1.065999984741211,-3.062000036239624 -2.0929999351501465,-2.9070000648498535 -3.072000026702881,-2.634999990463257 C-3.072000026702881,-2.634999990463257 -1.2209999561309814,3.062000036239624 -1.2209999561309814,3.062000036239624 C-0.8270000219345093,2.9800000190734863 -0.4180000126361847,2.937999963760376 0,2.937999963760376 C0.4180000126361847,2.937999963760376 0.8270000219345093,2.9800000190734863 1.2209999561309814,3.062000036239624 C1.2209999561309814,3.062000036239624 3.072000026702881,-2.634999990463257 3.072000026702881,-2.634999990463257 C2.0929999351501465,-2.9070000648498535 1.065999984741211,-3.062000036239624 0,-3.062000036239624z"></path></g><g opacity="1" transform="matrix(1,0,0,1,28.690000534057617,8.07699966430664)"><path fill="rgb(0,0,0)" fill-opacity="1" d=" M1.3960000276565552,-2.9240000247955322 C1.3960000276565552,-2.9240000247955322 -3.2839999198913574,0.47699999809265137 -3.2839999198913574,0.47699999809265137 C-2.7799999713897705,1.1929999589920044 -2.431999921798706,2.0239999294281006 -2.2799999713897705,2.9240000247955322 C-2.2799999713897705,2.9240000247955322 3.2839999198913574,2.9240000247955322 3.2839999198913574,2.9240000247955322 C3.191999912261963,0.7680000066757202 2.5160000324249268,-1.2350000143051147 1.3960000276565552,-2.9240000247955322z"></path></g><g opacity="1" transform="matrix(1,0,0,1,26.086999893188477,4.260000228881836)"><path fill="rgb(0,0,0)" fill-opacity="1" d=" M-1.5640000104904175,-3.5230000019073486 C-1.5640000104904175,-3.5230000019073486 -3.4079999923706055,2.1540000438690186 -3.4079999923706055,2.1540000438690186 C-2.618000030517578,2.4630000591278076 -1.906999945640564,2.930000066757202 -1.3209999799728394,3.5230000019073486 C-1.3209999799728394,3.5230000019073486 3.4079999923706055,0.08699999749660492 3.4079999923706055,0.08699999749660492 C2.121000051498413,-1.5299999713897705 0.40700000524520874,-2.7860000133514404 -1.5640000104904175,-3.5230000019073486z"></path></g></g><g mask="url(#__lottie_element_2213)" style="display: block;"><g transform="matrix(2,0,0,2,0,0)" opacity="1"><g opacity="1" transform="matrix(1,0,0,1,11.75,24.867000579833984)"><path fill="rgb(0,0,0)" fill-opacity="1" d=" M-2.75,-2.1670000553131104 C-2.75,-2.1670000553131104 2.75,-2.1670000553131104 2.75,-2.1670000553131104 C2.75,-2.1670000553131104 2.75,2.1670000553131104 2.75,2.1670000553131104 C2.75,2.1670000553131104 -2.75,2.1670000553131104 -2.75,2.1670000553131104 C-2.75,2.1670000553131104 -2.75,-2.1670000553131104 -2.75,-2.1670000553131104z"></path></g><g opacity="1" transform="matrix(1,0,0,1,11.75,19.466999053955078)"><path fill="rgb(0,0,0)" fill-opacity="1" d=" M-2.75,-2.1670000553131104 C-2.75,-2.1670000553131104 2.75,-2.1670000553131104 2.75,-2.1670000553131104 C2.75,-2.1670000553131104 2.75,2.1670000553131104 2.75,2.1670000553131104 C2.75,2.1670000553131104 -2.75,2.1670000553131104 -2.75,2.1670000553131104 C-2.75,2.1670000553131104 -2.75,-2.1670000553131104 -2.75,-2.1670000553131104z"></path></g><g opacity="1" transform="matrix(1,0,0,1,11.75,14.166999816894531)"><path fill="rgb(0,0,0)" fill-opacity="1" d=" M-2.75,-2.1670000553131104 C-2.75,-2.1670000553131104 2.75,-2.1670000553131104 2.75,-2.1670000553131104 C2.75,-2.1670000553131104 2.75,2.1670000553131104 2.75,2.1670000553131104 C2.75,2.1670000553131104 -2.75,2.1670000553131104 -2.75,2.1670000553131104 C-2.75,2.1670000553131104 -2.75,-2.1670000553131104 -2.75,-2.1670000553131104z"></path></g><g opacity="1" transform="matrix(1,0,0,1,12.3100004196167,8.07699966430664)"><path fill="rgb(0,0,0)" fill-opacity="1" d=" M3.2839999198913574,0.47699999809265137 C3.2839999198913574,0.47699999809265137 -1.3960000276565552,-2.9240000247955322 -1.3960000276565552,-2.9240000247955322 C-2.5160000324249268,-1.2350000143051147 -3.190999984741211,0.7680000066757202 -3.2839999198913574,2.9240000247955322 C-3.2839999198913574,2.9240000247955322 2.2799999713897705,2.9240000247955322 2.2799999713897705,2.9240000247955322 C2.431999921798706,2.0239999294281006 2.7799999713897705,1.1929999589920044 3.2839999198913574,0.47699999809265137z"></path></g><g opacity="1" transform="matrix(1,0,0,1,14.913000106811523,4.261000156402588)"><path fill="rgb(0,0,0)" fill-opacity="1" d=" M3.4089999198913574,2.1540000438690186 C3.4089999198913574,2.1540000438690186 1.5640000104904175,-3.5230000019073486 1.5640000104904175,-3.5230000019073486 C-0.40700000524520874,-2.7860000133514404 -2.119999885559082,-1.5299999713897705 -3.4079999923706055,0.08699999749660492 C-3.4079999923706055,0.08699999749660492 1.3220000267028809,3.5230000019073486 1.3220000267028809,3.5230000019073486 C1.9079999923706055,2.930000066757202 2.618000030517578,2.4630000591278076 3.4089999198913574,2.1540000438690186z"></path></g><g opacity="1" transform="matrix(1,0,0,1,11.75,30)"><path fill="rgb(0,0,0)" fill-opacity="1" d=" M-2.75,-2 C-2.75,-2 2.75,-2 2.75,-2 C2.75,-2 2.75,2 2.75,2 C2.75,2 -2.75,2 -2.75,2 C-2.75,2 -2.75,-2 -2.75,-2z"></path></g></g></g><g mask="url(#__lottie_element_2202)" style="display: block;"><g transform="matrix(2,0,0,2,0,0)" opacity="1"><g opacity="1" transform="matrix(1,0,0,1,14.309000015258789,19.5)"><path fill="rgb(0,0,0)" fill-opacity="1" d=" M2.2209999561309814,8 C2.2209999561309814,8 9.220999717712402,0 9.220999717712402,0 C9.220999717712402,0 2.2209999561309814,-8 2.2209999561309814,-8 C2.2209999561309814,-8 2.2209999561309814,-4 2.2209999561309814,-4 C2.2209999561309814,-4 -9.220999717712402,-4 -9.220999717712402,-4 C-9.220999717712402,-4 -9.220999717712402,4 -9.220999717712402,4 C-9.220999717712402,4 2.2209999561309814,4 2.2209999561309814,4 C2.2209999561309814,4 2.2209999561309814,8 2.2209999561309814,8z"></path></g></g></g></g></mask><clipPath id="__lottie_element_2199"><path d="M0,0 L66,0 L66,66 L0,66z"></path></clipPath><mask id="__lottie_element_2202" mask-type="alpha"><g transform="matrix(1,0,0,1,32,33)" opacity="1" style="display: block;"><g opacity="1" transform="matrix(1,0,0,1,0,0)"><path fill="url(#__lottie_element_2205)" fill-opacity="1" d=" M8.062000274658203,-20.875 C-3.937999963760376,-20.875 -32.9379997253418,-20.812000274658203 -32.9379997253418,-20.812000274658203 C-32.9379997253418,-20.812000274658203 -33.0620002746582,31.25 -33.0620002746582,31.25 C-33.0620002746582,31.25 20,31.125 20,31.125 C20,31.125 20.062000274658203,-10.875 20.062000274658203,-10.875 C20.062000274658203,-10.875 20.062000274658203,-20.875 8.062000274658203,-20.875z"></path></g></g></mask><linearGradient id="__lottie_element_2205" spreadMethod="pad" gradientUnits="userSpaceOnUse" x1="0" y1="0" x2="100" y2="0"><stop offset="0%" stop-color="rgb(255,255,255)"></stop><stop offset="25%" stop-color="rgb(255,239,200)"></stop><stop offset="50%" stop-color="rgb(255,223,145)"></stop><stop offset="75%" stop-color="rgb(128,111,72)"></stop><stop offset="100%" stop-color="rgb(0,0,0)"></stop></linearGradient><mask id="__lottie_element_2209" mask-type="alpha"><g transform="matrix(1,0,0,1,-64.75,33)" opacity="1" style="display: block;"><g opacity="1" transform="matrix(1,0,0,1,0,0)"><path fill="url(#__lottie_element_2212)" fill-opacity="1" d=" M8.062000274658203,-20.875 C-3.937999963760376,-20.875 -32.9379997253418,-20.812000274658203 -32.9379997253418,-20.812000274658203 C-32.9379997253418,-20.812000274658203 -33.0620002746582,31.25 -33.0620002746582,31.25 C-33.0620002746582,31.25 20,31.125 20,31.125 C20,31.125 20.062000274658203,-10.875 20.062000274658203,-10.875 C20.062000274658203,-10.875 20.062000274658203,-20.875 8.062000274658203,-20.875z"></path></g></g></mask><linearGradient id="__lottie_element_2212" spreadMethod="pad" gradientUnits="userSpaceOnUse" x1="0" y1="0" x2="100" y2="0"><stop offset="0%" stop-color="rgb(255,255,255)"></stop><stop offset="25%" stop-color="rgb(255,239,200)"></stop><stop offset="50%" stop-color="rgb(255,223,145)"></stop><stop offset="75%" stop-color="rgb(128,111,72)"></stop><stop offset="100%" stop-color="rgb(0,0,0)"></stop></linearGradient><filter id="__lottie_element_2214" filterUnits="objectBoundingBox" x="0%" y="0%" width="100%" height="100%"><feComponentTransfer in="SourceGraphic"><feFuncA type="table" tableValues="1.0 0.0"></feFuncA></feComponentTransfer></filter><mask id="__lottie_element_2213" mask-type="alpha"><g filter="url(#__lottie_element_2214)"><rect width="66" height="66" x="0" y="0" fill="#ffffff" opacity="0"></rect><g transform="matrix(2,0,0,2,-5.100000381469727,0)" opacity="1" style="display: block;"><g opacity="1" transform="matrix(1.5,0,0,1.5,14.309000015258789,19.5)"><path fill="rgb(0,0,0)" fill-opacity="1" d=" M2.5759999752044678,8 C2.5759999752044678,8 9.222000122070312,0 9.222000122070312,0 C9.222000122070312,0 2.5759999752044678,-8 2.5759999752044678,-8 C2.5759999752044678,-8 2.5759999752044678,-4 2.5759999752044678,-4 C2.5759999752044678,-4 -5.492000102996826,-4 -5.492000102996826,-4 C-5.492000102996826,-4 -5.492000102996826,4 -5.492000102996826,4 C-5.492000102996826,4 2.5759999752044678,4 2.5759999752044678,4 C2.5759999752044678,4 2.5759999752044678,8 2.5759999752044678,8z"></path></g></g></g></mask><filter id="__lottie_element_2224" filterUnits="objectBoundingBox" x="0%" y="0%" width="100%" height="100%"><feComponentTransfer in="SourceGraphic"><feFuncA type="table" tableValues="1.0 0.0"></feFuncA></feComponentTransfer></filter><mask id="__lottie_element_2223" mask-type="alpha"><g filter="url(#__lottie_element_2224)"><rect width="66" height="66" x="0" y="0" fill="#ffffff" opacity="0"></rect><g transform="matrix(0,0,0,2,51,0)" opacity="1" style="display: block;"><g opacity="1" transform="matrix(1,0,0,1,20.5,15)"><path fill="rgb(191,74,255)" fill-opacity="1" d=" M3,0 C3,1.656999945640564 1.656999945640564,3 0,3 C-1.656999945640564,3 -3,1.656999945640564 -3,0 C-3,-1.656999945640564 -1.656999945640564,-3 0,-3 C1.656999945640564,-3 3,-1.656999945640564 3,0z"></path></g><g opacity="1" transform="matrix(1,0,0,1,20.5,19)"><path fill="rgb(191,74,255)" fill-opacity="1" d=" M0.5,4 C0.5,4 -0.5,4 -0.5,4 C-1.0520000457763672,4 -1.5,3.552000045776367 -1.5,3 C-1.5,3 -1.5,-0.18700000643730164 -1.5,-0.18700000643730164 C-1.5,-0.18700000643730164 -1.5,-3 -1.5,-3 C-1.5,-3.552000045776367 -1.0520000457763672,-4 -0.5,-4 C-0.5,-4 0.5,-4 0.5,-4 C1.0520000457763672,-4 1.5,-3.552000045776367 1.5,-3 C1.5,-3 1.5,-0.18700000643730164 1.5,-0.18700000643730164 C1.5,-0.18700000643730164 1.5,3 1.5,3 C1.5,3.552000045776367 1.0520000457763672,4 0.5,4z"></path></g></g></g></mask><linearGradient id="__lottie_element_2233" spreadMethod="pad" gradientUnits="userSpaceOnUse" x1="-32" y1="-32" x2="32" y2="32"><stop offset="0%" stop-color="rgb(184,134,61)"></stop><stop offset="25%" stop-color="rgb(220,178,103)"></stop><stop offset="50%" stop-color="rgb(255,223,145)"></stop><stop offset="75%" stop-color="rgb(220,178,103)"></stop><stop offset="100%" stop-color="rgb(184,134,61)"></stop></linearGradient><clipPath id="__lottie_element_2235"><path d="M0,0 L66,0 L66,66 L0,66z"></path></clipPath><mask id="__lottie_element_2238" mask-type="alpha"><g transform="matrix(1,0,0,1,32,33)" opacity="1" style="display: block;"><g opacity="1" transform="matrix(1,0,0,1,0,0)"><path fill="url(#__lottie_element_2241)" fill-opacity="1" d=" M8.062000274658203,-20.875 C-3.937999963760376,-20.875 -32.9379997253418,-20.812000274658203 -32.9379997253418,-20.812000274658203 C-32.9379997253418,-20.812000274658203 -33.0620002746582,31.25 -33.0620002746582,31.25 C-33.0620002746582,31.25 20,31.125 20,31.125 C20,31.125 20.062000274658203,-10.875 20.062000274658203,-10.875 C20.062000274658203,-10.875 20.062000274658203,-20.875 8.062000274658203,-20.875z"></path></g></g></mask><linearGradient id="__lottie_element_2241" spreadMethod="pad" gradientUnits="userSpaceOnUse" x1="0" y1="0" x2="100" y2="0"><stop offset="0%" stop-color="rgb(255,255,255)"></stop><stop offset="25%" stop-color="rgb(255,239,200)"></stop><stop offset="50%" stop-color="rgb(255,223,145)"></stop><stop offset="75%" stop-color="rgb(128,111,72)"></stop><stop offset="100%" stop-color="rgb(0,0,0)"></stop></linearGradient><mask id="__lottie_element_2245" mask-type="alpha"><g transform="matrix(1,0,0,1,-64.75,33)" opacity="1" style="display: block;"><g opacity="1" transform="matrix(1,0,0,1,0,0)"><path fill="url(#__lottie_element_2248)" fill-opacity="1" d=" M8.062000274658203,-20.875 C-3.937999963760376,-20.875 -32.9379997253418,-20.812000274658203 -32.9379997253418,-20.812000274658203 C-32.9379997253418,-20.812000274658203 -33.0620002746582,31.25 -33.0620002746582,31.25 C-33.0620002746582,31.25 20,31.125 20,31.125 C20,31.125 20.062000274658203,-10.875 20.062000274658203,-10.875 C20.062000274658203,-10.875 20.062000274658203,-20.875 8.062000274658203,-20.875z"></path></g></g></mask><linearGradient id="__lottie_element_2248" spreadMethod="pad" gradientUnits="userSpaceOnUse" x1="0" y1="0" x2="100" y2="0"><stop offset="0%" stop-color="rgb(255,255,255)"></stop><stop offset="25%" stop-color="rgb(255,239,200)"></stop><stop offset="50%" stop-color="rgb(255,223,145)"></stop><stop offset="75%" stop-color="rgb(128,111,72)"></stop><stop offset="100%" stop-color="rgb(0,0,0)"></stop></linearGradient><filter id="__lottie_element_2250" filterUnits="objectBoundingBox" x="0%" y="0%" width="100%" height="100%"><feComponentTransfer in="SourceGraphic"><feFuncA type="table" tableValues="1.0 0.0"></feFuncA></feComponentTransfer></filter><mask id="__lottie_element_2249" mask-type="alpha"><g filter="url(#__lottie_element_2250)"><rect width="66" height="66" x="0" y="0" fill="#ffffff" opacity="0"></rect><g transform="matrix(2,0,0,2,-5.100000381469727,0)" opacity="1" style="display: block;"><g opacity="1" transform="matrix(1.5,0,0,1.5,14.309000015258789,19.5)"><path fill="rgb(0,0,0)" fill-opacity="1" d=" M2.5759999752044678,8 C2.5759999752044678,8 9.222000122070312,0 9.222000122070312,0 C9.222000122070312,0 2.5759999752044678,-8 2.5759999752044678,-8 C2.5759999752044678,-8 2.5759999752044678,-4 2.5759999752044678,-4 C2.5759999752044678,-4 -5.492000102996826,-4 -5.492000102996826,-4 C-5.492000102996826,-4 -5.492000102996826,4 -5.492000102996826,4 C-5.492000102996826,4 2.5759999752044678,4 2.5759999752044678,4 C2.5759999752044678,4 2.5759999752044678,8 2.5759999752044678,8z"></path></g></g></g></mask><filter id="__lottie_element_2260" filterUnits="objectBoundingBox" x="0%" y="0%" width="100%" height="100%"><feComponentTransfer in="SourceGraphic"><feFuncA type="table" tableValues="1.0 0.0"></feFuncA></feComponentTransfer></filter><mask id="__lottie_element_2259" mask-type="alpha"><g filter="url(#__lottie_element_2260)"><rect width="66" height="66" x="0" y="0" fill="#ffffff" opacity="0"></rect><g transform="matrix(0,0,0,2,51,0)" opacity="1" style="display: block;"><g opacity="1" transform="matrix(1,0,0,1,20.5,15)"><path fill="rgb(191,74,255)" fill-opacity="1" d=" M3,0 C3,1.656999945640564 1.656999945640564,3 0,3 C-1.656999945640564,3 -3,1.656999945640564 -3,0 C-3,-1.656999945640564 -1.656999945640564,-3 0,-3 C1.656999945640564,-3 3,-1.656999945640564 3,0z"></path></g><g opacity="1" transform="matrix(1,0,0,1,20.5,19)"><path fill="rgb(191,74,255)" fill-opacity="1" d=" M0.5,4 C0.5,4 -0.5,4 -0.5,4 C-1.0520000457763672,4 -1.5,3.552000045776367 -1.5,3 C-1.5,3 -1.5,-0.18700000643730164 -1.5,-0.18700000643730164 C-1.5,-0.18700000643730164 -1.5,-3 -1.5,-3 C-1.5,-3.552000045776367 -1.0520000457763672,-4 -0.5,-4 C-0.5,-4 0.5,-4 0.5,-4 C1.0520000457763672,-4 1.5,-3.552000045776367 1.5,-3 C1.5,-3 1.5,-0.18700000643730164 1.5,-0.18700000643730164 C1.5,-0.18700000643730164 1.5,3 1.5,3 C1.5,3.552000045776367 1.0520000457763672,4 0.5,4z"></path></g></g></g></mask></defs><g clip-path="url(#__lottie_element_2162)"><g clip-path="url(#__lottie_element_2235)" transform="matrix(1,0,0,1,4,4)" opacity="0.5" style="display: block;"><g mask="url(#__lottie_element_2259)" style="display: block;"><g transform="matrix(0,0,0,2,51,0)" opacity="1"><g opacity="1" transform="matrix(1,0,0,1,20.5,19.5)"><path fill="rgb(0,0,0)" fill-opacity="1" d=" M0,-12.5 C-2.760999917984009,-12.5 -5,-10.26099967956543 -5,-7.5 C-5,-7.5 -5,12.5 -5,12.5 C-5,12.5 5,12.5 5,12.5 C5,12.5 5,-7.5 5,-7.5 C5,-10.26099967956543 2.760999917984009,-12.5 0,-12.5z"></path></g></g></g><g transform="matrix(2,0,0,2,0,0)" opacity="1" style="display: block;"><g opacity="1" transform="matrix(1,0,0,1,29.25,24.83300018310547)"><path fill="rgb(0,0,0)" fill-opacity="1" d=" M-2.750999927520752,2.1670000553131104 C-2.750999927520752,2.1670000553131104 2.750999927520752,2.1670000553131104 2.750999927520752,2.1670000553131104 C2.750999927520752,2.1670000553131104 2.750999927520752,-2.1670000553131104 2.750999927520752,-2.1670000553131104 C2.750999927520752,-2.1670000553131104 -2.750999927520752,-2.1670000553131104 -2.750999927520752,-2.1670000553131104 C-2.750999927520752,-2.1670000553131104 -2.750999927520752,2.1670000553131104 -2.750999927520752,2.1670000553131104z"></path></g><g opacity="1" transform="matrix(1,0,0,1,29.25,19.5)"><path fill="rgb(0,0,0)" fill-opacity="1" d=" M-2.750999927520752,2.1670000553131104 C-2.750999927520752,2.1670000553131104 2.750999927520752,2.1670000553131104 2.750999927520752,2.1670000553131104 C2.750999927520752,2.1670000553131104 2.750999927520752,-2.1670000553131104 2.750999927520752,-2.1670000553131104 C2.750999927520752,-2.1670000553131104 -2.750999927520752,-2.1670000553131104 -2.750999927520752,-2.1670000553131104 C-2.750999927520752,-2.1670000553131104 -2.750999927520752,2.1670000553131104 -2.750999927520752,2.1670000553131104z"></path></g><g opacity="1" transform="matrix(1,0,0,1,29.25,14.166999816894531)"><path fill="rgb(0,0,0)" fill-opacity="1" d=" M-2.75,-2.1670000553131104 C-2.75,-2.1670000553131104 2.75,-2.1670000553131104 2.75,-2.1670000553131104 C2.75,-2.1670000553131104 2.75,2.1670000553131104 2.75,2.1670000553131104 C2.75,2.1670000553131104 -2.75,2.1670000553131104 -2.75,2.1670000553131104 C-2.75,2.1670000553131104 -2.75,-2.1670000553131104 -2.75,-2.1670000553131104z"></path></g><g opacity="1" transform="matrix(1,0,0,1,29.25,30)"><path fill="rgb(0,0,0)" fill-opacity="1" d=" M-2.75,-2 C-2.75,-2 2.75,-2 2.75,-2 C2.75,-2 2.75,2 2.75,2 C2.75,2 -2.75,2 -2.75,2 C-2.75,2 -2.75,-2 -2.75,-2z"></path></g><g opacity="1" transform="matrix(1,0,0,1,20.5,3.062000036239624)"><path fill="rgb(0,0,0)" fill-opacity="1" d=" M0,-3.062000036239624 C-1.065999984741211,-3.062000036239624 -2.0929999351501465,-2.9070000648498535 -3.072000026702881,-2.634999990463257 C-3.072000026702881,-2.634999990463257 -1.2209999561309814,3.062000036239624 -1.2209999561309814,3.062000036239624 C-0.8270000219345093,2.9800000190734863 -0.4180000126361847,2.937999963760376 0,2.937999963760376 C0.4180000126361847,2.937999963760376 0.8270000219345093,2.9800000190734863 1.2209999561309814,3.062000036239624 C1.2209999561309814,3.062000036239624 3.072000026702881,-2.634999990463257 3.072000026702881,-2.634999990463257 C2.0929999351501465,-2.9070000648498535 1.065999984741211,-3.062000036239624 0,-3.062000036239624z"></path></g><g opacity="1" transform="matrix(1,0,0,1,28.690000534057617,8.07699966430664)"><path fill="rgb(0,0,0)" fill-opacity="1" d=" M1.3960000276565552,-2.9240000247955322 C1.3960000276565552,-2.9240000247955322 -3.2839999198913574,0.47699999809265137 -3.2839999198913574,0.47699999809265137 C-2.7799999713897705,1.1929999589920044 -2.431999921798706,2.0239999294281006 -2.2799999713897705,2.9240000247955322 C-2.2799999713897705,2.9240000247955322 3.2839999198913574,2.9240000247955322 3.2839999198913574,2.9240000247955322 C3.191999912261963,0.7680000066757202 2.5160000324249268,-1.2350000143051147 1.3960000276565552,-2.9240000247955322z"></path></g><g opacity="1" transform="matrix(1,0,0,1,26.086999893188477,4.260000228881836)"><path fill="rgb(0,0,0)" fill-opacity="1" d=" M-1.5640000104904175,-3.5230000019073486 C-1.5640000104904175,-3.5230000019073486 -3.4079999923706055,2.1540000438690186 -3.4079999923706055,2.1540000438690186 C-2.618000030517578,2.4630000591278076 -1.906999945640564,2.930000066757202 -1.3209999799728394,3.5230000019073486 C-1.3209999799728394,3.5230000019073486 3.4079999923706055,0.08699999749660492 3.4079999923706055,0.08699999749660492 C2.121000051498413,-1.5299999713897705 0.40700000524520874,-2.7860000133514404 -1.5640000104904175,-3.5230000019073486z"></path></g></g><g mask="url(#__lottie_element_2249)" style="display: block;"><g transform="matrix(2,0,0,2,0,0)" opacity="1"><g opacity="1" transform="matrix(1,0,0,1,11.75,24.867000579833984)"><path fill="rgb(0,0,0)" fill-opacity="1" d=" M-2.75,-2.1670000553131104 C-2.75,-2.1670000553131104 2.75,-2.1670000553131104 2.75,-2.1670000553131104 C2.75,-2.1670000553131104 2.75,2.1670000553131104 2.75,2.1670000553131104 C2.75,2.1670000553131104 -2.75,2.1670000553131104 -2.75,2.1670000553131104 C-2.75,2.1670000553131104 -2.75,-2.1670000553131104 -2.75,-2.1670000553131104z"></path></g><g opacity="1" transform="matrix(1,0,0,1,11.75,19.466999053955078)"><path fill="rgb(0,0,0)" fill-opacity="1" d=" M-2.75,-2.1670000553131104 C-2.75,-2.1670000553131104 2.75,-2.1670000553131104 2.75,-2.1670000553131104 C2.75,-2.1670000553131104 2.75,2.1670000553131104 2.75,2.1670000553131104 C2.75,2.1670000553131104 -2.75,2.1670000553131104 -2.75,2.1670000553131104 C-2.75,2.1670000553131104 -2.75,-2.1670000553131104 -2.75,-2.1670000553131104z"></path></g><g opacity="1" transform="matrix(1,0,0,1,11.75,14.166999816894531)"><path fill="rgb(0,0,0)" fill-opacity="1" d=" M-2.75,-2.1670000553131104 C-2.75,-2.1670000553131104 2.75,-2.1670000553131104 2.75,-2.1670000553131104 C2.75,-2.1670000553131104 2.75,2.1670000553131104 2.75,2.1670000553131104 C2.75,2.1670000553131104 -2.75,2.1670000553131104 -2.75,2.1670000553131104 C-2.75,2.1670000553131104 -2.75,-2.1670000553131104 -2.75,-2.1670000553131104z"></path></g><g opacity="1" transform="matrix(1,0,0,1,12.3100004196167,8.07699966430664)"><path fill="rgb(0,0,0)" fill-opacity="1" d=" M3.2839999198913574,0.47699999809265137 C3.2839999198913574,0.47699999809265137 -1.3960000276565552,-2.9240000247955322 -1.3960000276565552,-2.9240000247955322 C-2.5160000324249268,-1.2350000143051147 -3.190999984741211,0.7680000066757202 -3.2839999198913574,2.9240000247955322 C-3.2839999198913574,2.9240000247955322 2.2799999713897705,2.9240000247955322 2.2799999713897705,2.9240000247955322 C2.431999921798706,2.0239999294281006 2.7799999713897705,1.1929999589920044 3.2839999198913574,0.47699999809265137z"></path></g><g opacity="1" transform="matrix(1,0,0,1,14.913000106811523,4.261000156402588)"><path fill="rgb(0,0,0)" fill-opacity="1" d=" M3.4089999198913574,2.1540000438690186 C3.4089999198913574,2.1540000438690186 1.5640000104904175,-3.5230000019073486 1.5640000104904175,-3.5230000019073486 C-0.40700000524520874,-2.7860000133514404 -2.119999885559082,-1.5299999713897705 -3.4079999923706055,0.08699999749660492 C-3.4079999923706055,0.08699999749660492 1.3220000267028809,3.5230000019073486 1.3220000267028809,3.5230000019073486 C1.9079999923706055,2.930000066757202 2.618000030517578,2.4630000591278076 3.4089999198913574,2.1540000438690186z"></path></g><g opacity="1" transform="matrix(1,0,0,1,11.75,30)"><path fill="rgb(0,0,0)" fill-opacity="1" d=" M-2.75,-2 C-2.75,-2 2.75,-2 2.75,-2 C2.75,-2 2.75,2 2.75,2 C2.75,2 -2.75,2 -2.75,2 C-2.75,2 -2.75,-2 -2.75,-2z"></path></g></g></g><g mask="url(#__lottie_element_2238)" style="display: block;"><g transform="matrix(2,0,0,2,0,0)" opacity="1"><g opacity="1" transform="matrix(1,0,0,1,14.309000015258789,19.5)"><path fill="rgb(0,0,0)" fill-opacity="1" d=" M2.2209999561309814,8 C2.2209999561309814,8 9.220999717712402,0 9.220999717712402,0 C9.220999717712402,0 2.2209999561309814,-8 2.2209999561309814,-8 C2.2209999561309814,-8 2.2209999561309814,-4 2.2209999561309814,-4 C2.2209999561309814,-4 -9.220999717712402,-4 -9.220999717712402,-4 C-9.220999717712402,-4 -9.220999717712402,4 -9.220999717712402,4 C-9.220999717712402,4 2.2209999561309814,4 2.2209999561309814,4 C2.2209999561309814,4 2.2209999561309814,8 2.2209999561309814,8z"></path></g></g></g></g><g mask="url(#__lottie_element_2198)" style="display: block;"><g transform="matrix(1,0,0,1,34,34)" opacity="1"><path fill="url(#__lottie_element_2233)" fill-opacity="1" d=" M34,-34 C34,-34 34,34 34,34 C34,34 -34,34 -34,34 C-34,34 -34,-34 -34,-34 C-34,-34 34,-34 34,-34z"></path></g></g><g mask="url(#__lottie_element_2163)" style="display: none;"><g transform="matrix(0.5,0,0,0.5,33,33)" opacity="1"><g opacity="1" transform="matrix(1,0,0,1,0,0)"><path fill="rgb(255,255,255)" fill-opacity="1" d=" M-70.79761505126953,-102.95246124267578 C-66.87915802001953,-102.18628692626953 -87.29736328125,-95.65242767333984 -89.38487243652344,-94.13583374023438 C-91.89225006103516,-92.31451416015625 -96.22212982177734,-77.03527069091797 -98.43310546875,-81.23831176757812 C-100.64407348632812,-85.44134521484375 -130.73654174804688,-16.336341857910156 -115.66439056396484,-4.657535552978516 C-102.0196304321289,5.915453910827637 -50.94460678100586,31.659748077392578 -7.1124491691589355,-7.312955379486084 C36.71970748901367,-46.28565979003906 10.635348320007324,-91.99890899658203 2.8142483234405518,-107.76591491699219 C-4.537990570068359,-122.58788299560547 -74.71607208251953,-103.71864318847656 -70.79761505126953,-102.95246124267578z"></path></g></g></g></g></svg>