<?xml version="1.0" standalone="no"?>
<!DOCTYPE svg PUBLIC "-//W3C//DTD SVG 20010904//EN"
 "http://www.w3.org/TR/2001/REC-SVG-20010904/DTD/svg10.dtd">
<svg version="1.0" xmlns="http://www.w3.org/2000/svg"
 width="640.000000pt" height="360.000000pt" viewBox="0 0 640.000000 360.000000"
 preserveAspectRatio="xMidYMid meet">
<metadata>
Created by potrace 1.16, written by Peter Selinger 2001-2019
</metadata>
<g transform="translate(0.000000,360.000000) scale(0.100000,-0.100000)"
fill="#000000" stroke="none">
<path d="M0 1800 l0 -1800 480 0 480 0 0 119 0 119 31 11 c17 6 35 8 40 5 5
-3 9 -1 9 5 0 5 -8 12 -17 14 -17 4 -17 5 0 6 10 1 17 9 17 21 0 19 7 20 120
20 l120 0 0 -39 0 -38 72 4 c101 6 126 12 107 24 -12 9 -12 10 1 6 8 -2 14
-11 12 -20 -2 -13 4 -16 28 -13 31 4 50 -8 28 -17 -7 -3 3 -5 22 -5 19 0 27 2
18 5 -10 2 -18 9 -18 14 0 14 137 11 143 -3 3 -8 6 -6 6 5 1 9 -5 17 -11 17
-9 0 -8 4 2 10 10 6 11 10 3 10 -7 0 -13 9 -13 20 0 17 7 20 40 20 l40 0 0
-120 c0 -100 3 -120 15 -120 8 0 15 8 16 18 0 15 1 15 8 -2 7 -18 8 -18 14 -2
4 10 7 45 7 78 0 53 -2 59 -17 54 -10 -4 -14 -4 -10 0 4 4 3 12 -2 18 -7 8 5
11 37 10 79 -2 92 -10 92 -55 0 -32 4 -39 19 -39 13 0 20 -9 24 -33 6 -39 2
-47 -24 -47 -12 0 -19 -7 -19 -20 0 -10 -8 -24 -17 -30 -16 -10 -16 -11 -1 -6
12 3 15 1 11 -10 -4 -10 2 -14 22 -14 37 0 56 23 61 73 3 29 2 36 -4 23 -8
-19 -9 -18 -15 5 -8 28 -8 90 0 72 11 -29 23 -10 23 37 0 47 11 63 25 40 3 -5
2 -10 -4 -10 -6 0 -11 -46 -13 -110 -2 -61 0 -110 5 -110 4 0 7 40 7 90 0 50
3 90 8 90 4 0 41 -34 82 -75 41 -41 78 -75 82 -75 5 0 8 10 8 23 0 14 -3 18
-8 10 -7 -11 -85 60 -145 133 -16 19 -15 20 6 20 12 1 45 4 72 9 46 7 64 8
148 2 15 -1 27 -6 27 -11 0 -5 7 -3 15 4 19 16 127 20 114 4 -5 -6 -6 -14 -2
-18 4 -4 0 -4 -10 0 -15 5 -17 -2 -17 -64 0 -71 15 -107 23 -55 l4 28 2 -27
c1 -23 6 -28 26 -28 24 0 25 3 27 60 1 33 2 68 2 78 1 9 -5 16 -12 14 -8 -1
-11 2 -7 8 3 6 10 8 15 5 5 -3 11 -1 15 5 3 5 14 10 23 10 15 -1 14 -3 -3 -17
l-20 -16 20 9 c11 4 47 9 79 10 82 4 114 12 95 25 -12 9 -12 10 1 6 8 -2 15
-10 15 -18 0 -14 6 -15 128 -7 32 2 61 0 63 -4 3 -5 10 -5 16 -2 7 4 8 2 4 -4
-4 -7 -1 -12 6 -12 11 0 10 -2 0 -9 -11 -7 -11 -9 1 -14 12 -4 14 0 11 19 -5
25 0 27 51 25 79 -5 91 -7 103 -21 10 -12 12 -12 10 -1 -3 15 49 34 65 24 5
-3 61 -6 124 -5 166 0 153 11 153 -129 l0 -119 40 0 40 0 0 40 0 40 40 0 40 0
0 43 c0 32 3 39 11 27 8 -11 9 -4 6 28 -3 23 -1 42 3 42 5 0 11 -24 13 -53 l3
-52 2 58 c2 45 -1 57 -13 57 -8 0 -15 5 -15 10 0 9 130 17 155 9 11 -3 86 -2
128 1 33 3 36 17 5 23 l-23 4 23 2 c12 0 22 8 22 16 0 12 16 15 80 15 l80 0 0
-36 0 -36 63 6 c111 11 156 12 150 2 -3 -5 0 -7 8 -4 8 2 15 19 17 36 3 30 6
32 43 32 40 0 40 0 35 -32 l-5 -33 72 3 c89 4 108 9 87 23 -13 9 -13 10 0 6
11 -3 15 -18 14 -60 l-1 -57 34 0 c30 0 33 3 33 30 0 17 -4 30 -10 30 -5 0
-10 5 -10 11 0 5 4 8 9 5 5 -4 11 -1 13 5 4 12 60 14 126 3 l42 -7 0 42 0 41
120 0 120 0 0 -40 0 -40 40 0 40 0 0 40 0 40 80 0 80 0 0 -39 c0 -38 1 -39 28
-35 15 3 36 6 47 8 34 6 65 -11 59 -31 -3 -10 2 -7 10 7 14 23 15 16 16 -102
l0 -128 480 0 480 0 0 1800 0 1800 -3200 0 -3200 0 0 -1800z m2313 1330 c25
-63 85 -209 132 -325 48 -115 87 -214 88 -220 1 -5 5 -12 8 -15 3 -3 16 -32
29 -65 62 -159 97 -205 155 -205 20 -1 36 -9 48 -25 l18 -25 -196 0 -196 0 26
28 c14 15 23 32 21 37 -68 169 -107 278 -102 283 4 3 9 -4 13 -16 3 -12 9 -22
14 -22 5 0 3 11 -3 25 -7 16 -17 24 -26 20 -7 -3 -39 -6 -70 -6 -51 -1 -53 -2
-22 -9 l35 -7 -35 -3 -35 -3 35 -7 c24 -5 4 -8 -67 -9 l-103 -1 0 -80 0 -80
-39 0 c-32 0 -40 -4 -44 -22 -4 -12 -2 -25 4 -28 5 -4 6 -15 3 -25 -7 -18 -8
-18 -15 1 -7 17 -8 17 -8 -5 -1 -21 3 -23 33 -19 19 2 32 0 30 -4 -3 -5 4 -20
15 -34 13 -17 21 -41 21 -65 l0 -39 -240 0 -240 0 0 40 0 40 58 1 c41 0 51 3
37 9 -11 5 -15 9 -8 9 6 1 14 10 18 20 4 13 17 21 37 23 43 4 77 49 142 192
30 65 58 121 62 124 32 31 -110 -259 -146 -298 -17 -18 -38 -30 -53 -30 -14 0
-28 -4 -31 -8 -9 -15 79 4 128 27 26 13 50 31 53 40 12 35 193 478 236 576 39
89 67 144 67 132 0 -5 7 -2 15 7 19 18 21 61 3 50 -7 -4 -5 2 5 13 10 11 17
36 17 58 0 23 4 35 9 30 11 -13 64 -155 64 -172 0 -7 5 -13 10 -13 5 0 7 -9 4
-20 -3 -11 -2 -18 3 -15 10 6 22 -24 14 -36 -3 -5 -1 -9 4 -9 13 0 36 -56 28
-68 -7 -12 21 -82 33 -82 5 0 12 -7 15 -16 6 -15 4 -15 -10 -3 -16 13 -16 12
-6 -7 6 -12 8 -25 4 -29 -4 -5 -1 -5 6 -1 10 6 13 2 10 -15 -2 -18 2 -24 15
-23 10 1 17 -5 17 -17 0 -10 5 -19 11 -19 6 0 9 -7 5 -15 -3 -8 -1 -15 4 -15
6 0 10 -9 10 -19 0 -11 5 -23 11 -27 6 -3 9 -17 6 -31 -3 -16 1 -28 13 -35 10
-7 16 -21 14 -37 -2 -18 -1 -20 3 -6 4 16 9 11 22 -25 10 -25 13 -48 9 -51 -5
-3 -6 -13 -2 -23 5 -14 9 -15 16 -4 5 8 7 -1 4 -25 -3 -30 0 -37 11 -33 8 3
11 1 8 -4 -4 -6 9 -17 27 -24 40 -16 130 -27 122 -15 -3 5 -19 9 -35 9 -17 0
-39 4 -49 10 -25 13 -70 89 -109 185 -18 44 -73 179 -123 300 -50 121 -106
258 -125 305 -19 47 -42 100 -51 119 l-16 34 -18 -23 c-10 -13 -16 -31 -12
-44 3 -12 -2 -30 -11 -41 -16 -19 -16 -19 -5 3 6 13 10 28 8 33 -3 9 -71 -138
-223 -485 -14 -32 -28 -56 -31 -53 -3 3 9 35 26 73 17 37 28 74 25 82 -2 7 -1
11 4 8 5 -3 50 89 102 205 88 199 131 272 148 253 5 -5 29 -61 54 -124z m1257
85 c58 -10 112 -21 120 -25 8 -4 16 -20 17 -36 1 -18 0 -22 -4 -9 -9 35 -22
42 -86 49 -34 3 -103 12 -152 20 -50 8 -122 12 -160 10 -93 -5 -226 -34 -218
-47 3 -6 1 -7 -5 -3 -15 9 -67 -14 -120 -53 -36 -27 -41 -35 -31 -47 10 -12
14 -12 20 -2 7 11 9 11 9 0 0 -8 18 2 42 22 23 20 46 36 50 36 5 0 7 4 3 9 -3
5 0 13 6 17 8 4 9 3 5 -4 -4 -7 -5 -12 -2 -12 11 0 75 37 72 41 -6 6 97 13
194 14 95 0 160 -8 205 -25 17 -6 32 -12 35 -12 11 -1 36 -10 52 -18 15 -9 45
10 33 21 -2 3 5 6 17 6 17 2 19 -2 14 -28 -4 -22 -2 -29 9 -29 17 0 18 -14 8
-113 -5 -61 -8 -68 -26 -65 -22 3 -33 19 -42 61 -3 15 -22 46 -43 69 -22 25
-29 37 -17 31 32 -18 55 -47 75 -99 11 -27 19 -41 20 -31 1 51 -84 153 -117
140 -11 -4 -14 -3 -9 5 5 8 2 10 -9 6 -8 -4 -29 -1 -46 6 -18 8 -34 9 -37 4
-4 -5 -61 -9 -127 -9 l-120 0 -3 -38 -3 -39 -76 4 c-58 2 -78 -1 -81 -11 -3
-9 0 -11 9 -6 11 6 12 5 2 -6 -9 -9 -13 -48 -13 -117 l0 -103 -27 3 c-20 2
-30 10 -34 28 -4 15 -7 -5 -8 -46 l-1 -72 35 5 36 5 -2 -92 c-2 -95 -8 -102
-33 -35 -8 22 -15 33 -15 25 -1 -22 44 -115 76 -157 70 -92 226 -152 365 -140
103 9 101 5 96 185 -3 92 -9 157 -16 164 -8 8 -9 4 -6 -13 5 -19 4 -21 -5 -9
-7 10 -11 11 -11 3 0 -9 -20 -13 -65 -13 l-65 0 0 40 c0 41 13 48 50 25 9 -5
8 0 -4 13 l-19 22 179 2 c98 0 198 2 221 3 l41 1 -19 -28 c-12 -17 -30 -28
-43 -28 -43 0 -48 -19 -50 -198 -1 -186 -4 -196 -60 -205 -68 -11 -216 -61
-203 -69 9 -6 9 -8 0 -8 -7 0 -13 -11 -13 -25 l0 -25 -120 0 -120 0 0 35 c0
21 5 35 13 36 6 1 -6 5 -28 9 -27 5 -42 4 -47 -4 -5 -7 -8 -5 -8 7 0 9 -5 17
-11 17 -5 0 -8 -4 -5 -9 3 -5 -30 -9 -74 -10 l-80 -1 0 34 c0 19 -5 38 -10 41
-6 4 -8 10 -5 14 2 5 -5 17 -17 27 -12 11 -19 15 -16 9 3 -5 -4 -18 -14 -28
-19 -18 -19 -17 -16 20 2 31 6 38 23 35 16 -2 17 -1 5 7 -8 5 -17 8 -21 5 -4
-2 -19 12 -34 31 -149 196 -104 540 89 684 155 116 333 143 626 96z m990 -10
c0 -9 12 -11 40 -8 l40 5 0 -81 c0 -58 -4 -81 -12 -82 -9 0 -9 -2 1 -6 11 -5
11 -7 0 -14 -12 -8 -12 -10 0 -18 12 -8 12 -12 -2 -25 -19 -19 -57 -21 -58 -3
0 10 -2 10 -6 0 -2 -8 -22 -13 -44 -13 -35 0 -39 2 -39 26 0 16 4 23 12 18 7
-5 8 -3 3 6 -5 8 -9 23 -10 34 -1 12 -5 32 -10 46 -7 22 -6 23 8 12 9 -8 17
-25 19 -39 2 -15 8 -28 15 -30 7 -3 13 22 18 74 4 43 7 85 8 93 1 9 -6 15 -15
14 -10 0 -149 -1 -310 -2 -160 -1 -288 -5 -284 -9 3 -4 28 -6 54 -4 40 2 56
-3 98 -32 l50 -34 29 24 c29 24 34 24 181 21 133 -3 154 -1 171 14 19 17 19
17 12 -35 -4 -28 -8 -61 -9 -72 -1 -19 -2 -19 -10 2 -5 12 -19 27 -31 33 -14
8 -19 8 -15 1 5 -7 -8 -9 -41 -5 -26 3 -43 2 -38 -3 6 -4 12 -23 13 -40 3 -32
3 -33 -37 -33 -39 0 -41 2 -41 30 0 17 -5 30 -12 30 -10 0 -10 2 0 9 11 7 10
10 -3 15 -9 3 -28 6 -41 6 l-24 0 0 -155 0 -155 72 0 c53 0 76 4 90 17 15 13
23 15 36 6 9 -6 16 -18 14 -27 -2 -9 3 -16 11 -16 11 0 14 -25 16 -120 l2
-120 -40 0 c-31 0 -41 4 -41 16 0 9 5 12 12 8 7 -4 8 -3 4 4 -4 7 -1 12 6 12
7 1 1 8 -14 16 -19 10 -28 23 -29 42 -2 23 -2 24 -6 5 -3 -16 -11 -23 -29 -23
-21 0 -24 4 -24 40 l0 40 -40 0 -40 0 0 -74 c0 -41 5 -78 10 -81 6 -3 11 4 11
17 l2 23 4 -22 c3 -16 11 -23 29 -23 23 0 24 -2 24 -80 l0 -80 40 0 c29 0 40
-4 40 -15 0 -8 8 -15 18 -16 12 0 10 -3 -8 -10 -14 -6 -37 -9 -52 -6 -16 2
-28 -1 -28 -6 0 -6 30 -7 77 -4 84 7 106 20 123 71 13 39 61 78 80 66 8 -5 18
-6 22 -4 4 3 8 -67 8 -155 l0 -161 -240 0 -240 0 0 30 c0 24 -4 30 -22 31 -22
1 -22 1 2 8 33 10 -104 25 -178 19 -28 -3 -52 -2 -52 1 0 15 47 51 66 51 43 0
51 21 58 157 8 164 9 663 1 689 -6 18 -6 18 10 -1 16 -18 17 -52 11 -395 -3
-206 -10 -390 -16 -409 -11 -39 -25 -51 -57 -51 -12 0 -24 -4 -27 -8 -6 -11
74 1 94 13 8 5 29 19 47 32 30 23 31 25 15 42 -9 10 -20 16 -24 14 -4 -2 -9 1
-13 7 -3 5 3 10 15 10 12 0 18 4 15 11 -13 20 -16 67 -5 74 7 4 7 13 -1 27 -8
16 -8 19 1 13 9 -6 9 -2 1 14 -7 13 -8 21 -2 21 6 0 8 7 4 16 -5 14 -8 12 -19
-7 -12 -23 -13 -22 -11 18 1 25 5 39 12 36 5 -4 7 -2 2 2 -4 5 -1 15 6 24 18
21 29 51 18 51 -15 0 -22 32 -10 46 8 10 8 14 0 14 -6 0 -11 5 -11 11 0 6 7 8
16 5 8 -3 12 -2 9 4 -3 6 -2 10 2 10 5 0 9 17 8 39 0 40 -10 46 -39 22 -11 -9
-16 -10 -16 -2 0 6 11 17 25 23 14 6 24 17 21 24 -3 8 -1 16 4 19 6 4 10 24
10 45 0 31 -4 40 -22 46 -18 5 -19 8 -5 15 19 11 11 40 -9 32 -8 -3 -11 -10
-7 -17 4 -7 1 -7 -7 1 -11 10 -11 18 -2 38 6 14 16 25 22 25 5 0 10 5 10 10 0
6 -7 10 -15 8 -8 -2 -28 13 -45 32 -17 19 -29 30 -26 23 10 -19 -77 -3 -101
20 -13 11 -23 23 -23 26 0 3 125 5 278 3 153 -1 295 1 317 6 41 9 65 1 65 -23z
m-93 -157 c-3 -8 -6 -5 -6 6 -1 11 2 17 5 13 3 -3 4 -12 1 -19z m-352 -118 c3
-5 1 -10 -4 -10 -6 0 -11 5 -11 10 0 6 2 10 4 10 3 0 8 -4 11 -10z m175 -238
c-8 -3 -18 -10 -22 -16 -5 -6 -8 -2 -8 11 0 17 4 20 22 15 16 -4 18 -7 8 -10z
m-208 -44 c-7 -7 -12 -8 -12 -2 0 6 3 14 7 17 3 4 9 5 12 2 2 -3 -1 -11 -7
-17z m325 -44 c-3 -3 -12 -4 -19 -1 -8 3 -5 6 6 6 11 1 17 -2 13 -5z m-2110
-36 c-3 -8 -6 -5 -6 6 -1 11 2 17 5 13 3 -3 4 -12 1 -19z m838 -138 c3 -6 -1
-7 -9 -4 -18 7 -21 14 -7 14 6 0 13 -4 16 -10z m302 -62 c-3 -30 -7 -33 -40
-36 -36 -3 -37 -3 -37 32 0 35 1 36 41 36 39 0 40 -1 36 -32z m-502 -39 c-8
-12 -35 -12 -35 0 0 11 22 20 33 14 4 -2 5 -9 2 -14z m248 -106 c-7 -2 -19 -2
-25 0 -7 3 -2 5 12 5 14 0 19 -2 13 -5z m259 -160 c4 -47 5 -139 2 -145 -2 -3
-15 -1 -29 5 -27 13 -29 38 -5 49 9 4 2 7 -17 7 -31 1 -33 -1 -33 -32 0 -18
-6 -39 -12 -46 -11 -10 -6 -11 22 -5 71 13 69 14 59 -63 -4 -26 -19 -20 -19 7
0 26 -19 35 -27 14 -6 -16 -7 -16 -14 2 -5 12 -8 -2 -8 -38 -1 -44 2 -58 14
-58 7 0 18 -8 24 -17 5 -10 12 -15 15 -12 3 3 -4 16 -16 29 -12 12 -15 20 -7
16 8 -3 22 -9 32 -12 12 -5 17 -17 17 -45 l0 -39 -80 0 c-69 0 -80 2 -81 18
-1 9 -1 72 1 140 2 110 0 125 -17 138 -17 14 -17 14 1 7 13 -4 17 -3 12 5 -4
7 -24 12 -46 12 -33 0 -37 3 -33 20 6 22 -21 29 -31 8 -5 -10 -7 -10 -12 0 -3
6 -10 9 -16 6 -6 -4 -1 -13 13 -21 l24 -14 -25 5 -24 5 27 -22 c15 -12 39 -35
53 -52 24 -29 25 -29 18 -5 -3 14 -13 33 -22 43 -8 9 -11 17 -6 17 5 0 18 -15
29 -32 10 -18 24 -37 32 -41 9 -5 13 -30 13 -75 0 -74 -8 -96 -29 -82 -25 15
-41 -1 -41 -41 l0 -39 -121 0 -120 0 2 50 c2 29 -2 55 -9 62 -7 7 -12 17 -12
23 0 5 5 3 10 -5 7 -11 9 0 4 35 -3 28 -1 62 5 78 8 19 7 27 0 27 -8 0 -7 5 1
15 7 8 16 13 20 10 5 -3 11 -1 15 4 3 6 -3 8 -15 6 -18 -3 -20 1 -20 46 l0 49
240 0 c221 0 240 -1 242 -17z m675 -50 c-3 -10 -5 -4 -5 12 0 17 2 24 5 18 2
-7 2 -21 0 -30z m0 -45 c-3 -8 -6 -5 -6 6 -1 11 2 17 5 13 3 -3 4 -12 1 -19z
m-740 -45 c-3 -10 -5 -2 -5 17 0 19 2 27 5 18 2 -10 2 -26 0 -35z m-1138 -19
c10 -9 -55 -3 -69 6 -10 6 -2 7 25 3 22 -3 42 -7 44 -9z m3361 -23 l0 -39
-117 -2 c-143 -2 14 -2 -1015 -1 -493 1 -878 5 -878 10 0 5 8 12 17 15 9 4
451 6 982 6 531 0 971 0 976 1 6 1 15 0 20 -1 6 -1 -1 10 -14 24 l-24 26 26 0
c25 0 27 -3 27 -39z m-4755 19 c-4 -6 16 -11 52 -12 l58 -2 -50 -3 c-27 -2
-53 -7 -57 -11 -4 -4 133 -6 305 -5 172 1 613 2 981 2 368 1 667 3 664 6 -3 3
-369 5 -813 5 -445 0 -806 2 -804 5 5 4 543 6 1312 5 l317 0 0 -25 0 -25 -267
-1 c-148 -1 -276 -1 -285 0 -10 1 -18 -3 -18 -8 0 -6 6 -11 13 -12 10 0 10 -2
0 -6 -7 -2 -13 -16 -13 -29 l0 -24 -280 0 -280 0 0 25 c0 17 -6 25 -17 26 -16
0 -16 1 1 8 18 7 18 8 2 14 -10 4 -29 7 -42 7 -21 0 -24 -4 -24 -40 l0 -40
-401 0 -401 0 5 38 c3 20 8 46 13 56 6 15 4 17 -7 11 -8 -5 -11 -5 -6 1 5 5
14 9 20 9 7 0 13 6 13 13 2 19 4 22 10 22 3 0 2 -4 -1 -10z m3368 3 c-18 -2
-48 -2 -65 0 -18 2 -4 4 32 4 36 0 50 -2 33 -4z m650 0 c-101 -2 -265 -2 -365
0 -101 1 -19 2 182 2 201 0 283 -1 183 -2z m500 0 c-46 -2 -120 -2 -165 0 -46
1 -9 3 82 3 91 0 128 -2 83 -3z m-1906 -35 c-3 -7 -5 -2 -5 12 0 14 2 19 5 13
2 -7 2 -19 0 -25z m2109 14 c-2 -4 -28 -5 -58 -2 l-53 4 50 6 c52 6 68 4 61
-8z m-4443 1 c-29 -2 -77 -2 -105 0 -29 2 -6 3 52 3 58 0 81 -1 53 -3z m2552
2 c-23 -8 -85 -10 -85 -3 0 4 21 8 48 7 26 0 43 -2 37 -4z m1338 -2 c-237 -2
-629 -2 -870 0 -241 1 -46 2 432 2 479 0 676 -1 438 -2z m-2076 -45 c-3 -8 -6
-5 -6 6 -1 11 2 17 5 13 3 -3 4 -12 1 -19z m2743 -38 l0 -40 -40 0 -40 0 0 40
0 40 40 0 40 0 0 -40z m-1400 26 c0 -3 -4 -8 -10 -11 -5 -3 -10 -1 -10 4 0 6
5 11 10 11 6 0 10 -2 10 -4z m1083 -13 c-7 -2 -19 -2 -25 0 -7 3 -2 5 12 5 14
0 19 -2 13 -5z m-2083 -257 c0 -25 5 -48 12 -52 6 -4 9 -3 5 2 -3 5 53 7 136
3 78 -3 154 -5 170 -4 15 1 27 -2 27 -5 0 -16 -42 -42 -70 -45 -17 -1 -34 -6
-38 -10 -4 -5 -2 -6 3 -3 7 4 11 -100 12 -301 2 -168 5 -320 8 -337 5 -27 10
-32 44 -38 20 -3 46 -15 56 -26 18 -20 18 -20 -16 -22 -19 0 -45 0 -59 1 -46
5 -134 -10 -119 -20 10 -6 10 -9 2 -9 -7 0 -13 -11 -13 -25 0 -25 -1 -25 -80
-25 -76 0 -80 1 -81 23 0 12 -2 31 -4 41 -2 12 7 29 21 43 14 13 20 23 14 23
-6 0 -8 5 -4 12 4 7 3 8 -5 4 -6 -4 -9 -11 -6 -16 3 -5 1 -11 -5 -15 -6 -4
-10 5 -10 19 0 29 20 34 44 11 21 -21 33 -19 40 8 8 35 4 277 -6 277 -4 0 -8
4 -8 10 0 5 9 9 21 7 14 -1 24 6 30 21 5 13 5 22 -1 22 -6 0 -10 -9 -10 -21 0
-35 -25 -15 -27 22 l-1 34 8 -35 7 -35 2 42 c1 34 -2 41 -14 37 -9 -4 -15 0
-15 10 0 12 -10 16 -35 16 l-35 0 0 80 0 80 38 2 c20 0 43 1 50 1 7 -1 12 11
11 26 0 24 -1 24 -10 6 -7 -16 -8 -13 -5 12 5 31 4 32 -23 27 -23 -5 -29 -2
-34 16 -3 12 -10 19 -15 16 -5 -3 -15 0 -21 8 -8 9 -8 15 -2 18 7 2 7 8 1 18
-7 12 -12 12 -22 2 -9 -9 -9 -12 1 -12 7 0 10 -3 7 -8 -8 -13 22 -45 35 -36 8
4 10 3 5 -4 -4 -7 -27 -12 -52 -12 l-44 0 0 -160 0 -160 -61 0 c-34 0 -58 4
-55 9 9 13 -22 7 -36 -7 -9 -9 -9 -12 2 -12 11 0 11 -3 2 -12 -7 -7 -12 -22
-12 -35 0 -21 -4 -23 -55 -22 -34 1 -52 5 -48 12 4 6 -14 7 -52 2 -73 -9 -72
11 1 33 61 17 112 55 129 96 18 43 22 65 11 64 -13 0 -26 24 -26 49 0 12 -3
24 -7 26 -5 3 -8 -26 -8 -63 0 -61 -3 -72 -31 -107 -20 -24 -47 -43 -75 -53
-24 -8 -46 -18 -47 -23 -2 -4 -8 -5 -13 -1 -10 6 -13 -225 -3 -275 5 -26 11
-31 34 -31 26 0 80 -33 80 -49 0 -4 -88 -7 -195 -7 -107 0 -195 1 -195 3 0 12
39 42 62 48 21 5 29 15 33 39 3 17 6 165 8 329 2 285 1 299 -17 313 -11 8 -29
14 -40 14 -19 0 -56 26 -56 40 0 4 82 8 182 9 100 1 186 5 191 8 6 3 7 1 3 -5
-5 -8 4 -12 26 -12 53 0 129 -43 159 -90 23 -35 27 -38 32 -20 3 11 1 20 -4
20 -4 0 -6 7 -3 15 4 10 20 15 45 15 l39 0 0 80 0 80 40 0 40 0 0 -44z m2378
37 c-10 -2 -28 -2 -40 0 -13 2 -5 4 17 4 22 1 32 -1 23 -4z m-153 -43 c-3 -5
-14 -10 -23 -9 -14 0 -13 2 3 9 27 11 27 11 20 0z m278 -26 l57 -6 0 -159 0
-159 -40 0 c-39 0 -40 1 -40 36 0 24 4 33 12 28 7 -4 8 -3 4 4 -4 7 -1 12 6
12 7 0 4 6 -7 12 -25 15 -47 19 -39 7 3 -5 10 -6 16 -3 7 4 8 2 4 -4 -4 -7
-23 -12 -42 -12 l-35 0 1 58 c2 89 2 92 -26 102 -33 13 -54 -7 -54 -49 0 -29
-2 -31 -40 -31 -40 0 -40 0 -40 -39 0 -34 -3 -39 -20 -36 -35 7 -22 -14 41
-63 66 -51 86 -62 74 -41 -5 8 -4 11 1 6 5 -5 9 -12 9 -16 0 -4 32 -38 71 -77
39 -39 76 -85 83 -103 8 -17 19 -31 25 -30 32 4 34 -3 35 -122 l1 -121 -33 5
c-17 2 -41 1 -52 -3 -19 -7 -19 -8 -2 -15 17 -7 17 -8 0 -28 -10 -11 -12 -17
-5 -13 9 5 12 -7 12 -48 l0 -56 -240 0 -240 0 0 35 c0 21 5 35 13 35 9 0 8 3
-2 9 -10 6 -12 29 -10 87 l4 79 -42 -4 c-43 -3 -43 -3 -43 -43 0 -37 -1 -39
-28 -35 -15 3 -33 -1 -40 -9 -10 -11 -10 -14 0 -15 10 0 10 -2 1 -6 -7 -2 -13
-16 -13 -29 l0 -24 -361 0 -361 0 3 40 c2 21 0 42 -4 46 -4 4 -7 2 -7 -5 0 -7
-5 -9 -10 -6 -6 4 -8 10 -5 15 3 5 1 12 -5 15 -6 4 -9 1 -8 -7 2 -9 -14 -14
-59 -16 l-63 -3 0 41 c0 40 0 40 -39 40 l-40 0 -3 90 c-2 70 0 89 10 85 8 -3
6 5 -5 19 -19 26 -42 36 -83 36 l-25 0 0 -133 0 -132 30 3 c30 4 85 -28 85
-48 0 -6 -81 -9 -185 -9 -102 1 -185 4 -185 8 0 14 34 39 63 46 15 4 28 15 28
24 1 9 3 27 5 41 5 43 5 601 -1 610 -3 5 -20 12 -38 15 -32 7 -67 31 -67 46 0
5 96 7 213 6 207 -2 213 -3 270 -29 44 -21 63 -37 85 -72 26 -43 29 -45 75
-46 l47 0 0 -80 0 -80 -40 0 -40 0 0 -40 c0 -38 -2 -40 -29 -40 -17 0 -33 5
-37 12 -4 6 -3 8 4 4 6 -3 13 -2 16 3 15 23 -28 1 -62 -32 -25 -24 -44 -36
-54 -32 -9 4 -19 2 -22 -3 -3 -5 2 -9 12 -8 9 0 16 -5 14 -12 -1 -7 5 -15 13
-18 12 -5 13 -10 4 -20 -8 -10 -7 -12 10 -9 13 2 18 -1 15 -10 -3 -7 -1 -16 4
-19 6 -3 12 1 15 8 7 17 -31 69 -44 61 -5 -4 -6 1 -3 10 6 14 9 14 27 -2 20
-17 20 -17 14 0 -4 10 -3 16 2 13 4 -3 7 6 5 19 -1 14 2 22 7 19 6 -3 8 -25 5
-48 -5 -41 -3 -44 69 -122 41 -43 73 -72 72 -64 -2 8 -2 12 0 7 3 -4 8 -5 12
-3 4 3 8 -1 8 -9 0 -8 -4 -12 -9 -9 -4 3 -8 1 -8 -5 0 -17 62 -63 70 -51 5 7
11 6 20 -5 11 -13 10 -15 -4 -9 -32 12 -15 -6 18 -20 19 -8 37 -24 41 -35 6
-20 7 -20 31 8 24 29 32 47 16 37 -5 -3 -9 1 -9 8 0 7 6 13 14 13 7 0 13 -6
13 -14 0 -14 26 -18 33 -5 7 11 17 277 18 457 0 166 -6 219 -22 209 -5 -3 -7
-9 -5 -13 3 -4 -8 -5 -24 -3 -19 3 -27 9 -23 18 3 8 0 14 -6 14 -6 0 -11 -4
-11 -10 0 -5 -16 -10 -35 -10 -34 0 -35 1 -35 40 0 46 11 50 43 17 12 -13 16
-15 8 -5 -12 15 -12 18 0 19 8 1 18 1 22 0 4 -1 99 -1 210 -1 249 1 258 1 281
-6 14 -5 16 -3 10 7 -6 10 -3 10 11 -1 11 -9 16 -10 11 -2 -5 8 1 12 18 12 26
0 26 -1 26 -80 l0 -80 -27 -1 c-16 -1 -34 -1 -40 0 -7 1 -13 -5 -13 -14 0 -19
-19 -19 -40 0 -15 13 -17 13 -17 0 0 -8 9 -23 20 -32 11 -10 17 -12 13 -5 -4
7 -1 12 8 12 9 0 16 -9 16 -20 0 -17 -7 -20 -41 -20 l-41 0 4 40 4 40 -43 0
-43 0 0 -74 0 -75 -32 -4 c-32 -4 -32 -4 7 -7 l40 -3 -50 -7 -50 -7 61 -1 c44
-2 65 2 74 13 14 17 40 3 40 -21 0 -8 7 -14 15 -14 8 0 15 9 15 20 0 13 7 20
20 20 19 0 20 -7 20 -120 l0 -120 -80 0 -80 0 0 -40 c0 -37 -2 -40 -27 -41
-16 -1 -32 -1 -36 0 -5 1 -7 -16 -5 -36 l3 -38 79 -3 c87 -3 121 10 132 52 3
13 18 33 34 44 l29 22 -4 -38 -5 -37 15 40 c11 29 14 32 11 13 -1 -15 1 -25 5
-22 5 3 9 23 9 45 0 39 0 39 40 39 l40 0 2 -67 c0 -38 3 -53 5 -35 4 27 7 31
22 22 10 -5 22 -6 26 -2 5 4 5 1 1 -5 -4 -7 -2 -13 3 -13 6 0 11 5 11 10 0 6
20 10 45 10 l45 0 0 -39 c0 -37 -2 -39 -36 -43 -29 -3 -38 0 -44 16 -6 13 -9
15 -9 6 -1 -36 37 -97 72 -113 63 -30 170 -17 205 26 19 22 31 82 21 98 -6 10
-9 7 -10 -11 l-1 -25 -8 25 c-8 24 -8 24 -9 3 -1 -13 -6 -23 -12 -23 -7 0 -10
16 -8 43 l4 42 -42 -4 -43 -3 0 39 c0 21 5 44 10 49 8 8 5 15 -7 25 -16 12
-17 12 -6 -2 19 -24 6 -29 -79 -29 l-79 0 3 73 c2 44 7 70 13 67 6 -3 9 -8 8
-11 -3 -10 36 -43 53 -45 12 -2 13 1 3 12 -6 7 -15 12 -19 9 -4 -3 -13 2 -20
10 -7 8 -9 15 -5 15 5 0 1 8 -9 18 -13 15 -26 18 -61 15 l-44 -5 0 116 c1 64
5 118 10 122 5 3 9 -3 10 -13 0 -10 7 2 15 27 20 63 71 117 136 144 32 14 37
14 42 0 3 -9 2 -12 -4 -9 -17 11 -99 -35 -124 -69 -13 -17 -30 -50 -37 -73 -7
-24 -16 -43 -21 -43 -4 0 -8 -5 -8 -11 0 -5 4 -8 9 -5 5 3 12 -16 16 -42 9
-61 41 -115 106 -177 52 -49 52 -49 -8 17 -59 64 -74 94 -87 167 -5 26 -3 32
9 28 9 -4 12 -1 8 8 -3 9 2 18 12 21 13 5 14 9 3 15 -8 5 -9 9 -2 9 7 0 15 11
18 24 8 33 49 80 91 106 47 29 153 33 214 8 31 -13 48 -15 55 -8 17 17 25 11
29 -22 4 -27 4 -26 3 6 -1 35 -5 41 -31 49 -16 5 -78 9 -137 10 -58 1 -101 6
-95 10 12 8 160 3 270 -9z m-4597 -2 c7 -4 14 -16 17 -27 4 -18 5 -18 6 3 1
18 7 22 36 22 l35 0 0 -120 0 -120 -41 0 c-36 0 -40 3 -39 23 1 12 2 31 1 42
-2 18 -2 19 -12 2 -5 -9 -7 -22 -4 -27 10 -16 -8 -11 -32 9 -13 11 -23 28 -23
40 0 11 -4 22 -9 25 -5 4 -7 -4 -4 -16 4 -19 3 -20 -6 -8 -7 10 -11 11 -11 3
0 -9 -21 -13 -70 -13 l-70 0 0 -90 c0 -73 -3 -90 -15 -90 -8 0 -14 -5 -12 -12
1 -7 -3 -12 -10 -13 -6 0 -15 -4 -20 -9 -16 -17 135 -1 154 16 27 25 51 3 47
-42 -2 -19 -1 -27 2 -17 3 9 10 17 15 17 12 0 11 -7 -2 -32 -9 -16 -8 -19 3
-16 7 3 14 14 16 26 3 17 10 22 33 22 27 0 29 -2 29 -40 0 -40 0 -40 -39 -40
-22 0 -41 -5 -44 -12 -2 -7 -2 -43 1 -80 l4 -68 -42 0 -43 0 6 37 c4 20 3 42
-2 47 -4 6 -11 26 -15 45 -5 29 -4 32 9 21 8 -7 15 -19 15 -28 0 -8 3 -13 6
-9 11 10 -7 47 -28 58 -15 8 -19 8 -14 0 4 -6 2 -11 -4 -11 -6 0 -8 -4 -5 -10
3 -5 1 -10 -4 -10 -6 0 -11 7 -11 15 0 11 -11 15 -41 15 -36 0 -39 -2 -25 -15
8 -8 21 -15 28 -15 10 0 9 3 -2 11 -10 7 -11 9 -2 7 8 -2 13 -7 13 -11 -1 -4
-1 -20 -1 -37 0 -21 -5 -30 -16 -30 -9 0 -12 -5 -8 -12 5 -9 2 -9 -9 1 -16 12
-17 8 -16 -50 1 -47 3 -57 9 -39 4 14 8 19 9 11 1 -11 5 -10 16 5 13 18 14 15
15 -28 l0 -48 40 0 c39 0 40 -1 40 -35 0 -24 5 -35 15 -35 8 0 15 -4 15 -10 0
-5 -18 -10 -40 -10 -29 0 -40 4 -40 15 0 13 -26 21 -53 16 -5 -1 -6 14 -3 32
4 26 2 34 -10 34 -12 0 -14 -8 -9 -41 4 -23 11 -45 16 -51 15 -15 140 -18 184
-3 32 10 42 20 51 48 6 19 25 45 43 58 l31 25 -6 -34 c-6 -32 -6 -33 9 -14 9
11 17 16 18 10 1 -5 5 10 9 35 6 39 7 34 8 -36 2 -65 5 -83 18 -88 9 -4 23 -1
31 6 8 7 25 13 36 15 81 12 120 46 113 101 -2 18 1 32 6 32 5 0 8 6 7 13 -1 6
0 19 3 27 5 12 18 90 44 270 12 77 17 91 43 113 22 18 28 30 25 53 -4 24 -3
26 5 9 5 -11 10 -29 10 -41 1 -11 10 -29 21 -39 11 -10 20 -23 20 -30 0 -7 14
-31 30 -53 17 -23 32 -52 33 -64 2 -12 9 -24 15 -26 7 -2 12 -10 12 -18 0 -8
5 -14 10 -14 6 0 10 -6 10 -13 0 -7 9 -23 20 -35 11 -12 20 -24 20 -28 0 -5
47 -109 55 -122 15 -22 93 97 79 120 -4 6 -3 9 2 5 13 -8 98 158 89 174 -5 7
-4 10 2 6 6 -4 23 17 38 48 18 34 41 62 60 74 31 18 33 24 45 105 7 47 16 83
21 80 5 -3 9 2 9 11 0 46 -37 -15 -170 -277 -80 -158 -151 -293 -159 -300 -9
-8 -12 -9 -7 -1 7 14 -280 593 -295 593 -17 0 -28 -43 -69 -280 -82 -472 -82
-472 -136 -483 -13 -2 -24 -1 -24 3 0 4 13 10 29 13 16 4 32 14 35 24 3 10 33
169 66 353 33 184 63 343 66 353 3 9 14 21 24 27 23 12 27 6 190 -320 67 -135
124 -247 126 -249 1 -2 66 123 143 277 77 155 149 286 159 291 25 13 62 10 62
-5 0 -7 -4 -14 -10 -16 -9 -3 14 -181 27 -201 3 -5 0 -8 -8 -5 -9 3 -21 39
-31 94 -16 83 -17 85 -12 24 4 -36 7 -79 8 -96 2 -17 5 -35 8 -40 4 -5 16 -75
28 -154 23 -156 30 -193 36 -187 3 2 -7 74 -21 160 -28 175 -29 187 -15 187 6
0 10 -10 10 -22 0 -29 36 -276 56 -382 17 -92 23 -102 68 -110 18 -4 41 -15
51 -26 18 -20 17 -20 -21 -21 -21 -1 -56 0 -77 1 -21 1 -55 -1 -77 -5 -37 -6
-38 -8 -35 -42 2 -25 0 -32 -6 -22 -6 10 -9 10 -9 2 0 -9 -21 -13 -70 -13
l-70 0 0 40 c0 37 2 40 24 36 37 -7 58 47 49 126 -3 35 -8 57 -11 49 -4 -11
-6 -11 -13 0 -6 9 -9 -5 -9 -38 0 -46 -3 -53 -20 -53 -17 0 -20 7 -20 40 l0
40 -40 0 -40 0 0 -80 0 -80 -40 0 -40 0 0 -40 0 -40 -40 0 -40 0 0 40 0 40
-41 0 -41 0 3 43 4 42 -43 -4 -44 -3 4 80 3 80 -46 4 -46 3 5 -82 c3 -66 2
-83 -9 -83 -11 0 -11 -2 1 -10 12 -8 11 -10 -7 -10 -12 0 -24 6 -26 13 -4 7
-6 6 -6 -5 -1 -11 10 -19 32 -23 17 -4 42 -18 54 -32 12 -14 27 -22 32 -18 7
4 11 -9 11 -34 l0 -41 -200 0 -200 0 0 -40 0 -40 -320 0 c-207 0 -320 4 -320
10 0 6 -10 11 -22 11 l-23 2 23 4 c12 2 22 9 22 14 0 6 -10 7 -22 3 -21 -6
-21 -4 6 24 16 17 40 32 54 34 35 4 40 29 44 236 3 154 -2 205 -15 155 -4 -14
-5 -12 -6 5 0 12 -6 22 -12 22 -6 0 -9 -9 -6 -20 4 -16 0 -20 -19 -20 l-24 0
-2 203 c-1 246 1 221 -27 251 l-24 26 284 3 c156 1 289 3 294 5 6 1 15 -2 21
-6z m1771 -8 c-3 -3 -12 -4 -19 -1 -8 3 -5 6 6 6 11 1 17 -2 13 -5z m-700 -66
c-3 -8 -6 -5 -6 6 -1 11 2 17 5 13 3 -3 4 -12 1 -19z m3408 -28 c3 -6 -1 -7
-9 -4 -18 7 -21 14 -7 14 6 0 13 -4 16 -10z m-2329 -325 c6 -35 -6 -55 -32
-55 -21 0 -24 4 -24 41 0 38 2 40 27 37 17 -2 27 -10 29 -23z m958 -10 c-4 -8
-11 -15 -16 -15 -6 0 -5 6 2 15 7 8 14 15 16 15 2 0 1 -7 -2 -15z m1447 -2
c13 -16 12 -17 -3 -4 -10 7 -18 15 -18 17 0 8 8 3 21 -13z m-1044 -75 c-3 -7
-5 -2 -5 12 0 14 2 19 5 13 2 -7 2 -19 0 -25z m-2840 -80 c-3 -8 -6 -5 -6 6
-1 11 2 17 5 13 3 -3 4 -12 1 -19z m-395 -120 c-9 -9 -12 -7 -12 12 0 19 3 21
12 12 9 -9 9 -15 0 -24z m675 0 c-3 -7 -5 -2 -5 12 0 14 2 19 5 13 2 -7 2 -19
0 -25z m-1429 -45 c-3 -33 -6 -37 -35 -40 -32 -4 -33 -3 -33 36 0 40 1 41 36
41 35 0 35 -1 32 -37z m3992 33 c0 -3 -4 -8 -10 -11 -5 -3 -10 -1 -10 4 0 6 5
11 10 11 6 0 10 -2 10 -4z m-3320 -10 c0 -3 -4 -8 -10 -11 -5 -3 -10 -1 -10 4
0 6 5 11 10 11 6 0 10 -2 10 -4z m4180 -70 c0 -3 -4 -8 -10 -11 -5 -3 -10 -1
-10 4 0 6 5 11 10 11 6 0 10 -2 10 -4z m-1393 -22 c-3 -3 -12 -4 -19 -1 -8 3
-5 6 6 6 11 1 17 -2 13 -5z m-2667 -378 c0 -3 -4 -8 -10 -11 -5 -3 -10 -1 -10
4 0 6 5 11 10 11 6 0 10 -2 10 -4z m1753 -3 c-7 -2 -19 -2 -25 0 -7 3 -2 5 12
5 14 0 19 -2 13 -5z m1200 0 c-7 -2 -19 -2 -25 0 -7 3 -2 5 12 5 14 0 19 -2
13 -5z m942 -3 c-3 -5 -10 -10 -16 -10 -5 0 -9 5 -9 10 0 6 7 10 16 10 8 0 12
-4 9 -10z m-3315 -24 c0 -22 -11 -33 -35 -34 -5 0 -9 4 -7 9 1 5 -1 8 -5 8
-21 -3 -33 2 -33 15 0 17 15 24 53 25 22 1 27 -3 27 -23z m-217 -13 c-7 -2
-21 -2 -30 0 -10 3 -4 5 12 5 17 0 24 -2 18 -5z m350 0 c-7 -2 -19 -2 -25 0
-7 3 -2 5 12 5 14 0 19 -2 13 -5z m175 0 c-10 -2 -26 -2 -35 0 -10 3 -2 5 17
5 19 0 27 -2 18 -5z m135 0 c-7 -2 -19 -2 -25 0 -7 3 -2 5 12 5 14 0 19 -2 13
-5z m315 0 c-10 -2 -26 -2 -35 0 -10 3 -2 5 17 5 19 0 27 -2 18 -5z m150 0
c-10 -2 -26 -2 -35 0 -10 3 -2 5 17 5 19 0 27 -2 18 -5z m165 0 c-7 -2 -19 -2
-25 0 -7 3 -2 5 12 5 14 0 19 -2 13 -5z m1100 0 c-7 -2 -21 -2 -30 0 -10 3 -4
5 12 5 17 0 24 -2 18 -5z m450 0 c-7 -2 -21 -2 -30 0 -10 3 -4 5 12 5 17 0 24
-2 18 -5z m680 0 c-7 -2 -21 -2 -30 0 -10 3 -4 5 12 5 17 0 24 -2 18 -5z
m-768 -73 c3 -5 1 -10 -4 -10 -6 0 -11 5 -11 10 0 6 2 10 4 10 3 0 8 -4 11
-10z"/>
<path d="M2192 2956 c-17 -37 -15 -45 4 -18 8 12 14 27 12 33 -2 6 -9 -1 -16
-15z"/>
<path d="M2220 2954 c0 -6 23 -68 50 -138 28 -70 50 -132 50 -137 0 -6 -45 -9
-120 -7 -66 2 -120 -1 -120 -5 0 -5 -4 -5 -10 -2 -5 3 -10 1 -10 -4 0 -7 50
-11 145 -11 87 0 145 4 145 10 0 5 6 8 13 7 6 -2 3 1 -8 6 -13 6 -33 41 -54
96 -56 142 -80 197 -81 185z"/>
<path d="M2200 2921 c0 -6 4 -13 10 -16 6 -3 7 1 4 9 -7 18 -14 21 -14 7z"/>
<path d="M2126 2789 c-20 -50 -35 -93 -33 -95 2 -2 20 37 40 88 20 50 35 93
33 95 -2 2 -20 -37 -40 -88z"/>
<path d="M2150 2790 c0 -5 7 -10 16 -10 8 0 12 5 9 10 -3 6 -10 10 -16 10 -5
0 -9 -4 -9 -10z"/>
<path d="M2195 2722 c-63 -3 -84 -11 -85 -34 0 -5 45 -8 100 -8 l100 0 -12 25
c-7 16 -14 21 -19 14 -3 -6 -8 -7 -10 -3 -2 5 -35 8 -74 6z"/>
<path d="M2063 2608 c-14 -18 -45 -100 -40 -104 2 -3 12 17 22 43 10 27 22 54
28 61 5 6 7 12 4 12 -2 0 -9 -6 -14 -12z"/>
<path d="M2109 2611 c11 -7 9 -10 -10 -14 -13 -2 -1 -4 26 -4 28 -1 41 1 30 4
-11 3 -24 9 -29 14 -6 5 -15 9 -20 9 -6 0 -5 -4 3 -9z"/>
<path d="M2108 2573 c12 -2 32 -2 45 0 12 2 2 4 -23 4 -25 0 -35 -2 -22 -4z"/>
<path d="M2370 2545 c0 -5 5 -17 10 -25 5 -8 10 -10 10 -5 0 6 -5 17 -10 25
-5 8 -10 11 -10 5z"/>
<path d="M2390 2496 c0 -2 17 -47 38 -99 l39 -96 -21 -21 -21 -21 25 13 c51
26 52 28 32 46 -11 9 -34 54 -52 100 -28 70 -40 94 -40 78z"/>
<path d="M2001 2459 c-6 -18 -9 -34 -7 -36 2 -2 9 10 15 28 6 18 9 34 7 36 -2
2 -9 -10 -15 -28z"/>
<path d="M1956 2325 c-9 -35 -1 -45 38 -45 17 0 38 -6 46 -12 12 -11 12 -10 1
5 -7 9 -24 17 -37 17 -26 0 -40 17 -36 43 5 26 -5 20 -12 -8z"/>
<path d="M3115 3120 c-3 -6 1 -7 9 -4 18 7 21 14 7 14 -6 0 -13 -4 -16 -10z"/>
<path d="M3085 3100 c-3 -5 -3 -10 1 -10 4 0 -1 -9 -11 -20 -17 -19 -17 -19 6
-15 12 3 27 9 33 15 8 8 6 9 -6 5 -13 -5 -16 -2 -13 14 4 23 0 27 -10 11z"/>
<path d="M3683 3020 c0 -47 2 -66 4 -42 2 23 2 61 0 85 -2 23 -4 4 -4 -43z"/>
<path d="M3043 3068 c-19 -22 -63 -88 -51 -78 9 8 78 100 75 100 -2 0 -13 -10
-24 -22z"/>
<path d="M2885 3049 c-40 -48 -75 -124 -91 -198 -17 -84 -18 -109 -2 -93 7 7
18 8 32 1 17 -8 18 -7 5 2 -13 10 -14 17 -5 41 6 15 16 28 23 28 6 0 15 5 19
12 5 7 3 8 -7 3 -12 -7 -12 -6 0 9 10 11 11 20 4 24 -15 10 -12 41 3 35 8 -3
25 20 46 59 42 81 43 82 29 74 -6 -4 -11 -1 -11 8 0 28 -18 26 -45 -5z m-65
-213 c0 -3 -4 -8 -10 -11 -5 -3 -10 -1 -10 4 0 6 5 11 10 11 6 0 10 -2 10 -4z"/>
<path d="M2976 2965 c-9 -26 -7 -32 5 -12 6 10 9 21 6 23 -2 3 -7 -2 -11 -11z"/>
<path d="M2961 2914 c0 -11 3 -14 6 -6 3 7 2 16 -1 19 -3 4 -6 -2 -5 -13z"/>
<path d="M2945 2825 c-4 -36 -5 -68 -2 -71 2 -3 8 25 12 61 4 37 5 69 2 72 -3
2 -8 -25 -12 -62z"/>
<path d="M2780 2696 c0 -25 4 -47 8 -50 5 -3 7 15 6 40 -2 24 1 42 6 39 5 -3
11 -1 15 5 3 5 -3 10 -14 10 -18 0 -21 -6 -21 -44z"/>
<path d="M3424 2721 c3 -5 15 -7 26 -4 28 7 25 13 -6 13 -14 0 -23 -4 -20 -9z"/>
<path d="M3509 2720 c18 -4 45 -17 60 -27 44 -32 49 -34 65 -17 9 8 16 12 16
8 0 -4 8 0 19 10 10 9 38 20 62 25 33 7 5 9 -106 9 -96 0 -138 -3 -116 -8z
m106 -10 c-3 -5 -12 -10 -18 -10 -7 0 -6 4 3 10 19 12 23 12 15 0z"/>
<path d="M2952 2685 c0 -16 2 -22 5 -12 2 9 2 23 0 30 -3 6 -5 -1 -5 -18z"/>
<path d="M3710 2685 c-7 -9 -11 -17 -9 -20 3 -2 10 5 17 15 14 24 10 26 -8 5z"/>
<path d="M3422 2678 c5 -15 57 -18 61 -3 1 6 -13 11 -32 13 -24 3 -32 0 -29
-10z m51 -5 c-7 -2 -19 -2 -25 0 -7 3 -2 5 12 5 14 0 19 -2 13 -5z"/>
<path d="M3529 2673 c7 -13 11 -82 11 -177 0 -190 3 -186 -135 -186 -97 0
-176 18 -235 52 -46 27 -116 94 -141 136 -12 17 -25 30 -30 27 -5 -4 -6 0 -4
8 3 7 -2 30 -10 51 -17 41 -32 45 -16 4 6 -15 5 -31 -2 -43 -7 -14 -7 -20 1
-23 9 -3 9 -9 1 -24 -6 -11 -7 -18 -2 -15 5 4 17 -9 26 -28 10 -20 24 -35 34
-35 14 0 15 -2 4 -9 -26 -16 72 -76 171 -105 128 -37 297 -30 360 16 25 17 42
48 19 33 -6 -3 -8 14 -7 40 2 25 0 48 -5 51 -15 9 -10 24 6 18 8 -4 15 -1 15
5 0 6 -6 11 -13 11 -7 0 -13 12 -13 28 -2 72 -17 158 -31 172 -14 13 -14 13
-4 -7z"/>
<path d="M2982 2660 c0 -14 2 -19 5 -12 2 6 2 18 0 25 -3 6 -5 1 -5 -13z"/>
<path d="M3001 2664 c0 -11 3 -14 6 -6 3 7 2 16 -1 19 -3 4 -6 -2 -5 -13z"/>
<path d="M3693 2600 c0 -30 2 -43 4 -27 2 15 2 39 0 55 -2 15 -4 2 -4 -28z"/>
<path d="M2792 2610 c0 -14 2 -19 5 -12 2 6 2 18 0 25 -3 6 -5 1 -5 -13z"/>
<path d="M2810 2545 c0 -5 5 -17 10 -25 5 -8 10 -10 10 -5 0 6 -5 17 -10 25
-5 8 -10 11 -10 5z"/>
<path d="M3694 2425 c0 -60 1 -84 3 -52 2 32 2 81 0 110 -2 29 -3 3 -3 -58z"/>
<path d="M2849 2462 c5 -10 18 -25 27 -33 11 -9 9 -2 -6 19 -26 35 -36 42 -21
14z"/>
<path d="M2945 2360 c10 -11 20 -20 23 -20 3 0 -3 9 -13 20 -10 11 -20 20 -23
20 -3 0 3 -9 13 -20z"/>
<path d="M3031 2274 c0 -11 3 -14 6 -6 3 7 2 16 -1 19 -3 4 -6 -2 -5 -13z"/>
<path d="M3330 2229 c-20 -6 -17 -7 18 -8 23 -1 42 1 42 3 0 9 -37 12 -60 5z"/>
<path d="M3268 2223 c7 -3 16 -2 19 1 4 3 -2 6 -13 5 -11 0 -14 -3 -6 -6z"/>
<path d="M3408 2223 c7 -3 16 -2 19 1 4 3 -2 6 -13 5 -11 0 -14 -3 -6 -6z"/>
<path d="M3328 2203 c12 -2 32 -2 45 0 12 2 2 4 -23 4 -25 0 -35 -2 -22 -4z"/>
<path d="M4210 3120 c0 -11 2 -20 4 -20 2 0 6 9 9 20 3 11 1 20 -4 20 -5 0 -9
-9 -9 -20z"/>
<path d="M4551 3104 c0 -11 3 -14 6 -6 3 7 2 16 -1 19 -3 4 -6 -2 -5 -13z"/>
<path d="M4212 2953 c-2 -131 -4 -144 -22 -155 -11 -7 -20 -16 -20 -20 0 -5
49 -8 109 -8 107 0 110 0 131 28 l21 27 -5 -30 c-5 -27 -4 -28 6 -8 6 12 8 30
4 39 -6 16 -8 15 -26 -1 -15 -14 -38 -18 -102 -19 l-83 -1 -5 145 -6 145 -2
-142z"/>
<path d="M4541 3021 c-1 -19 -4 -21 -15 -12 -11 10 -14 9 -12 -4 1 -8 8 -21
16 -28 8 -8 11 -8 6 0 -3 6 -1 13 5 15 6 2 9 15 6 28 l-4 25 -2 -24z"/>
<path d="M4564 3015 c-1 -14 1 -25 5 -25 26 1 39 50 12 50 -10 0 -17 -9 -17
-25z"/>
<path d="M4451 2774 c0 -11 3 -14 6 -6 3 7 2 16 -1 19 -3 4 -6 -2 -5 -13z"/>
<path d="M4214 2726 c-3 -8 -4 -25 -2 -38 3 -17 5 -13 9 15 5 38 2 47 -7 23z"/>
<path d="M4386 2690 c22 -45 28 -52 19 -20 -4 14 -14 32 -22 40 -10 11 -9 5 3
-20z"/>
<path d="M4340 2706 c0 -2 7 -7 16 -10 8 -3 12 -2 9 4 -6 10 -25 14 -25 6z"/>
<path d="M4442 2675 c0 -16 2 -22 5 -12 2 9 2 23 0 30 -3 6 -5 -1 -5 -18z"/>
<path d="M4218 2460 c3 -74 1 -100 -8 -100 -7 0 -10 -7 -7 -14 4 -10 1 -14
-11 -10 -9 2 1 -5 23 -16 35 -18 56 -20 168 -18 141 3 134 1 164 73 12 27 12
24 8 -35 -4 -62 -4 -63 6 -20 5 25 7 58 4 74 -3 16 0 35 6 42 8 10 8 14 1 14
-6 0 -20 -20 -31 -45 -26 -60 -62 -75 -174 -75 -70 0 -89 3 -111 21 -25 19
-26 25 -26 115 0 52 -3 94 -8 94 -4 0 -6 -45 -4 -100z"/>
<path d="M4250 2379 c0 -13 44 -39 66 -39 2 0 4 14 4 30 0 29 -2 30 -35 28
-25 -1 -35 -7 -35 -19z"/>
<path d="M4568 2267 c-3 -19 -2 -25 4 -19 6 6 8 18 6 28 -3 14 -5 12 -10 -9z"/>
<path d="M4591 2274 c0 -11 3 -14 6 -6 3 7 2 16 -1 19 -3 4 -6 -2 -5 -13z"/>
<path d="M3268 2033 c7 -3 16 -2 19 1 4 3 -2 6 -13 5 -11 0 -14 -3 -6 -6z"/>
<path d="M3268 2013 c7 -3 16 -2 19 1 4 3 -2 6 -13 5 -11 0 -14 -3 -6 -6z"/>
<path d="M3001 1965 c-23 -27 -31 -45 -30 -73 l1 -37 13 50 c8 29 25 59 40 73
14 12 22 22 17 22 -6 0 -24 -16 -41 -35z"/>
<path d="M3311 1879 c-2 -84 1 -119 8 -114 7 4 11 49 11 115 0 77 4 110 13
113 6 3 3 6 -9 6 -20 1 -21 -4 -23 -120z"/>
<path d="M3105 1980 c-3 -5 1 -10 10 -10 9 0 13 5 10 10 -3 6 -8 10 -10 10 -2
0 -7 -4 -10 -10z"/>
<path d="M3294 1875 c0 -66 1 -92 3 -57 2 34 2 88 0 120 -2 31 -3 3 -3 -63z"/>
<path d="M3141 1951 c-9 -6 -10 -11 -2 -15 6 -4 11 -1 11 6 0 10 3 9 10 -2 5
-8 12 -12 15 -9 10 11 -20 28 -34 20z"/>
<path d="M3021 1934 c0 -11 3 -14 6 -6 3 7 2 16 -1 19 -3 4 -6 -2 -5 -13z"/>
<path d="M3042 1870 c3 -46 -2 -55 -24 -51 -5 0 -8 -5 -8 -13 0 -15 37 -46 54
-46 6 0 0 7 -12 16 -12 8 -22 20 -22 27 0 8 3 8 11 0 6 -6 19 -9 28 -6 12 4
13 3 3 -5 -11 -7 -10 -10 3 -16 9 -3 29 -6 43 -5 15 0 21 3 14 6 -10 4 -9 9 5
19 17 13 17 14 1 8 -16 -5 -18 1 -18 55 l0 61 -41 0 -41 0 4 -50z"/>
<path d="M3198 1894 c-5 -4 -8 -24 -8 -44 0 -23 -9 -49 -22 -66 l-22 -29 27
24 c26 24 42 72 35 106 -1 9 -6 13 -10 9z"/>
<path d="M3021 1844 c0 -11 3 -14 6 -6 3 7 2 16 -1 19 -3 4 -6 -2 -5 -13z"/>
<path d="M3151 1834 c0 -11 3 -14 6 -6 3 7 2 16 -1 19 -3 4 -6 -2 -5 -13z"/>
<path d="M3171 1834 c0 -11 3 -14 6 -6 3 7 2 16 -1 19 -3 4 -6 -2 -5 -13z"/>
<path d="M2976 1771 c-8 -12 16 -30 39 -29 11 0 29 -2 40 -6 14 -5 13 -3 -4 7
-13 8 -32 12 -41 10 -10 -3 -21 0 -24 6 -4 7 -1 8 8 5 9 -3 16 -1 16 5 0 13
-26 15 -34 2z"/>
<path d="M3160 1741 c0 -6 4 -12 8 -15 5 -3 9 1 9 9 0 8 -4 15 -9 15 -4 0 -8
-4 -8 -9z"/>
<path d="M3308 1733 c18 -2 45 -2 60 0 15 2 0 4 -33 4 -33 0 -45 -2 -27 -4z"/>
<path d="M3303 1713 c15 -2 37 -2 50 0 12 2 0 4 -28 4 -27 0 -38 -2 -22 -4z"/>
<path d="M1170 1839 c0 -5 5 -7 10 -4 6 3 10 8 10 11 0 2 -4 4 -10 4 -5 0 -10
-5 -10 -11z"/>
<path d="M1128 1833 c7 -3 16 -2 19 1 4 3 -2 6 -13 5 -11 0 -14 -3 -6 -6z"/>
<path d="M1427 1833 c18 -2 50 -2 70 0 21 2 7 4 -32 4 -38 0 -55 -2 -38 -4z"/>
<path d="M1728 1833 c6 -2 18 -2 25 0 6 3 1 5 -13 5 -14 0 -19 -2 -12 -5z"/>
<path d="M2563 1484 c4 -5 26 -7 48 -5 31 2 48 -4 75 -24 l35 -27 23 21 c48
45 213 16 270 -48 11 -11 29 -21 41 -21 13 0 27 -10 34 -22 11 -22 11 -21 6 6
-9 43 -34 75 -79 99 -38 20 -57 22 -251 25 -115 2 -206 0 -202 -4z"/>
<path d="M3310 1482 c0 -4 17 -6 38 -4 28 2 46 -3 71 -22 l34 -25 30 21 c17
12 46 25 66 29 22 4 -18 7 -101 8 -76 0 -138 -2 -138 -7z"/>
<path d="M2649 1443 c7 -13 11 -120 11 -280 l0 -259 23 -1 c12 0 16 1 10 4 -9
3 -8 11 3 29 11 15 12 24 5 24 -8 0 -9 6 -3 18 11 20 10 71 -1 90 -5 8 -3 12
7 12 12 0 14 5 6 25 -5 14 -7 25 -4 25 4 0 2 6 -4 13 -6 7 -9 23 -5 35 3 14 1
22 -8 22 -8 0 -5 6 7 15 18 13 18 14 -6 9 -22 -5 -23 -4 -7 6 14 9 16 15 6 26
-9 11 -9 14 1 14 9 0 8 7 -4 25 -16 24 -16 25 4 25 20 0 20 1 6 16 -18 17 -12
38 7 28 7 -3 4 1 -7 10 -10 8 -16 19 -13 23 3 5 -5 22 -19 39 -18 20 -22 23
-15 7z"/>
<path d="M3380 1448 c6 -7 10 -67 10 -135 0 -80 4 -123 11 -123 5 0 9 8 8 18
-1 9 0 19 1 22 3 9 2 125 -2 163 -3 21 -12 44 -21 52 -9 8 -12 10 -7 3z"/>
<path d="M2780 1370 c-3 -41 -3 -154 0 -250 l6 -175 3 150 c1 95 6 143 11 130
5 -11 9 -41 9 -67 l1 -48 41 0 c35 0 48 6 80 39 37 36 50 77 32 95 -11 10 -12
36 -2 36 12 0 11 37 -1 61 -6 10 -17 19 -25 19 -8 0 -15 5 -15 11 0 5 6 7 13
3 8 -5 8 -2 -2 9 -14 17 -26 24 -17 9 2 -4 1 -14 -5 -22 -6 -11 -9 -8 -9 12 0
31 -24 48 -69 48 l-31 0 -2 -92 -2 -93 -6 100 -5 100 -5 -75z"/>
<path d="M3514 1230 c0 -113 2 -159 3 -102 2 56 2 148 0 205 -1 56 -3 10 -3
-103z"/>
<path d="M2943 1393 c14 -18 27 -38 30 -45 2 -7 7 -10 11 -7 3 3 -10 23 -30
45 -23 25 -27 28 -11 7z"/>
<path d="M3372 1300 c0 -14 2 -19 5 -12 2 6 2 18 0 25 -3 6 -5 1 -5 -13z"/>
<path d="M3085 1169 c-3 -4 2 -6 10 -5 21 3 28 13 10 13 -9 0 -18 -4 -20 -8z"/>
<path d="M3391 1158 c0 -13 3 -17 6 -10 2 6 9 10 14 7 5 -4 6 1 3 9 -9 24 -24
19 -23 -6z"/>
<path d="M3505 1000 c-3 -5 -1 -10 4 -10 6 0 11 5 11 10 0 6 -2 10 -4 10 -3 0
-8 -4 -11 -10z"/>
<path d="M2656 870 c-2 -8 -4 -30 -5 -49 -1 -18 -6 -42 -12 -52 -14 -27 4 -24
40 7 31 26 41 54 20 54 -8 0 -7 5 1 15 11 13 10 14 -5 9 -15 -6 -16 -4 -7 12
9 16 7 20 -9 20 -10 0 -21 -7 -23 -16z"/>
<path d="M2792 865 c0 -16 2 -22 5 -12 2 9 2 23 0 30 -3 6 -5 -1 -5 -18z"/>
<path d="M2794 795 c1 -31 5 -41 21 -43 18 -4 19 -3 3 10 -9 7 -19 27 -21 43
-3 21 -4 18 -3 -10z"/>
<path d="M2588 743 c6 -2 18 -2 25 0 6 3 1 5 -13 5 -14 0 -19 -2 -12 -5z"/>
<path d="M2853 743 c9 -2 23 -2 30 0 6 3 -1 5 -18 5 -16 0 -22 -2 -12 -5z"/>
<path d="M4865 1490 c-126 -3 -209 -7 -184 -8 30 -1 56 -10 79 -27 l33 -25 35
22 c31 19 44 20 142 16 91 -5 111 -3 125 11 16 15 16 13 11 -24 -3 -22 -5 -48
-6 -59 0 -16 -2 -16 -21 5 -20 23 -20 23 1 -8 24 -37 26 -39 27 -20 1 6 4 38
8 70 6 46 5 57 -6 55 -8 -1 -117 -5 -244 -8z"/>
<path d="M3824 1483 c4 -4 25 -6 47 -4 30 2 48 -3 72 -22 32 -24 33 -24 56 -6
16 13 39 19 78 19 88 0 141 -18 189 -65 24 -23 46 -40 48 -37 10 9 45 -20 49
-40 l4 -23 2 23 c0 12 -8 39 -18 60 -45 88 -93 102 -343 102 -105 0 -188 -3
-184 -7z"/>
<path d="M3909 1442 c7 -13 12 -95 13 -209 1 -103 4 -151 5 -105 3 63 7 82 18
82 9 0 12 6 9 15 -4 8 -9 13 -13 10 -4 -2 -8 3 -8 11 0 8 6 13 13 10 14 -5 27
35 18 58 -3 8 -13 17 -22 19 -12 3 -10 5 6 6 26 1 30 21 5 21 -15 0 -16 2 -3
10 12 8 12 10 -5 11 -11 0 -15 3 -9 5 13 5 -8 58 -28 70 -6 4 -6 -1 1 -14z
m48 -138 c-3 -3 -12 -4 -19 -1 -8 3 -5 6 6 6 11 1 17 -2 13 -5z"/>
<path d="M4731 1429 c5 -19 9 -115 9 -214 -2 -220 -2 -215 8 -215 4 0 6 21 5
47 -2 29 2 50 10 55 9 6 9 8 -1 8 -9 0 -12 18 -11 65 1 35 5 62 10 60 4 -3 11
-1 14 5 4 6 1 9 -6 8 -6 -2 -14 3 -16 10 -3 6 2 12 11 12 8 0 17 4 21 9 3 6
-4 8 -15 6 -14 -3 -20 1 -20 15 0 10 6 21 13 23 9 4 8 8 -3 16 -13 9 -12 12 8
17 12 4 22 11 22 16 0 5 -5 6 -12 2 -8 -5 -9 0 -6 14 4 12 2 20 -3 16 -5 -3
-9 1 -9 9 0 8 -9 22 -20 32 -19 17 -19 17 -9 -16z"/>
<path d="M5464 1428 l-19 -23 23 19 c12 11 22 21 22 23 0 8 -8 2 -26 -19z"/>
<path d="M5680 1447 c0 -2 15 -16 33 -33 l32 -29 -29 33 c-28 30 -36 37 -36
29z"/>
<path d="M5792 1430 c0 -14 2 -19 5 -12 2 6 2 18 0 25 -3 6 -5 1 -5 -13z"/>
<path d="M4034 1315 c0 -71 1 -99 3 -62 2 37 2 96 0 130 -2 34 -3 4 -3 -68z"/>
<path d="M4855 1429 c-11 -17 1 -21 15 -4 8 9 8 15 2 15 -6 0 -14 -5 -17 -11z"/>
<path d="M5499 1438 c-5 -18 -6 -38 -1 -34 7 8 12 36 6 36 -2 0 -4 -1 -5 -2z"/>
<path d="M5811 1424 c0 -11 3 -14 6 -6 3 7 2 16 -1 19 -3 4 -6 -2 -5 -13z"/>
<path d="M4058 1388 c-2 -24 -2 -96 0 -160 l3 -118 58 0 c47 0 61 4 79 23 24
26 42 76 42 119 0 26 -3 28 -40 28 l-40 0 0 51 c0 27 4 48 8 45 5 -3 9 2 9 11
0 17 -54 43 -91 43 -22 0 -25 -5 -28 -42z"/>
<path d="M4201 1395 c15 -16 31 -39 37 -50 9 -19 13 -200 4 -191 -2 3 -16 -10
-32 -27 -27 -31 -31 -32 -108 -32 -44 0 -83 -3 -87 -6 -5 -6 88 -12 143 -10
12 0 22 -4 22 -9 0 -6 5 -10 12 -10 6 0 9 3 5 6 -3 3 8 20 24 38 48 49 89 141
68 148 -6 2 -11 13 -12 26 0 12 -4 22 -7 22 -3 0 -11 15 -18 33 -7 18 -27 46
-44 63 l-33 29 26 -30z"/>
<path d="M4907 1413 c18 -2 50 -2 70 0 21 2 7 4 -32 4 -38 0 -55 -2 -38 -4z"/>
<path d="M4918 1393 c7 -3 16 -2 19 1 4 3 -2 6 -13 5 -11 0 -14 -3 -6 -6z"/>
<path d="M4988 1393 c7 -3 16 -2 19 1 4 3 -2 6 -13 5 -11 0 -14 -3 -6 -6z"/>
<path d="M4850 1379 c0 -5 5 -7 10 -4 6 3 10 8 10 11 0 2 -4 4 -10 4 -5 0 -10
-5 -10 -11z"/>
<path d="M5793 1355 c0 -22 2 -30 4 -17 2 12 2 30 0 40 -3 9 -5 -1 -4 -23z"/>
<path d="M5433 1338 c1 -27 -1 -48 -6 -48 -10 0 3 -53 16 -61 5 -4 7 -14 4
-22 -5 -14 27 -49 78 -85 6 -4 31 -24 56 -44 26 -21 49 -35 53 -33 3 3 4 2 1
-2 -7 -9 46 -64 55 -58 4 3 15 -4 25 -15 10 -11 26 -20 36 -20 13 0 20 -10 24
-37 10 -58 13 -62 14 -17 2 85 -67 174 -230 298 -82 63 -111 99 -120 150 l-8
41 2 -47z"/>
<path d="M5718 1355 c2 -14 8 -27 12 -30 4 -2 5 7 2 20 -2 14 -8 27 -12 30 -4
2 -5 -7 -2 -20z"/>
<path d="M5812 1345 c0 -16 2 -22 5 -12 2 9 2 23 0 30 -3 6 -5 -1 -5 -18z"/>
<path d="M4392 1310 c0 -19 2 -27 5 -17 2 9 2 25 0 35 -3 9 -5 1 -5 -18z"/>
<path d="M4770 1315 c-8 -9 -8 -15 -2 -15 12 0 26 19 19 26 -2 2 -10 -2 -17
-11z"/>
<path d="M5460 1325 c0 -5 5 -17 10 -25 9 -13 10 -13 10 0 0 13 1 13 10 0 5
-8 10 -10 10 -5 0 6 -5 17 -10 25 -9 13 -10 13 -10 0 0 -13 -1 -13 -10 0 -5 8
-10 11 -10 5z"/>
<path d="M4201 1304 c0 -11 3 -14 6 -6 3 7 2 16 -1 19 -3 4 -6 -2 -5 -13z"/>
<path d="M4221 1304 c0 -11 3 -14 6 -6 3 7 2 16 -1 19 -3 4 -6 -2 -5 -13z"/>
<path d="M4362 1265 c0 -16 2 -22 5 -12 2 9 2 23 0 30 -3 6 -5 -1 -5 -18z"/>
<path d="M5315 1200 c5 -17 4 -21 -6 -15 -8 5 -10 4 -6 0 4 -5 14 -10 21 -11
15 -2 10 32 -6 42 -6 4 -7 -2 -3 -16z"/>
<path d="M5012 1178 c-6 -6 -46 -12 -89 -14 -107 -3 -111 -24 -4 -24 68 0 82
3 94 20 8 11 17 17 22 12 5 -4 5 -1 1 6 -9 15 -9 15 -24 0z"/>
<path d="M4032 1160 c0 -14 2 -19 5 -12 2 6 2 18 0 25 -3 6 -5 1 -5 -13z"/>
<path d="M5023 1110 c0 -25 2 -35 4 -22 2 12 2 32 0 45 -2 12 -4 2 -4 -23z"/>
<path d="M5060 1140 c0 -5 5 -10 10 -10 6 0 10 5 10 10 0 6 -4 10 -10 10 -5 0
-10 -4 -10 -10z"/>
<path d="M4864 1025 c0 -49 1 -71 3 -48 2 23 2 64 0 90 -2 26 -3 8 -3 -42z"/>
<path d="M4928 1083 c6 -2 18 -2 25 0 6 3 1 5 -13 5 -14 0 -19 -2 -12 -5z"/>
<path d="M4971 1064 c0 -11 3 -14 6 -6 3 7 2 16 -1 19 -3 4 -6 -2 -5 -13z"/>
<path d="M5000 1055 c0 -8 4 -15 10 -15 5 0 7 7 4 15 -4 8 -8 15 -10 15 -2 0
-4 -7 -4 -15z"/>
<path d="M3922 1015 c0 -16 2 -22 5 -12 2 9 2 23 0 30 -3 6 -5 -1 -5 -18z"/>
<path d="M4031 1024 c0 -11 3 -14 6 -6 3 7 2 16 -1 19 -3 4 -6 -2 -5 -13z"/>
<path d="M5490 1036 c0 -2 8 -10 18 -17 15 -13 16 -12 3 4 -13 16 -21 21 -21
13z"/>
<path d="M4983 1017 c0 -8 6 -14 14 -14 9 0 10 4 2 14 -6 7 -12 13 -14 13 -1
0 -2 -6 -2 -13z"/>
<path d="M5447 1021 c4 -4 21 -17 38 -31 16 -14 23 -17 16 -7 -7 9 -10 17 -5
17 17 0 -17 24 -36 25 -11 1 -17 -1 -13 -4z"/>
<path d="M4160 1016 c0 -2 8 -10 18 -17 15 -13 16 -12 3 4 -13 16 -21 21 -21
13z"/>
<path d="M4315 981 c3 -5 1 -12 -5 -16 -6 -4 -8 -11 -4 -16 3 -5 10 -6 16 -3
7 4 8 2 4 -4 -3 -6 3 -16 14 -22 11 -6 20 -7 21 -3 0 4 4 -1 8 -11 4 -11 15
-20 24 -22 11 -1 1 16 -29 52 -42 49 -65 69 -49 45z"/>
<path d="M4731 925 l2 -70 7 60 c4 33 3 64 -2 70 -4 5 -7 -22 -7 -60z"/>
<path d="M4190 976 c0 -2 8 -10 18 -17 15 -13 16 -12 3 4 -13 16 -21 21 -21
13z"/>
<path d="M5605 940 c10 -11 20 -20 23 -20 3 0 -3 9 -13 20 -10 11 -20 20 -23
20 -3 0 3 -9 13 -20z"/>
<path d="M4174 942 c4 -3 14 -7 22 -8 9 -1 13 0 10 4 -4 3 -14 7 -22 8 -9 1
-13 0 -10 -4z"/>
<path d="M5585 930 c10 -11 20 -20 23 -20 3 0 -3 9 -13 20 -10 11 -20 20 -23
20 -3 0 3 -9 13 -20z"/>
<path d="M4240 913 c13 -18 25 -33 27 -33 8 0 -17 38 -33 51 -11 9 -9 2 6 -18z"/>
<path d="M3914 906 c-3 -8 -4 -29 -2 -48 3 -29 4 -27 8 15 5 48 3 58 -6 33z"/>
<path d="M4032 900 c0 -14 2 -19 5 -12 2 6 2 18 0 25 -3 6 -5 1 -5 -13z"/>
<path d="M5652 873 c11 -23 18 -51 15 -72 -3 -28 -1 -30 9 -16 14 18 5 62 -21
101 -23 36 -25 29 -3 -13z"/>
<path d="M5813 870 c0 -25 2 -35 4 -22 2 12 2 32 0 45 -2 12 -4 2 -4 -23z"/>
<path d="M5125 869 c-4 -6 -5 -12 -2 -15 2 -3 7 2 10 11 7 17 1 20 -8 4z"/>
<path d="M4407 856 c-7 -18 1 -26 27 -26 12 0 17 -4 11 -8 -20 -14 -13 -28 13
-28 17 1 26 -4 24 -12 -1 -8 2 -11 7 -8 5 4 11 2 13 -3 1 -4 14 -12 28 -16 22
-7 21 -4 -10 21 -19 16 -43 39 -54 52 -13 16 -24 21 -39 16 -19 -6 -20 -5 -8
10 7 9 9 16 3 16 -5 0 -12 -6 -15 -14z"/>
<path d="M5300 772 c0 -82 3 -100 14 -96 8 3 12 16 10 36 -4 31 -4 31 15 12
10 -10 14 -22 9 -25 -5 -3 10 -14 34 -25 58 -26 189 -26 238 0 40 22 53 33 68
63 11 19 10 21 -8 18 -11 -2 -34 -18 -51 -34 -41 -42 -99 -56 -165 -42 -57 13
-110 57 -121 100 l-7 26 -8 -30 c-6 -24 -7 -22 -4 13 3 27 0 42 -7 42 -8 0 -8
3 1 9 10 6 10 10 -3 21 -13 11 -15 1 -15 -88z"/>
<path d="M4731 830 c-1 -14 -8 -37 -15 -52 -8 -16 -12 -28 -8 -28 11 0 38 20
28 20 -5 0 -4 6 2 13 7 9 8 23 3 43 -9 28 -9 28 -10 4z"/>
<path d="M4257 830 c7 -8 20 -15 29 -16 9 -1 13 1 9 4 -4 4 -10 7 -13 7 -4 0
-14 4 -22 9 -12 7 -13 6 -3 -4z"/>
<path d="M5093 809 c-15 -15 -40 -23 -94 -29 -65 -6 -58 -15 11 -12 95 4 93 3
89 28 0 4 5 10 12 15 8 4 11 10 8 13 -3 3 -14 -4 -26 -15z"/>
<path d="M3911 803 c-1 -12 -8 -29 -17 -37 -14 -14 -14 -16 0 -16 21 0 35 31
25 55 -7 19 -8 19 -8 -2z"/>
<path d="M5780 820 c-1 -3 -3 -15 -6 -27 -3 -17 0 -20 16 -16 11 3 20 13 20
22 0 13 -2 13 -9 2 -7 -11 -10 -10 -14 5 -2 10 -6 17 -7 14z"/>
<path d="M4870 801 c0 -6 5 -11 11 -11 5 0 8 -4 5 -9 -4 -5 4 -7 16 -3 16 4
18 7 8 10 -8 3 -21 9 -27 15 -9 6 -13 6 -13 -2z"/>
<path d="M5152 790 c0 -14 2 -19 5 -12 2 6 2 18 0 25 -3 6 -5 1 -5 -13z"/>
<path d="M4310 765 c13 -14 26 -25 28 -25 3 0 -5 11 -18 25 -13 14 -26 25 -28
25 -3 0 5 -11 18 -25z"/>
<path d="M5710 692 c0 -5 7 -9 15 -9 8 0 12 4 9 9 -3 4 -9 8 -15 8 -5 0 -9 -4
-9 -8z"/>
<path d="M5694 652 c-27 -22 -25 -47 4 -48 12 -1 20 1 17 4 -2 3 3 11 13 19
15 13 14 14 -13 8 -29 -6 -29 -6 -11 14 23 25 18 27 -10 3z"/>
<path d="M5339 612 c9 -7 10 -11 2 -15 -7 -4 -8 -5 0 -3 15 2 13 20 -3 24 -10
3 -10 2 1 -6z"/>
<path d="M5458 593 c18 -2 45 -2 60 0 15 2 0 4 -33 4 -33 0 -45 -2 -27 -4z"/>
<path d="M5438 573 c6 -2 18 -2 25 0 6 3 1 5 -13 5 -14 0 -19 -2 -12 -5z"/>
<path d="M5518 573 c7 -3 16 -2 19 1 4 3 -2 6 -13 5 -11 0 -14 -3 -6 -6z"/>
<path d="M898 1512 c-248 -2 -291 -7 -256 -28 7 -4 8 -3 4 4 -5 8 1 12 16 12
42 0 91 -19 119 -46 l28 -27 32 28 c33 27 34 27 164 24 101 -3 136 -1 148 10
15 12 17 11 17 -10 0 -13 -3 -41 -6 -62 -6 -35 -7 -36 -18 -16 -6 12 -18 25
-26 27 -12 4 -12 2 2 -14 9 -10 18 -30 20 -43 1 -14 8 -26 15 -28 7 -3 14 19
18 64 11 104 11 106 0 107 -5 1 -130 0 -277 -2z"/>
<path d="M665 1470 c-3 -5 -1 -10 4 -10 6 0 11 5 11 10 0 6 -2 10 -4 10 -3 0
-8 -4 -11 -10z"/>
<path d="M704 1472 c3 -6 3 -12 -1 -15 -5 -2 -2 -2 6 0 27 7 31 -21 29 -192
l-2 -170 -6 150 -6 150 -2 -142 c-1 -83 -6 -144 -12 -148 -16 -10 0 -27 18
-20 13 5 14 -16 9 -191 -6 -214 -13 -239 -64 -247 l-28 -4 30 -1 c39 -2 77 17
92 47 9 20 8 29 -5 50 -9 14 -12 22 -6 18 19 -11 25 35 8 54 -10 11 -11 18 -5
20 6 2 13 15 16 27 3 20 2 22 -10 12 -18 -15 -20 1 -2 19 10 11 9 12 -1 6 -10
-5 -13 -2 -10 11 2 11 10 19 17 19 8 0 16 7 18 15 3 9 1 11 -4 5 -19 -23 -33
-14 -33 19 0 31 3 34 23 30 16 -2 24 1 24 11 0 8 -6 15 -14 15 -7 0 -13 7 -13
15 0 8 -5 15 -11 15 -6 0 -1 9 12 21 18 16 20 19 6 15 -11 -3 -16 -2 -12 4 3
6 12 10 18 10 8 0 13 19 14 53 1 28 4 96 7 151 6 107 -2 136 -37 136 -18 0
-19 2 -7 11 13 9 13 10 0 7 -8 -1 -26 4 -39 11 -13 7 -21 8 -17 3z"/>
<path d="M884 1438 c-4 -6 -7 -78 -5 -159 1 -126 -1 -148 -14 -153 -38 -14 3
-26 89 -26 84 0 95 2 107 21 12 18 14 12 13 -53 -1 -40 0 -57 3 -38 3 19 10
38 16 42 9 6 8 8 -1 8 -10 0 -12 8 -7 30 9 41 0 51 -33 34 -15 -8 -56 -14 -94
-14 l-68 0 0 154 c0 114 3 156 13 159 9 4 9 6 0 6 -6 1 -15 -4 -19 -11z"/>
<path d="M691 1424 c0 -11 3 -14 6 -6 3 7 2 16 -1 19 -3 4 -6 -2 -5 -13z"/>
<path d="M711 1424 c0 -11 3 -14 6 -6 3 7 2 16 -1 19 -3 4 -6 -2 -5 -13z"/>
<path d="M928 1423 c12 -2 32 -2 45 0 12 2 2 4 -23 4 -25 0 -35 -2 -22 -4z"/>
<path d="M1192 1410 c0 -14 2 -19 5 -12 2 6 2 18 0 25 -3 6 -5 1 -5 -13z"/>
<path d="M1078 1413 c7 -3 16 -2 19 1 4 3 -2 6 -13 5 -11 0 -14 -3 -6 -6z"/>
<path d="M943 1403 c9 -2 23 -2 30 0 6 3 -1 5 -18 5 -16 0 -22 -2 -12 -5z"/>
<path d="M2123 1238 c-6 -7 -16 -24 -22 -38 l-12 -25 18 23 19 23 12 -88 c6
-48 17 -137 24 -198 7 -60 14 -100 16 -88 2 12 -1 55 -7 95 -7 48 -7 74 0 76
6 3 6 8 1 15 -11 13 -25 121 -25 180 1 38 -7 46 -24 25z"/>
<path d="M1576 1213 c-9 -31 -28 -239 -24 -259 2 -10 9 37 17 106 7 69 16 129
20 133 5 5 52 -75 106 -177 53 -102 99 -186 101 -186 6 0 -9 31 -106 217 -52
101 -98 183 -102 183 -4 0 -9 -8 -12 -17z"/>
<path d="M2113 1145 c0 -22 2 -30 4 -17 2 12 2 30 0 40 -3 9 -5 -1 -4 -23z"/>
<path d="M1593 1132 c-1 -37 -1 -37 8 -7 4 16 5 33 1 37 -4 4 -8 -10 -9 -30z"/>
<path d="M1620 1110 c6 -11 13 -20 16 -20 2 0 0 9 -6 20 -6 11 -13 20 -16 20
-2 0 0 -9 6 -20z"/>
<path d="M2123 1055 c0 -22 2 -30 4 -17 2 12 2 30 0 40 -3 9 -5 -1 -4 -23z"/>
<path d="M2102 1050 c0 -19 2 -27 5 -17 2 9 2 25 0 35 -3 9 -5 1 -5 -18z"/>
<path d="M775 1060 c-3 -5 -1 -10 5 -10 6 0 8 -5 4 -12 -4 -7 -3 -8 5 -4 6 4
9 11 6 16 -3 4 1 11 7 13 8 4 7 6 -4 6 -9 1 -20 -3 -23 -9z"/>
<path d="M884 1057 c-3 -8 -4 -47 -2 -88 l3 -74 5 88 c5 87 4 99 -6 74z"/>
<path d="M1582 1040 c0 -14 2 -19 5 -12 2 6 2 18 0 25 -3 6 -5 1 -5 -13z"/>
<path d="M1092 1000 c0 -19 2 -27 5 -17 2 9 2 25 0 35 -3 9 -5 1 -5 -18z"/>
<path d="M2133 970 c0 -25 2 -35 4 -22 2 12 2 32 0 45 -2 12 -4 2 -4 -23z"/>
<path d="M765 977 c-4 -10 -5 -21 -1 -24 3 -4 6 -1 6 6 0 7 4 10 9 6 5 -3 13
0 17 6 4 7 3 9 -4 5 -5 -3 -12 0 -15 6 -3 9 -7 7 -12 -5z"/>
<path d="M2112 955 c0 -16 2 -22 5 -12 2 9 2 23 0 30 -3 6 -5 -1 -5 -18z"/>
<path d="M1572 945 c0 -16 2 -22 5 -12 2 9 2 23 0 30 -3 6 -5 -1 -5 -18z"/>
<path d="M1543 895 c0 -22 2 -30 4 -17 2 12 2 30 0 40 -3 9 -5 -1 -4 -23z"/>
<path d="M1915 840 c-25 -49 -43 -90 -40 -90 3 0 25 41 50 90 25 50 43 90 40
90 -3 0 -25 -40 -50 -90z"/>
<path d="M887 811 c4 -57 2 -86 -7 -96 -26 -31 36 -54 145 -55 113 0 130 6
153 59 l21 46 -3 -60 c-4 -61 -1 -53 13 43 9 59 -3 69 -24 19 -25 -60 -47 -72
-149 -75 -123 -5 -135 4 -137 105 -1 39 -5 77 -9 84 -4 6 -5 -25 -3 -70z"/>
<path d="M2302 870 c0 -14 2 -19 5 -12 2 6 2 18 0 25 -3 6 -5 1 -5 -13z"/>
<path d="M1562 860 c0 -14 2 -19 5 -12 2 6 2 18 0 25 -3 6 -5 1 -5 -13z"/>
<path d="M1533 815 c0 -22 2 -30 4 -17 2 12 2 30 0 40 -3 9 -5 -1 -4 -23z"/>
<path d="M2312 820 c0 -14 2 -19 5 -12 2 6 2 18 0 25 -3 6 -5 1 -5 -13z"/>
<path d="M1822 775 c12 -24 23 -43 26 -41 4 5 -36 86 -43 86 -3 0 5 -20 17
-45z"/>
<path d="M2181 800 c0 -15 -6 -31 -13 -38 -7 -7 -8 -12 -2 -12 21 1 30 16 23
45 -6 28 -7 28 -8 5z"/>
<path d="M2320 784 c0 -18 27 -36 47 -31 14 4 14 5 -4 6 -12 0 -27 9 -32 19
-6 9 -11 12 -11 6z"/>
<path d="M1548 753 c7 -3 16 -2 19 1 4 3 -2 6 -13 5 -11 0 -14 -3 -6 -6z"/>
<path d="M1588 743 c7 -3 16 -2 19 1 4 3 -2 6 -13 5 -11 0 -14 -3 -6 -6z"/>
<path d="M1878 732 c-17 -20 -21 -49 -5 -33 7 7 12 17 12 24 0 7 5 12 12 12 6
0 14 3 17 6 3 3 -1 6 -9 6 -8 0 -21 -7 -27 -15z"/>
<path d="M2398 743 c6 -2 18 -2 25 0 6 3 1 5 -13 5 -14 0 -19 -2 -12 -5z"/>
<path d="M1221 724 c0 -11 3 -14 6 -6 3 7 2 16 -1 19 -3 4 -6 -2 -5 -13z"/>
<path d="M1212 650 c0 -14 2 -19 5 -12 2 6 2 18 0 25 -3 6 -5 1 -5 -13z"/>
<path d="M1108 273 c7 -3 16 -2 19 1 4 3 -2 6 -13 5 -11 0 -14 -3 -6 -6z"/>
<path d="M1105 255 c-5 -2 -27 -6 -47 -10 l-38 -6 0 -92 c0 -63 -3 -87 -10
-77 -8 12 -10 10 -10 -8 0 -13 4 -20 10 -17 5 3 7 0 4 -8 -3 -10 4 -14 27 -14
26 0 29 2 16 12 -12 8 -16 32 -18 97 -1 47 1 90 5 97 4 6 19 11 34 11 15 0 34
5 42 10 14 9 6 12 -15 5z"/>
<path d="M3980 250 c-9 -6 -10 -10 -3 -10 6 0 15 5 18 10 8 12 4 12 -15 0z"/>
<path d="M4920 249 c0 -5 11 -9 25 -9 14 0 25 2 25 4 0 2 -11 6 -25 8 -14 3
-25 1 -25 -3z"/>
<path d="M1208 241 c21 -13 -15 -23 -38 -11 -10 6 -27 10 -37 9 -13 0 -12 -3
7 -10 40 -16 70 -50 65 -73 -2 -12 -7 -38 -10 -59 -4 -25 -10 -35 -18 -31 -7
4 -9 4 -5 -1 4 -4 3 -14 -3 -22 -8 -9 -8 -13 0 -13 19 0 44 50 44 90 0 22 4
37 8 34 15 -9 10 20 -8 45 -9 14 -11 21 -5 17 7 -4 12 -2 12 5 0 8 4 8 15 -1
8 -7 15 -10 15 -7 0 10 -31 37 -43 37 -8 0 -8 -3 1 -9z"/>
<path d="M1849 242 c-13 -6 -17 -25 -18 -106 -1 -55 -5 -104 -8 -109 -3 -5 0
-8 8 -5 11 4 14 29 15 102 1 59 7 102 14 111 14 16 13 17 -11 7z"/>
<path d="M1348 130 c-4 -144 15 -141 22 3 4 79 2 107 -7 107 -8 0 -13 -34 -15
-110z"/>
<path d="M1591 233 c1 -5 1 -53 0 -108 -1 -74 -4 -96 -12 -85 -9 13 -10 13 -6
0 2 -8 10 -15 18 -15 11 0 15 24 19 108 4 82 2 107 -7 107 -7 0 -12 -3 -12 -7z"/>
<path d="M2359 203 c0 -21 -3 -71 -5 -111 -3 -49 -1 -71 6 -67 6 3 10 48 10
105 0 69 4 100 13 103 7 3 5 6 -5 6 -14 1 -18 -7 -19 -36z"/>
<path d="M2589 233 c-5 -84 -5 -213 2 -206 10 10 17 213 7 213 -5 0 -8 -3 -9
-7z"/>
<path d="M2808 131 c-2 -60 0 -107 5 -104 4 2 7 46 7 97 0 58 4 96 12 104 9 9
8 12 -4 12 -14 0 -17 -16 -20 -109z"/>
<path d="M2972 226 c10 -7 27 -38 39 -70 12 -31 24 -55 26 -52 2 2 -8 33 -23
70 -17 44 -32 66 -43 66 -14 -1 -14 -2 1 -14z"/>
<path d="M3130 229 c0 -5 -5 -7 -12 -3 -7 5 -8 3 -4 -5 5 -7 -2 -35 -14 -63
-12 -27 -19 -52 -17 -54 2 -3 15 21 27 53 13 32 28 64 33 71 6 8 6 12 -2 12
-6 0 -11 -5 -11 -11z"/>
<path d="M3261 138 c-1 -56 -5 -106 -8 -111 -3 -5 0 -8 8 -5 11 4 14 29 15
101 1 52 5 100 9 106 3 6 0 11 -8 11 -12 0 -15 -21 -16 -102z"/>
<path d="M3651 233 c5 -31 -3 -206 -9 -197 -5 9 -10 8 -19 -1 -10 -11 -8 -13
14 -12 l26 2 -1 94 c-1 57 3 99 9 108 9 10 8 13 -5 13 -9 0 -15 -3 -15 -7z"/>
<path d="M3891 128 c-1 -75 1 -110 8 -103 14 15 19 215 5 215 -8 0 -12 -36
-13 -112z"/>
<path d="M4026 227 c17 -8 40 -27 51 -42 20 -28 20 -28 26 -5 3 12 3 19 0 16
-4 -3 -16 3 -27 13 -12 11 -34 22 -51 26 l-30 6 31 -14z"/>
<path d="M4218 131 c-2 -60 0 -107 5 -104 4 2 7 46 7 97 0 58 4 96 12 104 9 9
8 12 -4 12 -14 0 -17 -16 -20 -109z"/>
<path d="M4352 228 c-14 -14 -16 -48 -2 -48 5 0 7 7 3 16 -4 11 1 22 12 30 10
8 14 14 9 14 -6 0 -15 -5 -22 -12z"/>
<path d="M4449 233 c-7 -79 -7 -215 0 -207 11 11 19 214 9 214 -5 0 -8 -3 -9
-7z"/>
<path d="M4671 138 c-1 -56 -4 -105 -7 -110 -3 -4 0 -8 5 -8 7 0 11 36 11 98
0 63 4 102 12 110 9 9 8 12 -4 12 -13 0 -16 -17 -17 -102z"/>
<path d="M4852 206 c-17 -19 -32 -33 -34 -31 -2 2 -2 -12 1 -33 l4 -37 14 44
c7 25 23 55 35 68 12 13 19 23 16 23 -3 0 -19 -15 -36 -34z"/>
<path d="M5017 205 c20 -20 38 -33 41 -31 6 7 -53 66 -66 66 -6 0 6 -16 25
-35z"/>
<path d="M5140 223 c0 -10 -3 -29 -6 -43 -4 -20 -3 -22 5 -10 10 13 11 13 12
0 1 -22 17 20 18 48 1 13 -5 22 -14 22 -8 0 -15 -8 -15 -17z"/>
<path d="M5180 218 c0 -18 4 -26 13 -23 7 3 46 -28 86 -69 68 -68 91 -82 91
-55 0 6 -4 8 -8 5 -11 -6 -64 48 -57 57 3 4 2 5 -2 2 -4 -3 -33 20 -65 52 -55
55 -58 56 -58 31z"/>
<path d="M1315 222 c6 -4 11 -20 11 -36 1 -27 0 -28 -32 -23 -27 5 -34 2 -34
-11 0 -15 2 -15 10 -2 7 11 10 4 10 -28 0 -41 1 -43 28 -39 26 4 27 5 29 75 1
61 -2 72 -15 72 -10 0 -13 -3 -7 -8z"/>
<path d="M2172 205 c0 -16 2 -22 5 -12 2 9 2 23 0 30 -3 6 -5 -1 -5 -18z"/>
<path d="M3235 220 c3 -5 8 -10 11 -10 2 0 4 5 4 10 0 6 -5 10 -11 10 -5 0 -7
-4 -4 -10z"/>
<path d="M1103 205 c0 -8 4 -12 9 -9 4 3 8 9 8 15 0 5 -4 9 -8 9 -5 0 -9 -7
-9 -15z"/>
<path d="M1400 216 c0 -2 7 -6 15 -10 8 -3 15 -1 15 4 0 6 -7 10 -15 10 -8 0
-15 -2 -15 -4z"/>
<path d="M1648 213 c7 -3 16 -2 19 1 4 3 -2 6 -13 5 -11 0 -14 -3 -6 -6z"/>
<path d="M1873 170 c0 -30 2 -43 4 -28 2 16 2 40 0 56 -2 15 -4 2 -4 -28z"/>
<path d="M2193 160 c0 -36 2 -50 4 -32 2 17 2 47 0 65 -2 17 -4 3 -4 -33z"/>
<path d="M2630 216 c0 -2 9 -6 20 -9 11 -3 18 -1 14 4 -5 9 -34 13 -34 5z"/>
<path d="M3310 216 c0 -2 7 -6 15 -10 8 -3 15 -1 15 4 0 6 -7 10 -15 10 -8 0
-15 -2 -15 -4z"/>
<path d="M3690 186 c0 -19 4 -37 8 -40 4 -2 6 10 4 29 -3 26 0 34 15 38 15 4
14 5 -4 6 -20 1 -23 -4 -23 -33z"/>
<path d="M4203 180 c0 -25 2 -35 4 -22 2 12 2 32 0 45 -2 12 -4 2 -4 -23z"/>
<path d="M4321 204 c0 -11 3 -14 6 -6 3 7 2 16 -1 19 -3 4 -6 -2 -5 -13z"/>
<path d="M4490 216 c0 -2 9 -6 20 -9 11 -3 18 -1 14 4 -5 9 -34 13 -34 5z"/>
<path d="M4713 165 c0 -33 2 -45 4 -27 2 18 2 45 0 60 -2 15 -4 0 -4 -33z"/>
<path d="M1130 206 c0 -2 7 -7 16 -10 8 -3 12 -2 9 4 -6 10 -25 14 -25 6z"/>
<path d="M1226 196 c7 -18 34 -22 34 -4 0 6 -3 8 -7 5 -3 -4 -12 -2 -20 5 -11
8 -12 7 -7 -6z"/>
<path d="M1551 188 c0 -18 -7 -28 -16 -28 -11 0 -15 -11 -15 -39 0 -38 2 -40
30 -39 28 1 30 4 30 40 0 21 -4 38 -9 38 -5 0 -12 12 -14 28 l-4 27 -2 -27z"/>
<path d="M1893 170 c0 -25 2 -35 4 -22 2 12 2 32 0 45 -2 12 -4 2 -4 -23z"/>
<path d="M2110 185 c13 -14 26 -25 28 -25 3 0 -5 11 -18 25 -13 14 -26 25 -28
25 -3 0 5 -11 18 -25z"/>
<path d="M2151 194 c0 -11 3 -14 6 -6 3 7 2 16 -1 19 -3 4 -6 -2 -5 -13z"/>
<path d="M2773 175 c0 -22 2 -30 4 -17 2 12 2 30 0 40 -3 9 -5 -1 -4 -23z"/>
<path d="M2793 175 c0 -22 2 -30 4 -17 2 12 2 30 0 40 -3 9 -5 -1 -4 -23z"/>
<path d="M4183 175 c0 -22 2 -30 4 -17 2 12 2 30 0 40 -3 9 -5 -1 -4 -23z"/>
<path d="M4733 165 c0 -27 2 -38 4 -22 2 15 2 37 0 50 -2 12 -4 0 -4 -28z"/>
<path d="M2501 184 c0 -11 3 -14 6 -6 3 7 2 16 -1 19 -3 4 -6 -2 -5 -13z"/>
<path d="M3754 185 c-18 -14 -18 -14 4 -8 12 3 22 9 22 14 0 12 -3 11 -26 -6z"/>
<path d="M5362 170 c0 -19 2 -27 5 -17 2 9 2 25 0 35 -3 9 -5 1 -5 -18z"/>
<path d="M1695 181 c-3 -5 0 -13 6 -17 7 -4 9 -3 5 4 -3 5 0 13 6 15 9 4 10 6
1 6 -6 1 -14 -3 -18 -8z"/>
<path d="M3136 175 c-9 -26 -7 -32 5 -12 6 10 9 21 6 23 -2 3 -7 -2 -11 -11z"/>
<path d="M1241 154 c0 -11 3 -14 6 -6 3 7 2 16 -1 19 -3 4 -6 -2 -5 -13z"/>
<path d="M2876 124 c-4 -20 -4 -49 -1 -65 5 -20 3 -29 -6 -29 -7 0 -4 -6 7
-15 10 -8 34 -15 52 -15 31 0 32 2 32 39 0 37 -2 40 -32 43 -31 3 -33 6 -33
41 0 47 -11 48 -19 1z"/>
<path d="M3200 119 l0 -41 -40 4 -40 4 0 -43 0 -43 40 0 40 0 0 40 c0 39 6 45
38 41 8 -1 12 12 12 41 0 31 -3 39 -10 28 -6 -10 -10 -11 -10 -2 0 6 -7 12
-15 12 -11 0 -15 -11 -15 -41z"/>
<path d="M4320 120 l0 -40 40 0 40 0 0 40 0 40 -40 0 -40 0 0 -40z"/>
<path d="M1400 146 c0 -2 7 -7 16 -10 8 -3 12 -2 9 4 -6 10 -25 14 -25 6z"/>
<path d="M1640 146 c0 -2 7 -7 16 -10 8 -3 12 -2 9 4 -6 10 -25 14 -25 6z"/>
<path d="M4782 130 c0 -14 2 -19 5 -12 2 6 2 18 0 25 -3 6 -5 1 -5 -13z"/>
<path d="M4802 130 c0 -14 2 -19 5 -12 2 6 2 18 0 25 -3 6 -5 1 -5 -13z"/>
<path d="M5031 125 c-3 -30 -3 -30 -12 -5 -6 18 -7 13 -3 -19 5 -34 3 -42 -6
-36 -9 6 -11 4 -5 -5 4 -7 2 -16 -6 -21 -10 -6 -10 -9 -2 -9 23 0 44 47 40 87
-3 34 -4 35 -6 8z"/>
<path d="M2950 115 c0 -14 2 -25 4 -25 2 0 6 11 8 25 3 14 1 25 -3 25 -5 0 -9
-11 -9 -25z"/>
<path d="M4070 105 c0 -26 -7 -43 -27 -62 -21 -19 -22 -23 -7 -15 11 6 26 17
32 25 18 21 26 73 13 81 -7 5 -11 -5 -11 -29z"/>
<path d="M4992 120 c0 -14 2 -19 5 -12 2 6 2 18 0 25 -3 6 -5 1 -5 -13z"/>
<path d="M4630 105 c0 -22 -4 -25 -35 -25 -34 0 -35 -1 -35 -40 0 -38 2 -40
31 -40 17 0 37 7 45 15 9 9 11 15 4 15 -7 0 -9 16 -4 50 4 28 4 50 0 50 -3 0
-6 -11 -6 -25z"/>
<path d="M4652 100 c0 -19 2 -27 5 -17 2 9 2 25 0 35 -3 9 -5 1 -5 -18z"/>
<path d="M1400 116 c0 -2 7 -7 16 -10 8 -3 12 -2 9 4 -6 10 -25 14 -25 6z"/>
<path d="M1640 116 c0 -2 7 -7 16 -10 8 -3 12 -2 9 4 -6 10 -25 14 -25 6z"/>
<path d="M2853 85 c0 -22 2 -30 4 -17 2 12 2 30 0 40 -3 9 -5 -1 -4 -23z"/>
<path d="M3327 100 c19 -22 33 -26 33 -9 0 5 -4 8 -9 5 -5 -3 -11 1 -15 9 -3
8 -10 15 -16 15 -5 0 -2 -9 7 -20z"/>
<path d="M4263 85 c0 -22 2 -30 4 -17 2 12 2 30 0 40 -3 9 -5 -1 -4 -23z"/>
<path d="M4282 90 c0 -19 2 -27 5 -17 2 9 2 25 0 35 -3 9 -5 1 -5 -18z"/>
<path d="M2061 88 c0 -13 3 -17 6 -10 4 10 16 4 42 -20 35 -32 35 -32 -4 10
-21 23 -40 42 -42 42 -2 0 -3 -10 -2 -22z"/>
<path d="M4493 75 c0 -22 2 -30 4 -17 2 12 2 30 0 40 -3 9 -5 -1 -4 -23z"/>
<path d="M4512 85 c0 -16 2 -22 5 -12 2 9 2 23 0 30 -3 6 -5 -1 -5 -18z"/>
<path d="M5176 95 c4 -8 8 -15 10 -15 2 0 4 7 4 15 0 8 -4 15 -10 15 -5 0 -7
-7 -4 -15z"/>
<path d="M1435 90 c-3 -5 -1 -10 4 -10 6 0 11 5 11 10 0 6 -2 10 -4 10 -3 0
-8 -4 -11 -10z"/>
<path d="M1675 90 c-3 -5 -1 -10 4 -10 6 0 11 5 11 10 0 6 -2 10 -4 10 -3 0
-8 -4 -11 -10z"/>
<path d="M2042 75 c0 -16 2 -22 5 -12 2 9 2 23 0 30 -3 6 -5 -1 -5 -18z"/>
<path d="M3065 88 c4 -11 2 -18 -4 -18 -6 0 -11 5 -11 12 0 6 -2 9 -5 6 -7 -7
5 -38 15 -38 14 0 21 33 10 44 -8 8 -9 6 -5 -6z"/>
<path d="M5271 63 c18 -18 35 -30 38 -28 2 3 16 -5 30 -17 14 -13 4 0 -22 28
-26 28 -55 51 -63 51 -10 0 -3 -12 17 -34z m19 2 c13 -14 21 -25 18 -25 -2 0
-15 11 -28 25 -13 14 -21 25 -18 25 2 0 15 -11 28 -25z"/>
<path d="M4850 82 c0 -19 46 -62 67 -61 15 0 15 2 -3 9 -12 4 -31 21 -42 37
-12 15 -22 22 -22 15z"/>
<path d="M5383 45 c0 -27 2 -38 4 -22 2 15 2 37 0 50 -2 12 -4 0 -4 -28z"/>
<path d="M982 60 c0 -14 2 -19 5 -12 2 6 2 18 0 25 -3 6 -5 1 -5 -13z"/>
<path d="M1226 63 c-6 -14 -5 -15 5 -6 7 7 10 15 7 18 -3 3 -9 -2 -12 -12z"/>
<path d="M3944 57 c3 -23 0 -27 -13 -22 -13 5 -14 4 -3 -6 18 -19 31 1 21 31
-8 24 -9 24 -5 -3z"/>
<path d="M3961 64 c0 -11 3 -14 6 -6 3 7 2 16 -1 19 -3 4 -6 -2 -5 -13z"/>
<path d="M3782 45 c0 -17 2 -22 5 -12 2 9 2 23 0 30 -3 6 -5 -1 -5 -18z"/>
<path d="M5402 40 c0 -19 2 -27 5 -17 2 9 2 25 0 35 -3 9 -5 1 -5 -18z"/>
<path d="M2403 46 c1 -11 9 -21 17 -23 10 -3 11 -2 4 4 -6 4 -14 15 -17 23 -5
11 -6 9 -4 -4z"/>
<path d="M1453 35 c0 -8 4 -15 9 -15 4 0 8 4 8 9 0 6 -4 12 -8 15 -5 3 -9 -1
-9 -9z"/>
<path d="M1482 30 c0 -14 2 -19 5 -12 2 6 2 18 0 25 -3 6 -5 1 -5 -13z"/>
<path d="M1640 42 c0 -4 9 -15 20 -25 11 -9 20 -13 20 -9 0 4 -9 15 -20 25
-11 9 -20 13 -20 9z"/>
<path d="M2642 34 c-10 -11 -10 -14 2 -14 8 0 17 -6 20 -12 2 -7 4 -3 2 9 -3
30 -8 34 -24 17z"/>
<path d="M3391 34 c0 -11 3 -14 6 -6 3 7 2 16 -1 19 -3 4 -6 -2 -5 -13z"/>
<path d="M4079 34 c-7 -8 -7 -14 1 -19 6 -4 9 -1 8 6 -2 7 2 13 9 14 17 0 25
12 8 12 -8 0 -20 -6 -26 -13z"/>
<path d="M5170 34 c0 -8 5 -12 10 -9 6 4 8 11 5 16 -9 14 -15 11 -15 -7z"/>
<path d="M1086 28 c3 -4 9 -8 15 -8 5 0 9 4 9 8 0 5 -7 9 -15 9 -8 0 -12 -4
-9 -9z"/>
<path d="M1380 30 c0 -5 5 -10 11 -10 5 0 7 5 4 10 -3 6 -8 10 -11 10 -2 0 -4
-4 -4 -10z"/>
<path d="M2033 26 c-3 -5 -1 -6 5 -2 6 3 17 -1 26 -9 13 -14 15 -13 13 3 -1
19 -34 25 -44 8z"/>
<path d="M2763 18 c-1 -11 1 -16 5 -12 4 5 11 12 15 15 5 3 2 9 -5 12 -9 3
-14 -3 -15 -15z"/>
<path d="M3290 30 c0 -6 7 -10 15 -10 8 0 15 2 15 4 0 2 -7 6 -15 10 -8 3 -15
1 -15 -4z"/>
<path d="M3680 30 c0 -6 7 -10 15 -10 8 0 15 2 15 4 0 2 -7 6 -15 10 -8 3 -15
1 -15 -4z"/>
<path d="M3970 28 c0 -4 4 -8 9 -8 6 0 12 4 15 8 3 5 -1 9 -9 9 -8 0 -15 -4
-15 -9z"/>
<path d="M4173 18 c-1 -11 1 -16 5 -12 4 5 11 12 15 15 5 3 2 9 -5 12 -9 3
-14 -3 -15 -15z"/>
<path d="M4403 19 c-2 -23 3 -25 10 -4 4 8 3 16 -1 19 -4 3 -9 -4 -9 -15z"/>
<path d="M4512 31 c-11 -7 -11 -9 0 -14 9 -3 15 1 15 9 0 8 -1 14 -1 14 -1 0
-7 -4 -14 -9z"/>
<path d="M1786 14 c-5 -14 -4 -15 9 -4 17 14 19 20 6 20 -5 0 -12 -7 -15 -16z"/>
<path d="M2315 20 c-3 -6 1 -7 9 -4 18 7 21 14 7 14 -6 0 -13 -4 -16 -10z"/>
<path d="M4271 27 c2 -1 13 -9 24 -17 19 -14 19 -14 6 3 -7 9 -18 17 -24 17
-6 0 -8 -1 -6 -3z"/>
<path d="M5135 20 c-3 -6 1 -7 9 -4 18 7 21 14 7 14 -6 0 -13 -4 -16 -10z"/>
<path d="M5232 16 c7 -8 15 -12 17 -11 5 6 -10 25 -20 25 -5 0 -4 -6 3 -14z"/>
</g>
</svg>
