<?xml version="1.0" standalone="no"?>
<!DOCTYPE svg PUBLIC "-//W3C//DTD SVG 20010904//EN"
 "http://www.w3.org/TR/2001/REC-SVG-20010904/DTD/svg10.dtd">
<svg version="1.0" xmlns="http://www.w3.org/2000/svg"
 width="728.000000pt" height="594.000000pt" viewBox="0 0 728.000000 594.000000"
 preserveAspectRatio="xMidYMid meet">

<g transform="translate(0.000000,594.000000) scale(0.100000,-0.100000)"
fill="#000000" stroke="none">
<path d="M3110 5010 c-268 -17 -529 -82 -678 -170 -18 -11 -42 -20 -53 -20
-11 0 -18 -4 -14 -10 3 -5 -6 -28 -20 -50 -14 -22 -32 -73 -41 -113 -8 -40
-19 -92 -24 -117 -17 -86 -73 -306 -105 -420 -18 -63 -44 -164 -58 -225 -14
-60 -38 -162 -55 -225 -16 -63 -37 -151 -47 -195 -44 -207 -99 -277 -227 -292
-32 -4 -45 -9 -36 -14 7 -5 -49 -10 -132 -11 -128 -1 -135 -2 -65 -8 l80 -6
-93 -2 c-53 -1 -102 3 -114 9 -15 8 -19 8 -14 0 5 -7 -9 -11 -43 -11 -27 0
-52 -3 -54 -7 -3 -5 430 -6 961 -3 532 2 911 7 842 10 l-125 6 128 2 c126 2
127 2 127 -21 l0 -22 -942 -1 c-519 -1 -957 -4 -973 -8 -41 -9 -63 -43 -40
-60 15 -10 15 -20 6 -72 -13 -68 -44 -102 -124 -131 -26 -9 -47 -21 -47 -25 0
-4 -16 -8 -35 -8 -19 0 -35 -3 -35 -7 0 -5 132 -6 292 -3 161 3 297 2 302 -2
13 -10 -4 -200 -18 -195 -6 2 -10 12 -8 22 5 24 -16 72 -34 79 -12 5 -12 2 0
-17 19 -30 29 -67 19 -67 -5 0 -13 15 -18 32 -14 45 -45 58 -142 58 l-83 0 0
-140 0 -140 67 0 c48 0 72 5 85 17 16 14 20 15 32 2 17 -18 9 -89 -10 -89 -8
0 -14 -5 -14 -11 0 -6 7 -8 16 -5 13 5 15 -2 8 -52 -3 -31 -7 -58 -8 -59 -8
-10 -46 33 -46 52 0 33 -36 55 -87 55 l-43 0 5 -157 c4 -124 8 -160 20 -172
12 -12 38 -16 104 -16 97 0 123 12 136 62 5 23 40 62 56 63 3 0 0 -44 -7 -97
-7 -54 -13 -104 -14 -110 0 -10 -66 -13 -295 -12 l-295 1 18 23 c9 14 26 25
37 25 46 1 48 8 57 216 5 109 11 200 13 203 10 9 5 -345 -5 -381 -9 -30 -17
-40 -43 -47 -26 -7 -28 -9 -9 -10 42 -2 104 41 95 65 -4 12 -8 11 -20 -3 -14
-17 -14 -17 -9 1 4 10 6 79 7 153 0 74 4 145 9 159 7 17 6 24 -3 24 -6 1 -1
10 13 22 16 14 19 19 8 15 -21 -8 -24 8 -4 16 11 4 14 22 13 71 -1 36 1 66 4
66 3 0 4 11 2 24 -3 13 0 27 6 30 6 4 11 12 11 17 0 6 -4 8 -8 5 -4 -2 -7 22
-6 55 2 48 -1 59 -14 59 -9 0 -27 10 -40 23 l-25 22 12 -22 c6 -12 10 -52 9
-90 l-1 -68 -6 73 c-5 61 -10 76 -30 91 -13 10 -33 16 -46 13 -12 -2 -26 1
-29 7 -15 24 -36 8 -54 -41 -11 -29 -30 -125 -43 -213 -42 -284 -30 -637 25
-744 23 -43 124 -141 146 -141 5 0 10 -4 10 -9 0 -5 8 -11 17 -15 26 -9 116
-68 141 -91 11 -11 34 -61 50 -110 16 -50 36 -104 45 -120 35 -69 92 -94 217
-95 36 -1 85 -5 110 -11 41 -9 92 -15 330 -34 41 -4 109 -16 150 -27 249 -66
430 -102 600 -118 67 -7 407 -13 810 -15 770 -3 846 1 1065 56 66 17 140 35
165 39 25 4 79 17 120 29 41 11 90 21 108 21 18 0 41 4 50 9 9 5 60 11 112 15
52 3 127 13 165 22 39 8 90 17 115 19 137 13 169 18 205 34 58 26 70 44 106
166 18 61 39 117 46 126 14 16 131 88 202 124 53 26 168 150 200 213 65 131
72 258 26 482 -8 41 -20 111 -25 155 -24 192 -44 248 -110 308 -39 37 -67 52
-152 82 -54 19 -74 48 -84 126 -6 41 -4 49 10 49 9 0 16 4 16 8 0 22 -30 42
-75 49 -27 4 -465 8 -972 8 l-923 -1 0 23 c0 21 4 23 53 21 l52 -1 -50 -7
c-27 -4 385 -9 918 -11 532 -2 967 -1 967 4 0 4 -21 7 -47 7 -27 0 -435 1
-908 2 l-860 3 825 5 c454 3 763 6 688 8 -76 1 -138 6 -138 11 0 4 -17 11 -38
13 -50 7 -131 45 -154 72 -46 53 -81 146 -93 246 -3 30 -13 100 -20 155 -18
128 -33 281 -41 420 -8 143 -28 276 -52 345 -31 86 -160 343 -193 383 -59 72
-266 152 -499 194 -142 25 -156 25 -670 28 -289 1 -581 -1 -650 -5z m1760
-233 c0 -2 -15 -16 -32 -33 l-33 -29 29 33 c28 30 36 37 36 29z m-2430 -32
c13 -14 21 -25 18 -25 -2 0 -15 11 -28 25 -13 14 -21 25 -18 25 2 0 15 -11 28
-25z m880 -35 c-8 -5 -19 -10 -25 -10 -5 0 -3 5 5 10 8 5 20 10 25 10 6 0 3
-5 -5 -10z m-40 -15 c0 -2 -10 -9 -22 -15 -22 -11 -22 -10 -4 4 21 17 26 19
26 11z m110 -28 c0 -2 -10 -12 -22 -23 l-23 -19 19 23 c18 21 26 27 26 19z
m511 -14 c13 -16 12 -17 -3 -4 -10 7 -18 15 -18 17 0 8 8 3 21 -13z m499 -7
c0 -2 -8 -10 -17 -17 -16 -13 -17 -12 -4 4 13 16 21 21 21 13z m-40 -30 c0 -2
-8 -10 -17 -17 -16 -13 -17 -12 -4 4 13 16 21 21 21 13z m-1634 -163 c8 -21
19 -47 24 -58 10 -21 65 -156 170 -415 34 -85 68 -168 76 -185 7 -16 31 -69
52 -116 46 -101 70 -129 112 -129 28 0 70 -29 70 -49 0 -6 -81 -10 -190 -11
-104 0 -190 2 -190 6 0 4 11 17 24 29 l25 23 -57 146 -57 146 -97 0 c-79 0
-100 3 -114 18 -16 15 -17 15 -11 0 4 -12 0 -18 -16 -20 -17 -2 -29 -26 -69
-133 -26 -71 -47 -135 -48 -142 0 -6 15 -15 33 -18 26 -6 67 -34 67 -47 0 -2
-88 -4 -195 -5 -107 0 -195 2 -195 6 0 17 43 51 65 51 40 0 74 53 161 248 25
55 30 58 54 41 13 -9 13 -10 -1 -6 -13 4 -27 -18 -63 -96 -55 -120 -92 -177
-126 -194 -23 -12 -23 -13 -4 -13 11 0 42 11 70 25 44 22 51 31 72 84 13 34
20 66 16 72 -4 7 -3 9 3 6 6 -4 22 23 38 61 15 37 34 81 41 97 45 104 63 161
58 179 -4 15 -2 17 4 8 6 -9 15 1 30 39 12 28 19 55 16 60 -3 5 -1 9 4 9 5 0
17 18 27 40 10 22 24 45 31 51 7 6 10 17 8 24 -3 7 4 18 15 25 12 6 21 18 21
27 0 14 -2 14 -20 -2 -19 -18 -20 -17 -20 4 0 12 4 20 9 17 18 -11 39 21 44
69 l5 50 -19 -24 c-13 -16 -16 -27 -9 -31 7 -5 8 -15 1 -33 -13 -33 -25 -36
-17 -4 3 12 -15 -20 -40 -72 -24 -52 -42 -101 -40 -108 3 -8 2 -12 -3 -9 -13
8 -32 -44 -26 -68 4 -14 3 -17 -3 -8 -6 9 -27 -28 -67 -118 -32 -71 -62 -130
-66 -130 -11 0 -11 1 129 313 112 251 142 307 164 307 5 0 16 -17 24 -37z
m1314 -11 l95 -18 3 -33 c2 -22 0 -31 -7 -26 -6 3 -11 1 -11 -4 0 -6 5 -11 11
-11 12 0 8 -174 -4 -186 -13 -13 -44 18 -56 55 -16 57 -53 96 -119 128 -54 26
-65 28 -187 28 -118 0 -135 -2 -180 -24 -27 -14 -54 -27 -59 -29 -5 -3 -5 2
-1 9 5 8 4 11 -1 6 -5 -5 -9 -12 -9 -15 0 -4 -12 -23 -27 -43 -51 -66 -71
-126 -76 -230 -14 -295 150 -479 427 -479 127 0 123 -7 119 187 -2 130 -1 159
10 151 9 -8 11 -7 7 4 -4 9 -21 16 -43 17 -20 1 -43 3 -49 3 -7 1 -22 11 -33
24 l-21 22 118 6 c65 3 162 5 215 5 l98 -1 -21 -29 c-12 -18 -29 -29 -43 -29
-44 0 -48 -18 -47 -199 0 -121 -3 -172 -12 -179 -7 -6 -69 -24 -139 -42 -115
-28 -138 -31 -245 -27 -184 7 -300 49 -403 144 -95 87 -140 197 -140 340 0
250 152 437 395 488 88 18 301 12 435 -13z m934 -22 c0 -25 -4 -75 -8 -112
l-8 -67 -23 15 c-13 9 -25 28 -28 47 -7 44 -2 45 19 1 10 -20 20 -32 22 -25 3
8 0 16 -5 20 -6 3 -13 16 -17 28 -4 11 -14 24 -22 27 -10 4 -13 2 -8 -6 5 -8
2 -9 -12 -2 -10 4 -65 10 -121 12 l-103 3 0 -156 0 -157 73 7 c39 4 83 14 96
22 38 25 44 6 36 -116 -4 -61 -10 -111 -14 -111 -4 0 -15 6 -24 13 -19 14 -37
85 -19 73 7 -4 12 -3 12 3 0 5 -8 10 -17 11 -10 0 -47 3 -82 6 l-64 6 7 -169
c8 -206 6 -203 133 -203 101 0 136 15 153 65 6 19 25 44 41 56 l30 21 -5 -24
c-3 -12 -10 -64 -17 -115 -10 -80 -14 -92 -33 -96 -32 -6 -626 -9 -626 -3 0
19 47 56 72 56 22 0 31 6 39 28 16 41 25 771 10 800 -9 17 -21 22 -48 22 -34
0 -83 30 -83 51 0 4 136 8 302 9 166 0 304 3 307 6 3 2 12 3 21 2 11 -3 15
-16 14 -48z m-2344 -151 c0 -6 -4 -7 -10 -4 -5 3 -10 11 -10 16 0 6 5 7 10 4
6 -3 10 -11 10 -16z m955 -1019 c-3 -5 -1 -10 4 -10 6 0 23 -14 38 -30 14 -17
29 -28 31 -25 3 3 -3 14 -13 25 -10 11 -15 23 -12 26 12 13 47 -62 47 -101 0
-62 -29 -107 -84 -129 -41 -18 -52 -19 -93 -8 -50 14 -89 48 -99 88 -16 64 17
142 71 164 29 13 118 12 110 0z m295 -22 c-1 -30 -2 -31 -14 -15 -8 10 -26 17
-45 17 -30 0 -31 -2 -29 -33 1 -18 -1 -38 -5 -43 -4 -8 6 -9 33 -4 46 8 54 2
41 -32 -6 -12 -10 -17 -10 -10 -1 7 -14 12 -31 12 -29 0 -30 -2 -30 -42 0 -47
7 -62 30 -71 8 -3 -12 -5 -45 -5 -33 0 -54 2 -47 5 8 3 12 34 12 106 0 70 3
97 10 87 8 -12 10 -12 10 -1 0 7 -12 24 -27 37 l-28 24 88 0 87 0 0 -32z
m-1642 -95 c-109 -2 -287 -2 -395 0 -109 1 -20 2 197 2 217 0 306 -1 198 -2z
m335 0 c-24 -2 -62 -2 -85 0 -24 2 -5 4 42 4 47 0 66 -2 43 -4z m330 0 c-51
-2 -135 -2 -185 0 -51 1 -10 3 92 3 102 0 143 -2 93 -3z m3217 -344 c36 -5 69
-14 73 -18 4 -4 5 -56 1 -115 l-7 -107 -20 20 c-12 11 -30 39 -41 63 -26 53
-59 76 -117 84 -112 15 -183 -83 -123 -170 7 -11 62 -58 121 -105 117 -94 210
-201 175 -201 -5 0 -14 11 -20 24 -18 40 -79 102 -157 161 -40 30 -89 70 -108
89 -34 33 -40 44 -51 106 -2 14 -3 5 -1 -20 2 -25 6 -58 9 -75 4 -16 8 -39 9
-50 3 -28 58 -87 74 -80 8 2 12 1 9 -3 -4 -8 136 -132 149 -132 11 0 84 -52
88 -63 2 -7 2 -2 0 11 -4 25 12 30 21 6 10 -26 7 -142 -4 -149 -6 -4 -7 1 -3
11 4 11 2 15 -4 11 -6 -4 -13 -18 -15 -31 -4 -18 -1 -23 10 -19 11 5 11 1 -3
-20 -9 -15 -21 -24 -27 -21 -5 3 -8 -2 -6 -12 2 -11 -3 -19 -12 -20 -31 -2
-35 -5 -21 -13 9 -6 -6 -18 -54 -42 -62 -30 -75 -33 -164 -33 -98 0 -198 23
-207 48 -2 6 0 62 4 124 l7 114 28 -22 c17 -14 27 -31 27 -48 0 -74 68 -132
153 -132 120 0 178 85 127 185 -24 48 -25 51 -2 34 15 -13 16 -12 3 4 -8 9
-16 15 -19 12 -8 -7 -33 16 -27 25 3 5 0 12 -6 16 -8 4 -9 3 -5 -4 13 -22 -4
-12 -67 37 -122 97 -196 195 -197 259 0 26 21 52 42 52 10 0 10 2 -1 9 -9 6
-10 11 -2 15 6 4 9 12 6 17 -3 5 0 7 7 4 8 -3 21 10 33 32 11 20 37 50 58 67
33 27 49 32 115 37 43 3 82 3 87 0 37 -21 74 -27 95 -16 37 20 7 28 -121 32
-64 1 -121 3 -126 4 -4 0 1 4 12 9 28 12 118 12 195 -1z m-3925 -284 c76 -148
141 -273 144 -277 4 -4 68 116 144 268 101 202 144 277 160 283 29 11 32 4 47
-99 6 -47 14 -93 17 -102 2 -10 0 -18 -5 -18 -5 0 -17 39 -25 88 -12 61 -14
69 -10 27 4 -33 7 -77 7 -97 1 -21 4 -38 9 -38 4 0 7 -10 8 -22 1 -22 1 -22 8
2 7 23 8 23 14 5 3 -11 16 -83 27 -160 30 -200 49 -297 61 -311 5 -6 24 -14
41 -18 33 -6 68 -32 68 -49 0 -9 -308 -3 -317 7 -2 1 2 17 8 35 9 26 8 69 -6
194 -27 257 -14 257 -146 -3 -131 -259 -140 -267 -184 -181 -14 28 -25 56 -25
63 1 7 10 -4 21 -24 11 -21 22 -38 24 -38 3 0 -6 23 -20 50 -14 28 -28 50 -31
50 -3 0 -2 -4 1 -10 3 -5 2 -10 -2 -10 -5 0 -30 42 -57 93 -79 148 -118 218
-121 215 -3 -3 -45 -357 -45 -377 0 -5 15 -13 33 -16 17 -4 40 -16 50 -26 17
-19 14 -19 -144 -19 -161 0 -162 0 -144 20 10 11 26 20 36 20 10 0 23 8 28 19
6 10 39 173 73 362 48 265 67 348 81 362 11 11 22 15 27 11 4 -5 69 -130 145
-279z m3670 253 c-75 -38 -125 -100 -125 -153 0 -14 -4 -25 -10 -25 -31 0 18
117 62 149 37 28 82 51 98 51 8 -1 -3 -10 -25 -22z m-2393 -30 c104 -62 119
-215 30 -318 -43 -51 -95 -78 -167 -86 -48 -6 -58 -4 -71 12 -13 17 -14 4 -8
-131 3 -82 8 -153 10 -156 2 -4 19 -10 38 -13 34 -7 74 -40 59 -49 -13 -8
-373 -6 -373 3 0 10 31 34 62 47 23 10 27 18 30 70 8 96 9 569 2 586 -3 10
-17 17 -32 17 -23 0 -72 34 -72 49 0 3 100 4 222 1 221 -5 223 -5 270 -32z
m2072 34 c5 -9 -11 -162 -19 -170 -7 -8 -45 29 -39 39 2 5 -4 17 -16 29 -16
16 -33 20 -94 20 l-75 0 -3 -52 c-2 -29 -2 -83 0 -120 l4 -68 51 0 c32 0 57 6
68 16 33 30 42 8 35 -89 -3 -50 -8 -92 -10 -94 -11 -11 -46 20 -46 40 0 33
-19 47 -62 47 l-38 0 0 -133 c0 -90 4 -137 12 -145 7 -7 43 -12 90 -12 65 0
81 3 98 20 11 11 20 25 20 32 0 13 39 58 50 58 6 0 0 -60 -16 -157 l-5 -33
-256 0 c-255 0 -256 0 -238 20 10 11 26 20 35 20 10 0 23 6 29 14 14 16 28
413 21 559 -5 103 -12 117 -56 117 -11 0 -29 9 -39 20 -18 20 -16 20 216 23
129 1 244 3 256 5 12 1 24 -1 27 -6z m-1494 -22 c-6 -11 -25 -23 -43 -28 l-32
-8 -1 -280 c0 -153 1 -302 4 -330 l4 -52 42 -6 c38 -6 77 -39 62 -53 -2 -3
-88 -2 -191 2 -176 7 -185 9 -170 25 9 10 29 20 44 23 38 8 41 35 42 297 0
123 4 212 9 215 6 4 10 -10 11 -32 0 -24 3 -32 7 -21 12 29 -2 206 -17 220
-11 11 -12 10 -2 -9 14 -27 15 -155 1 -133 -5 8 -10 40 -10 71 0 60 -11 79
-47 79 -12 0 -27 9 -33 20 -11 20 -8 20 160 20 167 0 170 0 160 -20z m615 9
c55 -15 101 -52 126 -102 41 -79 16 -175 -69 -269 l-34 -38 80 -92 c102 -119
191 -204 220 -213 12 -3 27 -15 33 -27 10 -19 9 -20 -93 -16 -97 3 -107 5
-141 31 -21 16 -78 82 -127 148 l-91 119 -46 0 -46 0 7 -121 c5 -76 4 -124 -2
-128 -6 -3 10 -6 35 -7 33 -1 50 -6 60 -20 12 -16 11 -19 -4 -26 -26 -10 -343
-10 -343 0 0 14 33 39 61 45 23 6 27 13 33 63 10 83 8 596 -2 606 -5 5 -21 10
-36 12 -15 2 -37 13 -49 24 l-21 22 204 0 c117 0 222 -5 245 -11z m-3453 -292
c1 -47 -1 -89 -5 -93 -4 -4 -7 37 -7 91 0 120 9 122 12 2z m3143 -627 c10 -11
16 -20 13 -20 -3 0 -13 9 -23 20 -10 11 -16 20 -13 20 3 0 13 -9 23 -20z m50
-40 c10 -11 16 -20 13 -20 -3 0 -13 9 -23 20 -10 11 -16 20 -13 20 3 0 13 -9
23 -20z m-1765 -363 c0 58 -3 74 -17 82 -14 8 -8 10 27 10 25 0 39 -3 33 -6
-7 -2 -13 -22 -13 -42 0 -21 -3 -73 -7 -115 l-6 -78 -84 84 -83 83 0 -72 c0
-60 3 -72 18 -75 9 -3 -4 -6 -30 -9 -27 -2 -48 -1 -48 3 0 5 9 8 19 8 11 0 23
5 27 12 4 7 3 8 -4 4 -9 -5 -12 23 -12 106 l0 113 90 -90 90 -90 0 72z m3106
-64 c-6 -16 20 -38 29 -23 3 5 3 10 -2 10 -4 0 -8 28 -7 63 1 77 -4 95 -25
100 -9 3 0 4 20 4 20 0 41 3 47 7 7 4 12 3 12 -2 0 -6 -7 -12 -15 -15 -11 -5
-15 -31 -17 -119 l-3 -113 -82 85 c-45 47 -84 82 -88 79 -3 -4 -3 -36 1 -73 5
-46 11 -66 20 -66 8 0 14 -3 14 -7 0 -5 -20 -8 -45 -8 -25 0 -45 3 -45 8 0 4
6 7 14 7 8 0 18 5 22 12 5 7 3 8 -6 3 -11 -7 -12 3 -7 46 4 30 7 81 7 114 l0
60 80 -80 c44 -44 78 -85 76 -92z m-4258 50 l-2 -108 -3 100 c-3 63 -8 102
-16 107 -8 5 -7 8 6 8 15 0 17 -11 15 -107z m137 86 c19 -12 42 -33 51 -48 15
-25 15 -25 10 -2 -3 17 -2 21 6 13 15 -15 15 -86 -1 -116 -26 -47 -58 -60
-153 -62 -49 0 -88 0 -88 2 0 9 61 31 66 23 12 -21 131 -2 126 20 -1 7 2 10 8
6 12 -7 30 36 29 68 -1 20 -2 20 -9 -3 -8 -25 -8 -25 -9 -2 -3 59 -58 108
-112 100 -21 -3 -22 -7 -20 -97 2 -85 1 -93 -13 -82 -12 10 -16 33 -16 91 0
43 3 85 6 94 9 23 76 20 119 -5z m193 -81 l-2 -103 -3 90 c-3 70 -7 93 -20
103 -15 11 -15 12 5 12 21 0 22 -3 20 -102z m112 73 c0 -23 -1 -23 -13 -7 -8
11 -23 17 -38 14 -20 -2 -25 -9 -27 -42 -3 -38 -3 -39 27 -33 33 7 35 4 21
-28 -5 -11 -9 -14 -9 -7 -1 6 -11 12 -22 12 -19 0 -21 -4 -16 -40 3 -25 1 -40
-6 -40 -26 0 8 -15 36 -16 22 0 36 6 44 20 12 20 12 20 13 -6 0 -26 -1 -27
-80 -30 -44 -2 -80 0 -80 4 0 4 10 8 23 10 21 3 22 8 25 88 3 129 4 131 57
129 41 -3 45 -5 45 -28z m134 17 c5 -10 7 -10 12 0 3 7 24 12 50 12 41 0 44
-2 44 -27 -1 -25 -2 -26 -14 -10 -7 9 -25 17 -40 17 -24 0 -26 -3 -26 -41 0
-40 1 -41 29 -36 26 6 28 4 23 -21 -3 -15 -7 -21 -9 -14 -3 6 -13 12 -24 12
-16 0 -19 -7 -19 -50 0 -43 3 -50 20 -50 11 0 20 -3 20 -7 0 -5 -25 -8 -55 -8
-55 0 -75 11 -32 17 21 3 22 7 23 98 1 92 1 93 -6 25 l-6 -70 -2 72 c-2 57 -6
74 -19 82 -16 9 -16 10 4 11 12 0 24 -6 27 -12z m226 -95 l-5 -108 -3 100 c-2
64 -7 102 -15 107 -8 5 -5 8 8 8 19 0 20 -5 15 -107z m53 100 c-9 -3 -13 -35
-13 -109 0 -86 3 -104 15 -104 8 0 15 -3 15 -7 0 -5 -24 -6 -52 -4 -42 3 -48
5 -30 12 21 8 22 14 22 98 0 105 5 121 34 120 11 0 15 -3 9 -6z m472 -3 c-3
-5 -1 -10 4 -10 6 0 11 5 11 10 0 6 10 10 23 10 20 -1 20 -2 5 -11 -14 -7 -18
-23 -18 -63 0 -88 11 -145 29 -149 9 -3 -9 -5 -39 -5 -42 -1 -50 1 -32 8 21 9
22 14 20 102 l-2 93 -6 -95 -6 -95 -2 102 c-1 70 -6 103 -14 106 -7 3 -3 6 10
6 13 1 20 -3 17 -9z m335 -17 c-1 -24 -2 -25 -11 -10 -6 10 -22 17 -39 17
l-30 0 0 -99 c0 -86 2 -100 18 -104 9 -3 -8 -5 -38 -4 -30 0 -45 2 -32 4 16 3
22 9 18 20 -3 8 -6 53 -6 99 l0 84 -33 0 c-18 0 -38 -5 -45 -12 -13 -13 -15
-8 -6 16 5 13 24 16 105 16 l99 0 0 -27z m153 20 c-9 -3 -13 -35 -13 -108 0
-90 2 -104 18 -108 9 -3 -8 -5 -38 -4 -30 0 -45 2 -33 4 21 4 21 8 16 101 -4
72 -9 100 -21 110 -13 10 -8 12 34 11 27 0 43 -3 37 -6z m147 -23 c-5 -17 -5
-28 0 -25 11 7 23 -32 14 -46 -4 -8 -3 -9 5 -5 7 5 13 -3 17 -23 7 -33 34 -43
34 -13 0 9 13 43 28 74 28 56 28 57 8 61 -12 2 -1 5 23 6 38 1 42 -1 29 -11
-9 -7 -36 -59 -60 -116 -25 -57 -49 -103 -54 -104 -4 0 -28 47 -51 104 -24 56
-51 109 -60 116 -14 10 -10 12 29 12 l47 0 -9 -30z m370 10 c0 -21 -15 -27
-25 -10 -3 6 -17 10 -31 10 -22 0 -24 -4 -24 -41 0 -39 2 -41 25 -37 21 4 25
1 25 -18 0 -21 -2 -23 -20 -12 -24 16 -26 13 -32 -44 l-5 -47 33 3 c19 1 41
11 50 22 14 17 15 18 10 1 -3 -10 -6 -23 -6 -28 0 -5 -35 -9 -77 -8 -57 0 -72
3 -56 9 22 9 23 13 17 102 -5 67 -11 96 -22 106 -13 10 -2 12 61 12 70 0 77
-2 77 -20z m380 -7 c-1 -25 -2 -26 -14 -10 -7 9 -25 17 -40 17 -24 0 -26 -3
-26 -41 0 -40 1 -41 29 -36 26 6 28 4 23 -21 -3 -15 -7 -21 -9 -14 -3 6 -13
12 -24 12 -16 0 -19 -7 -19 -40 0 -22 0 -43 0 -47 -1 -16 53 -10 71 8 19 19
19 19 19 -6 0 -25 -1 -25 -82 -24 -50 1 -73 4 -58 8 24 7 25 10 26 96 l1 90
-7 -85 -6 -85 -2 92 c-2 76 -5 94 -19 102 -13 8 2 10 60 11 l77 0 0 -27z m245
17 c4 -6 15 -8 25 -5 30 9 70 -48 70 -100 0 -88 -73 -133 -193 -119 -45 6 -55
9 -37 14 24 6 25 8 26 100 l1 95 -7 -95 -6 -95 -2 102 c-2 87 -4 102 -19 106
-10 3 17 5 59 6 44 1 80 -3 83 -9z m209 -2 c-6 -10 -4 -10 7 0 7 6 22 12 34
12 18 -1 18 -1 3 -11 -15 -8 -18 -25 -18 -109 0 -94 1 -99 23 -103 12 -2 -5
-4 -38 -5 -38 0 -51 3 -36 7 14 4 27 13 29 20 3 8 0 11 -7 7 -8 -5 -11 20 -11
88 0 82 -2 95 -17 99 -11 3 -7 5 10 6 20 1 26 -3 21 -11z m336 -14 c0 -26 -1
-26 -18 -11 -10 10 -28 17 -40 17 -21 0 -22 -4 -22 -100 0 -82 3 -100 15 -100
8 0 15 -3 15 -7 0 -5 -24 -6 -52 -4 -42 3 -48 5 -30 12 21 8 22 13 20 96 l-2
88 -6 -90 -6 -90 -2 98 -2 97 -28 0 c-15 0 -33 -5 -40 -12 -9 -9 -12 -7 -12 9
0 19 6 21 105 22 l105 2 0 -27z m105 16 c-3 -5 -1 -10 4 -10 6 0 11 5 11 10 0
6 10 10 23 9 12 0 16 -3 10 -6 -9 -3 -13 -35 -13 -109 0 -86 3 -104 15 -104 8
0 15 -3 15 -7 0 -5 -22 -8 -50 -8 -51 0 -66 9 -30 18 17 4 20 13 18 64 l-1 58
-7 -60 c-6 -53 -7 -49 -7 39 0 72 -4 101 -14 107 -10 6 -8 9 9 9 13 0 20 -4
17 -10z m322 -3 c-1 -5 4 -12 12 -15 9 -3 11 0 7 9 -4 8 4 2 18 -14 49 -53 40
-144 -18 -182 -35 -23 -105 -29 -136 -13 -35 19 -70 76 -69 112 0 26 2 28 9
11 6 -14 9 -15 9 -5 1 9 10 32 20 53 23 46 18 48 -9 5 -11 -18 -20 -28 -20
-23 0 18 31 56 54 65 28 12 125 9 123 -3z m-1720 -189 c-3 -7 -5 -2 -5 12 0
14 2 19 5 13 2 -7 2 -19 0 -25z"/>
<path d="M2711 4425 c0 -5 6 -21 14 -35 8 -14 14 -20 14 -15 0 6 -6 21 -14 35
-8 14 -14 21 -14 15z"/>
<path d="M2741 4355 c0 -5 9 -28 20 -50 10 -22 16 -29 13 -15 -7 28 -33 80
-33 65z"/>
<path d="M2780 4257 c0 -3 21 -56 46 -119 26 -62 46 -121 46 -130 -1 -10 3
-18 9 -18 5 0 9 -9 9 -20 0 -11 4 -20 9 -20 5 0 11 -10 14 -22 4 -12 9 -20 12
-17 3 4 -26 82 -65 174 -64 155 -80 188 -80 172z"/>
<path d="M2647 4196 c-4 -10 -1 -13 8 -9 9 3 18 -4 24 -18 19 -51 41 -93 35
-69 -10 37 -45 110 -54 110 -4 0 -10 -7 -13 -14z"/>
<path d="M2613 4062 c-23 -59 -45 -114 -48 -122 -4 -13 8 -15 82 -13 49 1 93
2 99 2 7 1 -7 48 -32 111 -24 61 -44 115 -44 120 0 31 -20 -3 -57 -98z"/>
<path d="M2744 4002 c9 -23 20 -50 26 -60 10 -15 11 -15 5 3 -23 67 -29 81
-37 90 -5 5 -2 -9 6 -33z"/>
<path d="M2546 3955 c-9 -26 -7 -32 5 -12 6 10 9 21 6 23 -2 3 -7 -2 -11 -11z"/>
<path d="M2520 3912 c-5 -2 -8 -8 -4 -13 7 -11 272 -11 299 1 14 6 16 9 5 10
-31 4 -290 5 -300 2z"/>
<path d="M2936 3875 c4 -16 11 -34 15 -39 5 -6 9 -17 9 -26 0 -9 7 -25 16 -36
15 -18 15 -18 9 4 -12 43 -55 129 -49 97z"/>
<path d="M2800 3845 c0 -5 5 -17 10 -25 5 -8 10 -10 10 -5 0 6 -5 17 -10 25
-5 8 -10 11 -10 5z"/>
<path d="M2496 3815 c-9 -26 -7 -32 5 -12 6 10 9 21 6 23 -2 3 -7 -2 -11 -11z"/>
<path d="M2820 3795 c0 -5 5 -17 10 -25 5 -8 10 -10 10 -5 0 6 -5 17 -10 25
-5 8 -10 11 -10 5z"/>
<path d="M2846 3730 c3 -14 11 -32 16 -40 6 -10 7 -7 2 10 -3 14 -11 32 -16
40 -6 10 -7 7 -2 -10z"/>
<path d="M2995 3735 c25 -81 31 -95 38 -95 5 0 7 -10 6 -22 -2 -13 1 -29 5
-37 7 -10 5 -12 -5 -7 -8 4 -3 -1 11 -13 26 -21 93 -41 132 -40 13 0 3 6 -24
13 -26 7 -54 19 -63 26 -9 7 -36 54 -61 104 -25 50 -42 82 -39 71z"/>
<path d="M2870 3665 c0 -5 5 -17 10 -25 5 -8 10 -10 10 -5 0 6 -5 17 -10 25
-5 8 -10 11 -10 5z"/>
<path d="M2896 3600 c4 -14 10 -29 15 -34 5 -6 0 -20 -14 -34 l-22 -25 32 17
c37 19 51 36 29 36 -9 0 -23 15 -31 33 -11 23 -13 25 -9 7z"/>
<path d="M2409 3567 c-5 -24 -2 -30 18 -38 13 -5 34 -9 46 -8 24 1 18 4 -25
13 -20 5 -28 13 -30 34 l-3 27 -6 -28z"/>
<path d="M3670 4449 c-80 -10 -141 -29 -133 -42 3 -5 -3 -6 -16 -2 -57 18
-256 -160 -237 -211 3 -8 2 -13 -3 -10 -17 11 -55 -120 -49 -170 3 -29 3 -29
22 13 11 23 27 44 38 46 19 5 25 32 8 42 -5 3 -10 14 -10 25 0 14 5 17 22 12
18 -4 20 -2 16 16 -4 16 -2 19 10 15 9 -4 13 -2 9 4 -4 5 7 30 23 54 39 59 49
70 92 103 21 16 36 32 33 36 -3 5 3 6 14 3 10 -3 22 0 25 6 4 6 16 11 27 11
10 0 19 3 19 8 0 12 46 15 185 15 137 0 226 -5 219 -13 -3 -2 17 -12 43 -23
43 -17 48 -17 59 -3 14 19 30 21 38 4 3 -7 5 -4 3 7 -2 17 -13 21 -72 29 -39
5 -89 9 -112 10 -22 0 -39 4 -36 9 2 4 -15 8 -39 8 -24 1 -63 2 -88 3 -25 1
-74 -1 -110 -5z m400 -49 c0 -5 -5 -10 -11 -10 -5 0 -7 5 -4 10 3 6 8 10 11
10 2 0 4 -4 4 -10z m-620 -39 c0 -5 -7 -12 -16 -15 -14 -5 -15 -4 -4 9 14 17
20 19 20 6z m-50 -60 c-13 -25 -30 -28 -30 -5 0 8 5 12 11 9 6 -4 13 3 16 16
4 13 8 18 10 12 3 -7 -1 -21 -7 -32z m-62 -55 c-7 -8 -15 -12 -17 -11 -5 6 10
25 20 25 5 0 4 -6 -3 -14z m-67 -119 c-10 -9 -11 -8 -5 6 3 10 9 15 12 12 3
-3 0 -11 -7 -18z m4 -53 c-38 -20 -45 -17 -15 5 13 11 28 17 33 14 5 -3 -4
-11 -18 -19z"/>
<path d="M4043 4304 c16 -17 35 -51 42 -75 8 -24 14 -36 14 -26 1 30 -25 81
-55 107 l-29 25 28 -31z"/>
<path d="M3466 4282 l-19 -27 26 24 c28 26 32 31 20 31 -5 0 -17 -13 -27 -28z"/>
<path d="M4112 4265 c0 -16 2 -22 5 -12 2 9 2 23 0 30 -3 6 -5 -1 -5 -18z"/>
<path d="M3425 4219 c-9 -17 -15 -33 -13 -35 3 -2 12 12 21 31 21 43 13 47 -8
4z"/>
<path d="M3401 4154 c0 -11 3 -14 6 -6 3 7 2 16 -1 19 -3 4 -6 -2 -5 -13z"/>
<path d="M3392 4090 c0 -19 2 -27 5 -17 2 9 2 25 0 35 -3 9 -5 1 -5 -18z"/>
<path d="M3382 4015 c0 -16 2 -22 5 -12 2 9 2 23 0 30 -3 6 -5 -1 -5 -18z"/>
<path d="M3860 3960 c0 -5 7 -7 15 -4 8 4 15 8 15 10 0 2 -7 4 -15 4 -8 0 -15
-4 -15 -10z"/>
<path d="M3947 3960 c18 -4 48 -19 66 -33 l34 -26 32 20 c19 11 29 24 25 31
-4 6 -3 8 3 5 6 -4 30 -3 54 2 33 7 8 9 -101 9 -89 0 -132 -3 -113 -8z m106
-22 c3 -10 1 -21 -4 -24 -5 -3 -9 0 -9 7 0 6 -7 17 -16 23 -13 10 -13 12 5 12
11 0 22 -8 24 -18z"/>
<path d="M3228 3948 c-2 -7 -1 -26 3 -43 6 -28 7 -26 8 13 1 42 -3 53 -11 30z"/>
<path d="M3392 3930 c0 -14 2 -19 5 -12 2 6 2 18 0 25 -3 6 -5 1 -5 -13z"/>
<path d="M3980 3743 c0 -178 -1 -180 -103 -189 -190 -17 -352 68 -432 229 -35
70 -48 77 -20 11 8 -20 12 -40 9 -45 -3 -5 -2 -9 3 -9 4 0 8 -17 7 -39 0 -31
3 -37 17 -34 9 3 20 0 23 -6 4 -6 0 -11 -11 -11 -29 0 82 -69 145 -91 74 -25
230 -35 303 -20 43 9 63 20 90 49 19 20 24 29 13 19 -30 -25 -32 -16 -33 143
-1 74 -4 136 -6 139 -3 2 -5 -63 -5 -146z"/>
<path d="M3260 3776 c0 -11 30 -66 36 -66 2 0 -3 15 -12 33 -19 36 -24 44 -24
33z"/>
<path d="M4124 3665 c0 -55 1 -76 3 -47 2 29 2 74 0 100 -2 26 -3 2 -3 -53z"/>
<path d="M3300 3696 c0 -2 8 -10 18 -17 15 -13 16 -12 3 4 -13 16 -21 21 -21
13z"/>
<path d="M3345 3640 c3 -5 8 -10 11 -10 2 0 4 5 4 10 0 6 -5 10 -11 10 -5 0
-7 -4 -4 -10z"/>
<path d="M4670 4440 c-140 -3 -241 -7 -224 -8 16 -1 49 -16 72 -33 40 -30 57
-31 57 -6 0 18 123 26 255 17 66 -5 89 -3 102 8 15 13 17 10 21 -34 4 -47 4
-46 4 9 0 46 -3 57 -16 55 -9 -1 -131 -5 -271 -8z"/>
<path d="M4365 4430 c3 -5 8 -10 11 -10 2 0 4 5 4 10 0 6 -5 10 -11 10 -5 0
-7 -4 -4 -10z"/>
<path d="M4476 4385 c4 -11 10 -36 14 -55 8 -34 8 -34 8 -5 1 17 -6 41 -14 55
-10 16 -13 18 -8 5z"/>
<path d="M4641 4354 c0 -11 3 -14 6 -6 3 7 2 16 -1 19 -3 4 -6 -2 -5 -13z"/>
<path d="M4639 4263 c0 -32 -1 -87 -2 -121 -1 -35 1 -69 5 -75 4 -7 8 48 8
121 0 72 -2 132 -5 132 -3 0 -5 -26 -6 -57z"/>
<path d="M4491 4097 c-1 -140 2 -196 10 -191 6 3 8 17 5 30 -4 14 -2 24 4 24
5 0 10 5 10 11 0 5 -6 7 -12 3 -9 -6 -9 -3 0 9 8 9 10 21 6 28 -4 7 -9 29 -10
50 -3 30 1 41 18 53 12 9 18 16 12 16 -6 0 -9 17 -7 40 2 25 -1 40 -8 40 -8 0
-8 5 1 15 8 9 8 15 2 15 -6 0 -15 12 -20 28 -8 20 -11 -26 -11 -171z"/>
<path d="M4532 4065 c0 -16 2 -22 5 -12 2 9 2 23 0 30 -3 6 -5 -1 -5 -18z"/>
<path d="M4820 4054 c-17 -10 -51 -14 -105 -13 -44 1 -88 -2 -97 -6 -37 -15
-3 -25 91 -25 86 0 100 2 117 21 17 19 19 19 25 2 6 -14 8 -12 8 10 1 30 -3
31 -39 11z"/>
<path d="M4644 3815 c0 -88 2 -123 3 -77 2 46 2 118 0 160 -1 42 -3 5 -3 -83z"/>
<path d="M4821 3904 c0 -11 3 -14 6 -6 3 7 2 16 -1 19 -3 4 -6 -2 -5 -13z"/>
<path d="M4485 3870 c-3 -5 -1 -10 4 -10 6 0 11 5 11 10 0 6 -2 10 -4 10 -3 0
-8 -4 -11 -10z"/>
<path d="M4479 3723 c-2 -136 -8 -164 -39 -180 l-25 -13 27 0 c16 0 43 14 70
37 23 20 35 34 26 30 -11 -4 -18 -2 -18 5 0 6 -7 20 -17 30 -14 15 -14 18 -1
18 8 0 15 7 15 15 0 8 -4 15 -9 15 -5 0 -3 10 3 23 11 19 10 20 -2 10 -12 -10
-15 -8 -15 7 0 10 4 16 8 14 5 -3 7 9 6 26 -1 17 -6 34 -10 36 -5 3 -6 9 -3
14 3 5 1 11 -5 15 -6 4 -10 -32 -11 -102z"/>
<path d="M4961 3646 c-26 -59 -49 -70 -151 -71 -108 0 -138 8 -146 40 -6 25
-26 36 -23 13 4 -36 -2 -50 -18 -44 -15 5 -15 4 1 -9 28 -22 68 -26 196 -23
l115 3 17 35 c37 75 46 100 38 100 -5 0 -18 -20 -29 -44z"/>
<path d="M4972 3550 c0 -14 2 -19 5 -12 2 6 2 18 0 25 -3 6 -5 1 -5 -13z"/>
<path d="M4388 3523 c7 -3 16 -2 19 1 4 3 -2 6 -13 5 -11 0 -14 -3 -6 -6z"/>
<path d="M3441 3213 c-23 -28 -37 -70 -28 -79 3 -3 10 11 16 31 5 21 18 46 27
56 9 11 14 19 11 19 -3 0 -15 -12 -26 -27z"/>
<path d="M3487 3220 c-47 -37 -47 -114 1 -173 l26 -32 -32 29 c-18 17 -32 25
-32 19 0 -35 80 -60 130 -40 14 6 29 9 33 8 12 -2 37 65 36 96 l-1 28 -8 -30
c-6 -28 -8 -26 -15 22 -6 45 -13 56 -40 73 -41 25 -66 25 -98 0z m133 -167
c-11 -17 -11 -17 -6 0 3 10 6 24 7 30 0 9 2 9 5 0 3 -7 0 -20 -6 -30z"/>
<path d="M3755 3240 c4 -6 11 -8 16 -5 14 9 11 15 -7 15 -8 0 -12 -5 -9 -10z"/>
<path d="M3753 3130 c0 -25 2 -35 4 -22 2 12 2 32 0 45 -2 12 -4 2 -4 -23z"/>
<path d="M3750 3049 c0 -16 4 -28 9 -25 8 5 3 56 -5 56 -2 0 -4 -14 -4 -31z"/>
<path d="M6173 2705 c0 -22 2 -30 4 -17 2 12 2 30 0 40 -3 9 -5 -1 -4 -23z"/>
<path d="M6116 2680 c6 -8 16 -24 22 -35 6 -11 12 -15 12 -8 0 7 -10 22 -22
35 -13 13 -18 17 -12 8z"/>
<path d="M5742 2520 c0 -19 2 -27 5 -17 2 9 2 25 0 35 -3 9 -5 1 -5 -18z"/>
<path d="M5761 2446 c11 -19 27 -40 36 -47 8 -8 4 4 -11 25 -14 21 -26 43 -26
47 0 5 -4 9 -10 9 -5 0 0 -15 11 -34z"/>
<path d="M6066 2126 c9 -22 14 -50 11 -63 -3 -17 -1 -21 5 -15 13 13 2 72 -17
98 -12 16 -12 12 1 -20z"/>
<path d="M6192 2130 c0 -19 2 -27 5 -17 2 9 2 25 0 35 -3 9 -5 1 -5 -18z"/>
<path d="M5712 2035 c-2 -83 0 -94 14 -88 9 3 12 9 7 12 -5 3 -8 15 -7 26 8
91 8 139 -1 142 -6 2 -11 -34 -13 -92z"/>
<path d="M5744 2040 c4 -42 29 -88 54 -99 98 -45 261 -8 302 69 8 15 6 17 -13
12 -12 -3 -35 -18 -50 -34 -77 -76 -227 -55 -276 39 -16 32 -19 34 -17 13z"/>
<path d="M2025 2760 c-4 -6 -31 -150 -61 -321 -53 -297 -55 -312 -39 -342 l16
-32 -5 32 c-2 17 -7 36 -11 42 -3 7 0 8 9 5 18 -7 21 7 5 23 -8 8 -7 13 2 18
8 6 10 4 4 -5 -5 -9 -4 -11 3 -6 17 10 16 59 0 50 -7 -4 -6 1 3 12 9 11 23 67
33 139 22 150 22 150 52 180 20 21 24 32 20 60 -7 41 11 48 20 8 4 -16 11 -33
16 -40 6 -7 4 -13 -4 -15 -8 -3 -3 -14 16 -31 16 -15 26 -27 22 -27 -7 0 20
-53 37 -75 5 -5 18 -28 30 -50 13 -22 32 -44 45 -50 24 -11 29 -25 10 -25 -8
0 -5 -7 6 -15 11 -8 17 -15 13 -15 -4 0 2 -9 14 -21 11 -11 18 -27 15 -35 -3
-8 -2 -12 3 -9 16 9 25 -16 10 -27 -11 -8 -10 -9 4 -4 19 6 24 -10 5 -17 -10
-3 -10 -8 -2 -16 14 -15 47 -2 40 16 -3 8 -2 12 3 9 5 -3 51 78 102 180 79
157 99 189 125 201 33 16 34 18 50 148 3 16 9 34 14 39 13 13 13 26 0 26 -5 0
-75 -130 -155 -290 -80 -159 -148 -290 -153 -290 -4 0 -72 131 -152 290 -80
160 -148 290 -152 290 -4 0 -10 -5 -13 -10z"/>
<path d="M2577 2504 c-3 -3 -2 -16 3 -29 5 -12 12 -59 15 -103 4 -45 11 -82
14 -82 4 0 3 33 -1 73 -5 39 -9 89 -10 110 -2 35 -8 44 -21 31z"/>
<path d="M2034 2466 c-3 -14 -4 -33 -1 -43 3 -12 5 -9 6 10 1 33 13 35 35 5
14 -20 14 -18 -1 15 -19 43 -30 47 -39 13z"/>
<path d="M2550 2460 c-6 -11 -8 -20 -6 -20 3 0 10 9 16 20 6 11 8 20 6 20 -3
0 -10 -9 -16 -20z"/>
<path d="M2702 2450 c0 -14 2 -19 5 -12 2 6 2 18 0 25 -3 6 -5 1 -5 -13z"/>
<path d="M2092 2403 c21 -48 99 -193 103 -193 3 0 -17 45 -45 100 -28 55 -53
100 -56 100 -3 0 -4 -3 -2 -7z"/>
<path d="M2712 2385 c0 -16 2 -22 5 -12 2 9 2 23 0 30 -3 6 -5 -1 -5 -18z"/>
<path d="M2023 2360 c0 -25 2 -35 4 -22 2 12 2 32 0 45 -2 12 -4 2 -4 -23z"/>
<path d="M2722 2325 c0 -16 2 -22 5 -12 2 9 2 23 0 30 -3 6 -5 -1 -5 -18z"/>
<path d="M2012 2270 c0 -19 2 -27 5 -17 2 9 2 25 0 35 -3 9 -5 1 -5 -18z"/>
<path d="M2732 2265 c0 -16 2 -22 5 -12 2 9 2 23 0 30 -3 6 -5 -1 -5 -18z"/>
<path d="M2612 2240 c0 -19 2 -27 5 -17 2 9 2 25 0 35 -3 9 -5 1 -5 -18z"/>
<path d="M2002 2170 c0 -14 2 -19 5 -12 2 6 2 18 0 25 -3 6 -5 1 -5 -13z"/>
<path d="M2623 2155 c0 -22 2 -30 4 -17 2 12 2 30 0 40 -3 9 -5 -1 -4 -23z"/>
<path d="M2216 2167 c3 -10 9 -15 12 -12 3 3 0 11 -7 18 -10 9 -11 8 -5 -6z"/>
<path d="M1993 2085 c0 -22 2 -30 4 -17 2 12 2 30 0 40 -3 9 -5 -1 -4 -23z"/>
<path d="M1900 2090 c0 -8 -7 -27 -14 -42 -17 -32 -7 -36 22 -10 17 15 18 20
6 42 -8 14 -14 19 -14 10z"/>
<path d="M2761 2084 c0 -11 3 -14 6 -6 3 7 2 16 -1 19 -3 4 -6 -2 -5 -13z"/>
<path d="M2627 2036 c-4 -10 -1 -13 8 -9 8 3 12 9 9 14 -7 12 -11 11 -17 -5z"/>
<path d="M2782 2034 c9 -9 21 -15 27 -13 6 2 -2 10 -17 17 -25 11 -25 11 -10
-4z"/>
<path d="M2290 2021 c0 -6 4 -13 10 -16 6 -3 7 1 4 9 -7 18 -14 21 -14 7z"/>
<path d="M3055 2741 c28 -3 64 -16 81 -28 31 -22 31 -22 49 -3 14 16 31 20 78
20 79 0 129 -16 177 -57 22 -19 40 -32 40 -29 0 3 11 1 25 -4 37 -14 32 6 -12
50 -51 51 -103 60 -316 59 -97 -1 -150 -4 -122 -8z"/>
<path d="M3107 2447 c3 -311 2 -288 14 -259 5 13 7 28 4 32 -3 5 -1 19 4 33 7
17 6 28 -2 37 -9 10 -9 11 1 6 8 -5 11 -1 9 13 -2 11 -6 24 -10 27 -4 4 -2 13
4 21 6 7 8 13 3 13 -5 0 -9 38 -10 84 0 47 3 83 8 80 4 -3 4 5 -1 18 -5 13 -8
45 -7 71 1 26 -3 56 -9 66 -7 14 -9 -57 -8 -242z"/>
<path d="M3223 2660 c0 -25 2 -35 4 -22 2 12 2 32 0 45 -2 12 -4 2 -4 -23z"/>
<path d="M3249 2624 c-1 -38 0 -79 1 -91 1 -15 -4 -23 -14 -23 -9 0 -16 -4
-16 -10 0 -5 7 -7 15 -4 12 5 15 -5 15 -61 l0 -68 47 6 c162 18 157 292 -6
314 l-41 6 -1 -69z"/>
<path d="M3386 2650 c12 -14 26 -34 32 -45 6 -11 12 -14 12 -7 0 7 -15 27 -32
45 -18 18 -23 21 -12 7z"/>
<path d="M3222 2585 c0 -16 2 -22 5 -12 2 9 2 23 0 30 -3 6 -5 -1 -5 -18z"/>
<path d="M3433 2530 c0 -32 -7 -69 -16 -87 -23 -44 -73 -83 -108 -83 -16 0
-29 -4 -29 -9 0 -12 79 6 110 26 52 33 87 92 70 121 -5 9 -14 33 -19 52 -8 33
-8 31 -8 -20z"/>
<path d="M3223 2435 c0 -22 2 -30 4 -17 2 12 2 30 0 40 -3 9 -5 -1 -4 -23z"/>
<path d="M3234 2195 c0 -49 1 -71 3 -48 2 23 2 64 0 90 -2 26 -3 8 -3 -42z"/>
<path d="M3100 2101 c0 -32 -6 -55 -16 -65 -30 -30 10 -17 46 15 19 17 30 28
23 24 -13 -6 -30 38 -25 63 2 6 -4 12 -13 12 -11 0 -15 -12 -15 -49z"/>
<path d="M3234 2065 c1 -31 6 -41 21 -43 15 -2 17 -1 7 6 -8 5 -18 25 -22 43
l-9 34 3 -40z"/>
<path d="M3038 2013 c7 -3 16 -2 19 1 4 3 -2 6 -13 5 -11 0 -14 -3 -6 -6z"/>
<path d="M5305 2750 c-115 -3 -198 -7 -184 -8 14 -1 40 -13 58 -26 l33 -24 34
20 c32 19 47 20 145 16 75 -4 111 -2 116 6 4 6 10 1 14 -14 6 -23 7 -22 8 8 1
17 -2 31 -6 30 -5 -1 -102 -5 -218 -8z"/>
<path d="M5068 2743 c7 -3 16 -2 19 1 4 3 -2 6 -13 5 -11 0 -14 -3 -6 -6z"/>
<path d="M5154 2690 c3 -14 6 -99 6 -189 0 -90 2 -162 5 -160 2 3 5 79 6 170
1 115 -2 172 -10 185 -11 17 -12 17 -7 -6z"/>
<path d="M5273 2625 c0 -38 2 -53 4 -32 2 20 2 52 0 70 -2 17 -4 1 -4 -38z"/>
<path d="M5272 2530 c0 -14 2 -19 5 -12 2 6 2 18 0 25 -3 6 -5 1 -5 -13z"/>
<path d="M5422 2438 c-7 -7 -42 -13 -83 -14 -93 -2 -97 -10 -7 -17 68 -5 75
-3 98 19 13 13 20 24 14 24 -5 0 -16 -6 -22 -12z"/>
<path d="M5150 2081 c0 -16 -7 -37 -16 -45 -16 -16 -8 -22 11 -8 11 7 21 82
11 82 -3 0 -6 -13 -6 -29z"/>
<path d="M5501 2069 c-24 -20 -23 -36 2 -26 11 4 33 49 24 47 -1 -1 -13 -10
-26 -21z"/>
<path d="M5290 2071 c0 -5 7 -12 16 -15 14 -5 15 -4 4 9 -14 17 -20 19 -20 6z"/>
<path d="M5351 2046 c9 -10 85 -13 104 -6 13 6 -1 9 -44 9 -35 1 -62 -1 -60
-3z"/>
<path d="M3800 2743 c14 -3 40 -16 58 -30 31 -24 34 -24 52 -8 10 9 36 23 57
31 36 12 31 13 -77 12 -63 0 -104 -3 -90 -5z"/>
<path d="M3944 2545 c0 -60 1 -84 3 -52 2 32 2 81 0 110 -2 29 -3 3 -3 -58z"/>
<path d="M3833 2415 c0 -33 2 -45 4 -27 2 18 2 45 0 60 -2 15 -4 0 -4 -33z"/>
<path d="M3945 2270 c-3 -5 -1 -10 4 -10 6 0 11 5 11 10 0 6 -2 10 -4 10 -3 0
-8 -4 -11 -10z"/>
<path d="M4297 2741 c29 -3 65 -16 81 -28 30 -22 30 -22 47 -2 14 15 31 19 79
19 81 0 126 -14 181 -55 25 -19 53 -35 63 -35 10 0 23 -12 29 -27 9 -24 11
-25 12 -7 2 33 -41 87 -89 114 -43 24 -52 25 -250 26 -113 2 -182 -1 -153 -5z"/>
<path d="M4340 2708 c6 -7 11 -73 11 -147 1 -75 4 -125 6 -111 3 14 10 28 17
32 8 6 7 8 -2 8 -19 0 -12 71 8 88 12 10 12 12 1 10 -10 -2 -15 12 -18 52 -3
30 -11 61 -19 68 -9 8 -10 8 -4 0z"/>
<path d="M4463 2665 c0 -22 2 -30 4 -17 2 12 2 30 0 40 -3 9 -5 -1 -4 -23z"/>
<path d="M4488 2684 c-5 -4 -8 -74 -8 -155 0 -164 -2 -159 74 -159 57 0 94 37
105 107 17 109 -36 201 -120 210 -24 3 -47 1 -51 -3z"/>
<path d="M4637 2650 c69 -90 50 -245 -33 -285 -27 -13 -51 -15 -97 -11 -37 4
-54 3 -42 -2 11 -5 46 -8 77 -8 32 1 60 -3 62 -9 4 -11 42 29 81 85 27 40 42
90 27 90 -6 0 -16 23 -23 50 -7 28 -24 63 -38 78 -14 16 -21 21 -14 12z"/>
<path d="M4462 2600 c0 -14 2 -19 5 -12 2 6 2 18 0 25 -3 6 -5 1 -5 -13z"/>
<path d="M4463 2530 c0 -25 2 -35 4 -22 2 12 2 32 0 45 -2 12 -4 2 -4 -23z"/>
<path d="M4353 2375 c0 -27 2 -38 4 -22 2 15 2 37 0 50 -2 12 -4 0 -4 -28z"/>
<path d="M4660 2344 c0 -3 9 -18 20 -34 11 -15 16 -30 12 -34 -4 -4 0 -6 8 -4
8 2 14 -3 13 -9 -2 -7 4 -13 12 -13 8 0 15 -3 15 -7 0 -5 20 -29 44 -55 24
-26 46 -53 49 -60 2 -7 8 -9 13 -5 5 4 4 11 -2 15 -6 4 -49 53 -97 110 -48 57
-87 100 -87 96z"/>
<path d="M4352 2285 c0 -16 2 -22 5 -12 2 9 2 23 0 30 -3 6 -5 -1 -5 -18z"/>
<path d="M4878 2084 c17 -15 29 -32 25 -38 -3 -6 -3 -8 2 -4 4 4 17 1 29 -7
11 -8 25 -15 30 -15 5 0 -9 13 -30 28 -21 16 -45 36 -53 45 -7 9 -18 17 -24
17 -6 0 3 -12 21 -26z"/>
<path d="M4341 2065 c0 -12 -6 -26 -13 -33 -9 -9 -9 -12 0 -12 16 0 25 23 19
47 -4 16 -5 15 -6 -2z"/>
<path d="M2470 1497 c0 -9 5 -17 11 -17 7 0 45 -35 84 -77 40 -43 76 -75 81
-70 4 4 5 8 3 10 -3 1 -44 40 -92 87 -56 55 -87 78 -87 67z"/>
<path d="M5601 1500 c2 -17 139 -149 139 -134 0 5 -31 41 -70 79 -38 38 -69
63 -69 55z"/>
<path d="M3490 1340 c0 -5 5 -10 10 -10 6 0 10 5 10 10 0 6 -4 10 -10 10 -5 0
-10 -4 -10 -10z"/>
<path d="M4361 1402 l1 -98 37 -2 c26 -2 46 4 66 20 16 12 26 17 21 10 -4 -6
-5 -12 -2 -12 3 0 10 9 16 20 7 14 7 33 -1 65 -14 57 -56 95 -105 95 l-35 0 2
-98z"/>
<path d="M4493 1476 c12 -14 24 -23 26 -20 5 5 -30 44 -40 44 -4 0 2 -11 14
-24z"/>
<path d="M4653 1415 c0 -38 2 -53 4 -32 2 20 2 52 0 70 -2 17 -4 1 -4 -38z"/>
<path d="M4870 1499 c0 -5 5 -7 10 -4 6 3 10 8 10 11 0 2 -4 4 -10 4 -5 0 -10
-5 -10 -11z"/>
<path d="M5323 1500 c-12 -5 -26 -18 -32 -29 -16 -30 -13 -93 6 -121 l17 -25
-24 20 -23 20 12 -22 c6 -13 21 -28 32 -34 17 -9 20 -8 13 3 -6 11 -5 11 9 -1
21 -17 78 -7 101 17 8 10 18 34 21 53 4 27 3 29 -3 9 -7 -22 -9 -20 -14 19
-10 67 -65 111 -115 91z m108 -163 c-10 -9 -11 -8 -5 6 3 10 9 15 12 12 3 -3
0 -11 -7 -18z"/>
<path d="M5440 1481 c0 -5 7 -15 17 -22 15 -13 15 -12 4 9 -12 23 -21 28 -21
13z"/>
<path d="M1605 2769 c-16 -5 -134 -8 -262 -7 -127 2 -235 -1 -240 -6 -4 -5 2
-6 13 -2 34 10 104 -10 135 -40 l28 -27 33 28 33 28 132 -5 c104 -4 134 -3
145 9 12 12 14 5 12 -49 l-3 -63 9 65 c5 36 6 68 2 71 -4 3 -20 2 -37 -2z"/>
<path d="M1351 2695 c-2 -5 -3 -75 -2 -154 1 -124 -1 -145 -15 -156 -14 -10
-1 -13 77 -18 85 -5 96 -4 111 14 16 19 17 19 21 -8 3 -23 4 -21 6 10 1 43 2
42 -35 22 -17 -8 -56 -15 -91 -15 l-62 0 -4 158 c-1 86 -4 153 -6 147z"/>
<path d="M1354 2205 c0 -71 1 -99 3 -62 2 37 2 96 0 130 -2 34 -3 4 -3 -68z"/>
<path d="M1501 2303 c7 -12 15 -20 18 -17 3 2 -3 12 -13 22 -17 16 -18 16 -5
-5z"/>
<path d="M1527 2280 c-3 -11 -1 -23 4 -26 5 -3 9 6 9 20 0 31 -6 34 -13 6z"/>
<path d="M1663 2058 c-6 -7 -14 -23 -17 -35 -15 -48 -51 -63 -151 -63 -97 0
-116 8 -128 55 -5 20 -5 20 -6 0 0 -12 -6 -26 -12 -32 -27 -27 66 -57 156 -49
17 2 49 4 72 4 40 2 44 5 62 44 15 34 20 38 24 23 2 -11 2 -6 0 12 -2 19 1 33
9 36 7 2 10 7 7 11 -3 4 -11 1 -16 -6z"/>
<path d="M1651 1924 c0 -11 3 -14 6 -6 3 7 2 16 -1 19 -3 4 -6 -2 -5 -13z"/>
</g>
</svg>
