<svg width="12" height="12" viewBox="0 0 12 12" fill="none" xmlns="http://www.w3.org/2000/svg">
<path d="M11.7465 10.5349C11.9074 10.6958 11.9979 10.9141 11.9979 11.1417C11.9979 11.3694 11.9074 11.5877 11.7465 11.7486C11.5855 11.9096 11.3672 12 11.1396 12C10.912 12 10.6937 11.9096 10.5327 11.7486L5.99964 7.21412L1.46515 11.7472C1.30419 11.9081 1.08589 11.9986 0.858264 11.9986C0.630638 11.9986 0.412335 11.9081 0.25138 11.7472C0.0904241 11.5862 2.39843e-09 11.3679 0 11.1403C-2.39843e-09 10.9127 0.0904241 10.6944 0.25138 10.5334L4.78587 6.00036L0.252807 1.46586C0.0918518 1.30491 0.00142799 1.0866 0.001428 0.858978C0.001428 0.631352 0.0918518 0.413049 0.252807 0.252094C0.413763 0.0911379 0.632066 0.000713864 0.859692 0.000713861C1.08732 0.000713859 1.30562 0.0911379 1.46658 0.252094L5.99964 4.78659L10.5341 0.251379C10.6951 0.0904238 10.9134 -3.79225e-09 11.141 0C11.3686 3.79225e-09 11.5869 0.0904238 11.7479 0.251379C11.9089 0.412335 11.9993 0.630638 11.9993 0.858263C11.9993 1.08589 11.9089 1.30419 11.7479 1.46515L7.21341 6.00036L11.7465 10.5349Z" fill="#F24E1E"/>
</svg>
